<mxfile host="app.diagrams.net" modified="2023-07-04T02:56:28.073Z" agent="Mozilla/5.0 (Windows NT 10.0; Win64; x64) AppleWebKit/537.36 (KHTML, like Gecko) Chrome/114.0.0.0 Safari/537.36" etag="_u7YDKpuyYo5NmBjMcWb" version="21.5.2" type="github">
  <diagram name="Page-1" id="vSVjgofQDmTDmbDLaCSf">
    <mxGraphModel dx="1956" dy="5612" grid="1" gridSize="10" guides="1" tooltips="1" connect="1" arrows="1" fold="1" page="1" pageScale="1" pageWidth="3300" pageHeight="4681" math="0" shadow="0">
      <root>
        <mxCell id="0" />
        <mxCell id="1" parent="0" />
        <mxCell id="ZdIIvcqZWt0Pzcp1OfUl-3" value="" style="shape=singleArrow;whiteSpace=wrap;html=1;" vertex="1" parent="1">
          <mxGeometry x="440" y="-100" width="100" height="60" as="geometry" />
        </mxCell>
        <mxCell id="ZdIIvcqZWt0Pzcp1OfUl-4" value="" style="shape=image;verticalLabelPosition=bottom;labelBackgroundColor=default;verticalAlign=top;aspect=fixed;imageAspect=0;image=data:image/svg+xml,PHN2ZyB4bWxucz0iaHR0cDovL3d3dy53My5vcmcvMjAwMC9zdmciIHZpZXdCb3g9IjAgMCA0OTYgNTEyIj48cGF0aCBkPSJtMTY1LjkgMzk3LjRjMCAyLTIuMyAzLjYtNS4yIDMuNi0zLjMuMy01LjYtMS4zLTUuNi0zLjYgMC0yIDIuMy0zLjYgNS4yLTMuNiAzLS4zIDUuNiAxLjMgNS42IDMuNnptLTMxLjEtNC41Yy0uNyAyIDEuMyA0LjMgNC4zIDQuOSAyLjYgMSA1LjYgMCA2LjItMnMtMS4zLTQuMy00LjMtNS4yYy0yLjYtLjctNS41LjMtNi4yIDIuM3ptNDQuMi0xLjdjLTIuOS43LTQuOSAyLjYtNC42IDQuOS4zIDIgMi45IDMuMyA1LjkgMi42IDIuOS0uNyA0LjktMi42IDQuNi00LjYtLjMtMS45LTMtMy4yLTUuOS0yLjl6bTY1LjgtMzgzLjJjLTEzOC43IDAtMjQ0LjggMTA1LjMtMjQ0LjggMjQ0IDAgMTEwLjkgNjkuOCAyMDUuOCAxNjkuNSAyMzkuMiAxMi44IDIuMyAxNy4zLTUuNiAxNy4zLTEyLjEgMC02LjItLjMtNDAuNC0uMy02MS40IDAgMC03MCAxNS04NC43LTI5LjggMCAwLTExLjQtMjkuMS0yNy44LTM2LjYgMCAwLTIyLjktMTUuNyAxLjYtMTUuNCAwIDAgMjQuOSAyIDM4LjYgMjUuOCAyMS45IDM4LjYgNTguNiAyNy41IDcyLjkgMjAuOSAyLjMtMTYgOC44LTI3LjEgMTYtMzMuNy01NS45LTYuMi0xMTIuMy0xNC4zLTExMi4zLTExMC41IDAtMjcuNSA3LjYtNDEuMyAyMy42LTU4LjktMi42LTYuNS0xMS4xLTMzLjMgMi42LTY3LjkgMjAuOS02LjUgNjkgMjcgNjkgMjcgMjAtNS42IDQxLjUtOC41IDYyLjgtOC41czQyLjggMi45IDYyLjggOC41YzAgMCA0OC4xLTMzLjYgNjktMjcgMTMuNyAzNC43IDUuMiA2MS40IDIuNiA2Ny45IDE2IDE3LjcgMjUuOCAzMS41IDI1LjggNTguOSAwIDk2LjUtNTguOSAxMDQuMi0xMTQuOCAxMTAuNSA5LjIgNy45IDE3IDIyLjkgMTcgNDYuNCAwIDMzLjctLjMgNzUuNC0uMyA4My42IDAgNi41IDQuNiAxNC40IDE3LjMgMTIuMSAxMDAtMzMuMiAxNjcuOC0xMjguMSAxNjcuOC0yMzkgMC0xMzguNy0xMTIuNS0yNDQtMjUxLjItMjQ0em0tMTQ3LjYgMzQ0LjljLTEuMyAxLTEgMy4zLjcgNS4yIDEuNiAxLjYgMy45IDIuMyA1LjIgMSAxLjMtMSAxLTMuMy0uNy01LjItMS42LTEuNi0zLjktMi4zLTUuMi0xem0tMTAuOC04LjFjLS43IDEuMy4zIDIuOSAyLjMgMy45IDEuNiAxIDMuNi43IDQuMy0uNy43LTEuMy0uMy0yLjktMi4zLTMuOS0yLS42LTMuNi0uMy00LjMuN3ptMzIuNCAzNS42Yy0xLjYgMS4zLTEgNC4zIDEuMyA2LjIgMi4zIDIuMyA1LjIgMi42IDYuNSAxIDEuMy0xLjMuNy00LjMtMS4zLTYuMi0yLjItMi4zLTUuMi0yLjYtNi41LTF6bS0xMS40LTE0LjdjLTEuNiAxLTEuNiAzLjYgMCA1LjlzNC4zIDMuMyA1LjYgMi4zYzEuNi0xLjMgMS42LTMuOSAwLTYuMi0xLjQtMi4zLTQtMy4zLTUuNi0yeiIvPjwvc3ZnPg==;" vertex="1" parent="1">
          <mxGeometry x="820" y="-1660" width="174.38" height="180" as="geometry" />
        </mxCell>
        <mxCell id="ZdIIvcqZWt0Pzcp1OfUl-6" value="" style="shape=image;verticalLabelPosition=bottom;labelBackgroundColor=default;verticalAlign=top;aspect=fixed;imageAspect=0;image=data:image/svg+xml,PHN2ZyB4bWxucz0iaHR0cDovL3d3dy53My5vcmcvMjAwMC9zdmciIHZpZXdCb3g9IjAgMCA3MiA3MiI+PHBhdGggZmlsbD0iIzkyZDNmNSIgZD0ibTE3LjEzNDcgNTguODk4OXMtMi0xMy41IDEwLTEzLjVjMy4xOTE4IDIuMTI3OSA1LjkyNjQgMy41OTg0IDkgMy41OTIyaC0uMTI0N2MzLjA3MzYuMDA2MiA1LjQwODEtMi4xNjQzIDguNi00LjI5MjIgMTUuNTcwNSAwIDEwLjggMTQuMiAxMC44IDE0LjIiLz48cGF0aCBmaWxsPSIjNjFiMmU0IiBkPSJtNDkuMjk3IDU4Ljg2MXYtMTIuODc1bC00LjQ5MS0uNzg0djcuMjQ1aC0xNy44NzdsLjAwMi03LjI0NS00LjY2Ni43ODR2MTIuODc1eiIvPjxwYXRoIGZpbGw9IiNkMGNmY2UiIGQ9Im02Ny4wODcgNDMuNDIzLTYuOTUgMTYuMzQ5aC0yNC45OWw2Ljk1LTE2LjM0OXoiLz48cGF0aCBmaWxsPSIjOWI5YjlhIiBkPSJtNjcuMzAzIDQzLjQyMy02Ljk1IDE2LjM0OWgtLjIyLTguNzdsNi45NS0xNi4zNDloOC43N3oiLz48cGF0aCBmaWxsPSIjZjRhYTQxIiBkPSJtNDkuMTYzMSAzMy43ODgzYy0yLjExMzEgNS4yODQ3LTcuNDE5MiA4LjcwMjQtMTMuNjMxMSA4LjcwMjQtNS4zNTUxIDAtMTEuMzEtMy4zMDc1LTEzLjQyMzMtOC41OTIybC0uMDc0Mi0uMTgxM2MtLjY3LTEuNjU3Ni0uNTYyMi0zLjY4NjUtLjU2MjItNS41ODM1bDIuMTUzOC0xOC43NjM3IDYuMDA3NiA1Ljg0MjlhMTQuMzU0NSAxNC4zNTQ1IDAgMCAxIDUuNTg2LTEuMTIzOWguNjI0NmExNC4zNTQ1IDE0LjM1NDUgMCAwIDEgNS41ODYgMS4xMjM5bDYuNTk1MS02LjQyMjkgMi4xODYzIDE5LjYzNjRhMTQuMjY3MiAxNC4yNjcyIDAgMCAxIC0xLjA0IDUuMzY1NyIvPjxwYXRoIGZpbGw9IiNlMjcwMjIiIGQ9Im0zNS41MzIgNDIuNDkwN2M2LjIzMTIuMTk4NSAxMS45NTUzLTMuMzk4MSAxNC4wNjg0LTguNjgyOGwuMDY1MS0uMTMzOWMuNjctMS42NTc2LjU2MjYtMy45OTc2LjU2MjYtNS44OTQ2bC0yLjIwMjctMTguOTg5NCIvPjxwYXRoIGZpbGw9IiNiMzk5YzgiIGQ9Im0yMi42NTIgMTcuNy0uNDg3IDQuNzI4IDI3LjEzMi0xLjY0MS0uMjgzLTIuNDU0eiIvPjxwYXRoIGZpbGw9IiNiMzk5YzgiIGQ9Im01MC44OTcyIDE5LjZhMiAyIDAgMSAxIC0yLTIgMi4wMDA3IDIuMDAwNyAwIDAgMSAyIDIiLz48cGF0aCBmaWxsPSIjZmZmIiBkPSJtNDcuMDcyMyAyNC45NzQ4cy04LjE2NzggMy40MDc1LTcuNzgzNyAzLjg0YzcuODE1NCA3LjAxNTkgOC40Mjg2LTIuODYyNyA3Ljc4MzctMy44NHoiLz48cGF0aCBmaWxsPSIjZmZmIiBkPSJtMjQuNjI4MSAyNC45NzQ4czcuNTU2OSA0LjAxIDcuNzgzNyAzLjg0Yy03LjU0NDUgNy4zODM5LTguNTQ1NS0yLjIzNjktNy43ODM3LTMuODR6Ii8+PHBhdGggZmlsbD0iI2ZmZiIgZD0ibTUzLjcyMTYgNTEuNzM3NmEzLjQyIDMuNDIgMCAwIDEgLTIuODQ4OSAyYy0xLjEwMzUgMC0xLjYyLS44OTU1LTEuMTUxMS0yYTMuNDIxMiAzLjQyMTIgMCAwIDEgMi44NDktMmMxLjEwMzUgMCAxLjYxOTQuODk2NSAxLjE1MSAyIi8+PGcgc3Ryb2tlLWxpbmVqb2luPSJyb3VuZCIgc3Ryb2tlLWxpbmVjYXA9InJvdW5kIiBzdHJva2U9IiMwMDAiIGZpbGw9Im5vbmUiPjxwYXRoIHN0cm9rZS13aWR0aD0iMiIgZD0ibTM2Ljg3MjMgNDguMzk4NmE2Ljg0NzIgNi44NDcyIDAgMCAxIC0xLjA2NjUuMDgxMWguMTI1Yy0zLjA3MzYuMDA2My01LjgwODEtMS40NjQyLTktMy41OTIxLTEyIDAtMTAgMTMtMTAgMTMiLz48cGF0aCBzdHJva2Utd2lkdGg9IjIiIGQ9Im0zNS40NjcgNTIuMTMzaC04LjUzOGwuMDAyLTcuMjQ1Ii8+PHBhdGggc3Ryb2tlLXdpZHRoPSIyIiBkPSJtMjIuMjY0OSA0NS43NTY5djEyLjEwOTciLz48cGF0aCBzdHJva2Utd2lkdGg9IjIiIGQ9Im0zNS4xNDcgNTkuNzcyaDI0Ljk5bDYuOTUtMTYuMzQ5aC0yNC45OXoiLz48cGF0aCBzdHJva2Utd2lkdGg9IjIiIGQ9Im0yNC4xNzY3IDU5Ljc3MjVoMTAuOTciLz48cGF0aCBzdHJva2Utd2lkdGg9IjEuOCIgZD0ibTM4LjI5MzYgMzUuNTg5LTIuNDQzNC0zLjAxNDMiLz48cGF0aCBzdHJva2Utd2lkdGg9IjEuOCIgZD0ibTMzLjQwNjggMzUuNTg5IDIuNDQzNC0zLjAxNDMiLz48cGF0aCBzdHJva2Utd2lkdGg9IjEuOCIgZD0ibTMzLjQwNjggMzIuNTc0N2g0Ljg4NjgiLz48cGF0aCBzdHJva2Utd2lkdGg9IjIiIGQ9Im00OS43NjY3IDIzLjg2OS40Mzg3IDQuMTg0NGExMy42NjQgMTMuNjY0IDAgMCAxIC0xLjAxNzEgNS4xODkiLz48cGF0aCBzdHJva2Utd2lkdGg9IjIiIGQ9Im0yMi41MTIxIDMzLjI0MjNhMTMuNjYzNSAxMy42NjM1IDAgMCAxIC0xLjAxNzEtNS4xODg5bDIuMTM4LTE4Ljk5IDYuNDQ5MiA2LjIxMDlhMTQuMTc1IDE0LjE3NSAwIDAgMSA1LjQ2MjYtMS4wODY4aC42MTA4YTE0LjE4MjUgMTQuMTgyNSAwIDAgMSA1LjQ2MzIgMS4wODY4bDYuNDQ4NS02LjIxMDkuNjY1NSA2LjM5OSIvPjxwYXRoIHN0cm9rZS13aWR0aD0iMS44IiBkPSJtMjguMTExOSAzOS43MjE5YTE0LjEyMDcgMTQuMTIwNyAwIDAgMCA3LjQzMjkgMi4wOTY5aC42MTA4YTE0LjExOTEgMTQuMTE5MSAwIDAgMCA3LjQzMjktMi4wOTY5Ii8+PC9nPjxlbGxpcHNlIHJ5PSIxLjIwNTciIHJ4PSIxLjIyMTciIGN5PSIyNy43NTIiIGN4PSIyOC41MTk5Ii8+PGVsbGlwc2Ugcnk9IjEuMjA1NyIgcng9IjEuMjIxNyIgY3k9IjI3Ljc1MiIgY3g9IjQzLjE4MDUiLz48cGF0aCBzdHJva2Utd2lkdGg9IjEuNiIgc3Ryb2tlLWxpbmVqb2luPSJyb3VuZCIgc3Ryb2tlLWxpbmVjYXA9InJvdW5kIiBzdHJva2U9IiMwMDAiIGZpbGw9Im5vbmUiIGQ9Im00Ny4wNzIzIDI0Ljk0NzRzLTguMTY3OCAzLjQwNzUtNy43ODM3IDMuODRjNy44MTU0IDcuMDE1OSA4LjQyODYtMi44NjI3IDcuNzgzNy0zLjg0eiIvPjxwYXRoIHN0cm9rZS13aWR0aD0iMS42IiBzdHJva2UtbGluZWpvaW49InJvdW5kIiBzdHJva2UtbGluZWNhcD0icm91bmQiIHN0cm9rZT0iIzAwMCIgZmlsbD0ibm9uZSIgZD0ibTUwLjkyMTYgMzcuMTk0Ny01LjQ5NzctMy4wMTQzIi8+PHBhdGggc3Ryb2tlLXdpZHRoPSIxLjYiIHN0cm9rZS1saW5lam9pbj0icm91bmQiIHN0cm9rZS1saW5lY2FwPSJyb3VuZCIgc3Ryb2tlPSIjMDAwIiBmaWxsPSJub25lIiBkPSJtNDguNjc4MiAzOS44MDg5LTUuNDk3Ny0zLjAxNDIiLz48cGF0aCBzdHJva2Utd2lkdGg9IjEuNiIgc3Ryb2tlLWxpbmVqb2luPSJyb3VuZCIgc3Ryb2tlLWxpbmVjYXA9InJvdW5kIiBzdHJva2U9IiMwMDAiIGZpbGw9Im5vbmUiIGQ9Im0yNC42MjgxIDI0Ljk0NzRzNy41NTY5IDQuMDEgNy43ODM3IDMuODRjLTcuNTQ0NSA3LjM4MzgtOC41NDU1LTIuMjM2OS03Ljc4MzctMy44NHoiLz48cGF0aCBzdHJva2Utd2lkdGg9IjEuNiIgc3Ryb2tlLWxpbmVqb2luPSJyb3VuZCIgc3Ryb2tlLWxpbmVjYXA9InJvdW5kIiBzdHJva2U9IiMwMDAiIGZpbGw9Im5vbmUiIGQ9Im0yMC43Nzg4IDM3LjE5NDcgNS40OTc3LTMuMDE0MyIvPjxwYXRoIHN0cm9rZS13aWR0aD0iMS42IiBzdHJva2UtbGluZWpvaW49InJvdW5kIiBzdHJva2UtbGluZWNhcD0icm91bmQiIHN0cm9rZT0iIzAwMCIgZmlsbD0ibm9uZSIgZD0ibTIzLjAyMjIgMzkuODA4OSA1LjQ5NzctMy4wMTQyIi8+PHBhdGggc3Ryb2tlLXdpZHRoPSIxLjYiIHN0cm9rZS1saW5lam9pbj0icm91bmQiIHN0cm9rZS1saW5lY2FwPSJyb3VuZCIgc3Ryb2tlPSIjMDAwIiBmaWxsPSJub25lIiBkPSJtNDYuOTk4IDE4LjI4NC0yNC4zNDYtLjU4NC0uNDg3IDQuNzI4IDI0Ljg0LTEuNTAyIi8+PHBhdGggc3Ryb2tlLXdpZHRoPSIxLjYiIHN0cm9rZS1saW5lam9pbj0icm91bmQiIHN0cm9rZS1saW5lY2FwPSJyb3VuZCIgc3Ryb2tlPSIjMDAwIiBmaWxsPSJub25lIiBkPSJtNTAuNDk3MiAxOS42YTIgMiAwIDEgMSAtMi0yIDIuMDAwNyAyLjAwMDcgMCAwIDEgMiAyIi8+PC9zdmc+;" vertex="1" parent="1">
          <mxGeometry x="300" y="-1680" width="230" height="230" as="geometry" />
        </mxCell>
        <mxCell id="ZdIIvcqZWt0Pzcp1OfUl-14" value="" style="rounded=0;whiteSpace=wrap;html=1;" vertex="1" parent="1">
          <mxGeometry x="1380" y="-2125" width="350" height="1090" as="geometry" />
        </mxCell>
        <mxCell id="ZdIIvcqZWt0Pzcp1OfUl-15" value="" style="shape=image;verticalLabelPosition=bottom;labelBackgroundColor=default;verticalAlign=top;aspect=fixed;imageAspect=0;image=data:image/svg+xml,PHN2ZyB4bWxucz0iaHR0cDovL3d3dy53My5vcmcvMjAwMC9zdmciIHdpZHRoPSIyNTUuNjE0Njg1MDU4NTkzNzUiIHZpZXdCb3g9IjAuMjYzODg3NDA1Mzk1NTA3OCAwLjMwMTgwMzU4ODg2NzE4NzUgMjU1LjYxNDY4NTA1ODU5Mzc1IDMxMy44MzYxODE2NDA2MjUiIHByZXNlcnZlQXNwZWN0UmF0aW89InhNaWRZTWlkIiBoZWlnaHQ9IjMxMy44MzYxODE2NDA2MjUiPjxnIHRyYW5zZm9ybT0idHJhbnNsYXRlKDAgMjgxLjg1OTk4NSkiIGZpbGw9IiMxYTE5MTgiPjxwYXRoIGQ9Im02Ny41MTY4MzQgMzIuMDAzNTI0OGMtLjU0MTUyMzUgMC0xLjEyNjE2NjktLjEzNjg1MDktMS41MzIxMTUzLS42ODU4MzIybC0xNy4zODM1MjY2LTIyLjg2MTIwNjQ2djIzLjMxODY5MDg2aC0zLjk2NDMwOTZ2LTI4LjcxNDI0NjM1YzAtMS4xNDI1Mjc5Ljk0NTkxODEtMi4wNTcxMDIzNiAyLjAyNzc5OTctMi4wNTcxMDIzNi42Mjk3MDU3IDAgMS4xNzA4NDA3LjE4MjU5OTM4IDEuNTc0ODQ2OC43MzE1ODA2OWwxNy4zMzk2Mjk3IDIyLjgxNTg1MjMydi0yMy4yMjc1ODgzaDMuOTYzOTIxMXYyOC42NjgxMDM1YzAgMS4xODkwNjUxLS45NDU5MTggMi4wMTE3NDgzLTIuMDI2MjQ1OCAyLjAxMTc0ODMiLz48cGF0aCBkPSJtMTAwLjMwNjI3NyAzMi4yNzc5NzZjLTMuOTYyNzU1MyAwLTguMTA2OTI1My0uODIzNDcxOS0xMS45ODAzMzM0LTIuMjg1ODQ0NmwuOTQ2MzA2NS0zLjI5MjcwNDZjMy41NTc5NzI3IDEuMTQzMzE2NiA3LjQzMDk5MjQgMS45NjYzOTQyIDExLjAzNDAyNjkgMS45NjYzOTQyIDQuOTk5NTc2IDAgNy42MTE2My0xLjc4MzQwMDUgNy42MTE2My00LjI5NzU5MjkgMC0yLjI4NjYzMzMtMi4wMjc0MTEtMy40Mjk1NTU2LTkuMDA4MTY5OC02LjcyMTg2NTktNi45ODA3NTg3LTMuMjkxOTE1OS05LjcyNzIyMzEtNS4zOTQ3NjY3LTkuNzI3MjIzMS05LjUxMDU0ODk4IDAtNS4xNjU2MzAxMiAzLjk2Mjc1NTctNy4yNzAwNTg0NiAxMS40Mzg0MjE5LTcuMjcwMDU4NDYgMy4xMDgxMjcgMCA3Ljg4MTYxNS42NDA4NzI1NyAxMC42MzAwMjEgMS40NjM5NTAxNWwtLjYzMDg3MSAzLjM4MzAxODQxYy0zLjAxODM5MS0uNzMxMTg2My02LjgwMDUxLTEuMjM0MDI0NzgtOS45MDg2MzctMS4yMzQwMjQ3OC01LjI2ODM5NDcgMC03LjQzMDYwNDEgMS4wMDUyODI1Ny03LjQzMDYwNDEgMy41MjA2NTgxMiAwIDIuNDY4NDQzOTQgMS41NzU2MjM3IDMuNTIwMjYzNzQgOC45NjE5NDIxIDYuOTQ5ODE5MzQgNy43OTE4NzkgMy42MTIxNTUgOS43NzM0NTEgNS40NDEzMDQgOS43NzM0NTEgOS4xODk5MTU1IDAgNS40NDE2OTgzLTUuMTM1MTUgOC4xMzg4ODQ1LTExLjcwOTk2MSA4LjEzODg4NDUiLz48cGF0aCBkPSJtMTMwLjc5ODEzMSAxLjMyMzY3M2g0LjA5ODMzdjMwLjQ1MTEwOTZoLTQuMDk4MzN6Ii8+PHBhdGggZD0ibTE2OS43NTc4MzQgMTcuOTY2OTE2OGgtMTAuMTc5Nzg3djEwLjMzNDAyMDloMTAuMTc5Nzg3YzMuNDY3NDYgMCA1LjU4NDIxOS0yLjE5NTEzNjQgNS41ODQyMTktNS4yNTkwOTg5IDAtMi44ODA1NzQzLTIuMjA2NDk1LTUuMDc0OTIyLTUuNTg0MjE5LTUuMDc0OTIybS0xLjk4MjczNy0xMy4xNjg0NTI0M2gtOC4xOTcwNXY5LjczOTI5MTIzaDguMTk3MDVjMy4yODgzNzYgMCA1LjY3NTEyLTIuMTAzNjM5NiA1LjY3NTEyLTUuMDI5NTY3OTkgMC0yLjg4MDU3NDMyLTIuMDcyMDg1LTQuNzA5NzIzMjQtNS42NzUxMi00LjcwOTcyMzI0bTIuMDI3NDExIDI2Ljk3NjU5NDMzaC0xMi4yNDk5M2MtMS4xNzE2MTggMC0yLjA3MjQ3NC0uOTE0OTY4OS0yLjA3MjQ3NC0yLjA1NzQ5Njh2LTI2LjMzNjExNjA5YzAtMS4wOTc5NjI2MS45MDA4NTYtMi4wNTc0OTY3NCAyLjA3MjQ3NC0yLjA1NzQ5Njc0aDEwLjEzMzE3MWM2LjIxNTA5IDAgOS45MDc4NjEgMy4wNjMxNzM3IDkuOTA3ODYxIDcuODY0MzkzODMgMCAyLjYwNTY4OTMtMS41MzEzMzkgNS4wMjkxNzM2LTMuODczNzk3IDYuNDQ2NTg2NSAzLjQ2OTQwMiAxLjA1MTgxOTggNS44MDk5MTggMy45MzE5OTk3IDUuODA5OTE4IDcuNDA2OTA5NCAwIDQuODQ2NTc0Mi00LjAwNzQyOSA4LjczMzIxOTktOS43MjcyMjMgOC43MzMyMTk5Ii8+PHBhdGggZD0ibTE5OS4yMTIyNDYgMzEuNzc1MDk4MWMtMS4xMjQyMjQgMC0yLjAyNTQ2OC0uOTYwMzIyOS0yLjAyNTQ2OC0yLjA1NzQ5Njh2LTI4LjM5MzYxMjc5aDQuMDk3NTUzdjI2Ljc0Nzg1MjA5aDE2LjMwMzk3NnYzLjcwMzI1NzV6Ii8+PHBhdGggZD0ibTI0NS41MjYxODEgMzIuMjc3OTc2Yy04LjM3NzI5OCAwLTEzLjQyMTU0Ny0zLjEwODkyMjEtMTMuNDIxNTQ3LTkuMzcyOTA5MyAwLTIuOTcyMDcxMiAxLjY2NjkxMy01LjgwNjg5NyA0LjkwOTgzOS03LjEzMjgxMzEtMi42MTI0NDMtMS42NDYxNTUxLTMuOTYzMTQ0LTMuOTc4MTQyNS0zLjk2MzE0NC02LjUzODQ3Nzc3IDAtNS42NjkyNTczNyA0LjM2OTg2OS04LjM2ODAyMTA3IDEyLjU2NTc1NC04LjM2ODAyMTA3IDIuNzQ3NjMgMCA2LjYyMDI2MS4zMjA2MzM0OCA5Ljg2MzU3NSAxLjA1MjYwODU1bC0uNDUxMDExIDMuMzgzMDE4NDJjLTMuNDIyMDA5LS41NDg5ODEzMS02LjYyMTAzOC0uODY4MDM3MjUtOS43MjgzODgtLjg2ODAzNzI1LTUuMzE0NjIyIDAtOC4xNTIzNzYgMS40NjIzNzI2MS04LjE1MjM3NiA0Ljk4MzQyNTEyIDAgMi43ODk0NzE4IDIuNjEyODMxIDQuOTgzODE5NSA2LjA4MTQ1NiA0Ljk4MzgxOTVoNy4wMjUwNDRjLjk5MDk4MSAwIDEuNzU2MjYxLjc3NzMyOTEgMS43NTYyNjEgMS43MzcyNTc3IDAgMS4wMDU2NzY5LS43NjUyOCAxLjc4MzAwNjEtMS43NTYyNjEgMS43ODMwMDYxaC03LjU2NTAxM2MtMy45NjQ2OTggMC02LjQ4NTQ2MyAxLjk2NTYwNTQtNi40ODU0NjMgNC45ODQyMTM4IDAgNC40MzQ4MzgyIDQuMDk4MzMxIDUuNzYwNzU0MyA5LjIzMjMxNSA1Ljc2MDc1NDMgMi43OTI2OTIgMCA2LjU3NDQyMi0uMzY0ODA0NCA5LjYzNjcxMS0xLjA5Njc3OTVsLjU4Njk3NCAzLjMzNzI3Yy0yLjkyODI2Ny44MjM0NzItNi43NTcwMDIgMS4zNzE2NjQ1LTEwLjEzNDcyNiAxLjM3MTY2NDUiLz48cGF0aCBkPSJtMTQuMTM3OTk4MiA3LjAzNDY5NTU1IDcuMTc3NzExNyAxNy45ODQyNjQ3NS0xMC44NDA1NzA2LTguNjY5MzI5OHptMTIuNzUxNDQxNiAyMi4xMjc2NTM4NS0xMS4wMzk4NTQ0LTI2Ljk3NDYyMjQyYy0uMzE1MDQ3LS43NzczMjkxMy0uOTQ1OTE4LTEuMTg5MDY1MTEtMS43MTE1ODcyLTEuMTg5MDY1MTFzLTEuNDQxMjE0LjQxMTczNTk4LTEuNzU2MjYxIDEuMTg5MDY1MTFsLTEyLjExNzg1MTMxIDI5LjU4NzQxMDUyaDQuMTQ0NTU4NDJsNC43OTc1NzIwOC0xMi4xOTgyNjk5IDE0LjMxNDI0NTgxIDExLjc0MDc4NTVjLjU3NTcwODcuNDcyMDc2Ni45OTA5ODAzLjY4NTgzMjMgMS41MzIxMTUzLjY4NTgzMjMgMS4wODAzMjc4IDAgMi4wMjYyNDU5LS44MjI2ODMyIDIuMDI2MjQ1OS0yLjAxMTM1NCAwLS4xOTI4NTMzLS4wNjc5ODE4LS40OTk2ODM0LS4xODkxODM2LS44Mjk3ODJ6Ii8+PC9nPjxwYXRoIGZpbGw9IiMxYTE5MTgiIGQ9Im0yNTUuODc4NTY2IDEyNy44NjgwMjhjMCA3MC40NTUxNDMtNTcuMTEwMDcyIDEyNy41NjQ3MTItMTI3LjU2NjIxOSAxMjcuNTY0NzEyLTcwLjQ1MDEyMDUgMC0xMjcuNTY2MjE5NjctNTcuMTA5NTY5LTEyNy41NjYyMTk2Ny0xMjcuNTY0NzEyIDAtNzAuNDUwMTIwMyA1Ny4xMTYwOTkxNy0xMjcuNTY2MjE5NDYgMTI3LjU2NjIxOTY3LTEyNy41NjYyMTk0NiA3MC40NTYxNDcgMCAxMjcuNTY2MjE5IDU3LjExNjA5OTE2IDEyNy41NjYyMTkgMTI3LjU2NjIxOTQ2Ii8+PHBhdGggZmlsbD0iI2ZmZiIgZD0ibTEzMC40NTk4NjMgNzguMjI4ODg1IDMzLjAxMTU5NyA4MS40NzYyNTMtNDkuODYzNDUzLTM5LjI3NzgwM3ptNTguNjQ0NDc5IDEwMC4yNDUyMzgtNTAuNzc4NTcyLTEyMi4yMDIwNzMyYy0xLjQ0OTUyNC0zLjUyNDM2NDQtNC4zNDgwNzItNS4zODkyNTg5LTcuODY1OTA3LTUuMzg5MjU4OS0zLjUyNDM2NCAwLTYuNjMzODYxIDEuODY0ODk0NS04LjA4MzM4NiA1LjM4OTI1ODlsLTU1LjczMjg3MjUgMTM0LjA0MDM2MTJoMTkuMDY1MzE5NWwyMi4wNjIzMS01NS4yNjUyNjggNjUuODM4ODYzIDUzLjE4OTkyN2MyLjY0NzkxOSAyLjE0MTEzOCA0LjU1ODUyIDMuMTA5NDk2IDcuMDQyMiAzLjEwOTQ5NiA0Ljk3Mzg4OSAwIDkuMzIxNDU5LTMuNzI4Nzg0IDkuMzIxNDU5LTkuMTExMDExIDAtLjg3NTk0My0uMzA5MzkzLTIuMjY2MjAxLS44Njk0MTQtMy43NjE0MzJ6Ii8+PC9zdmc+;" vertex="1" parent="1">
          <mxGeometry x="1473.4699999999998" y="-2050" width="163.06" height="200" as="geometry" />
        </mxCell>
        <mxCell id="ZdIIvcqZWt0Pzcp1OfUl-16" value="" style="shape=image;verticalLabelPosition=bottom;labelBackgroundColor=default;verticalAlign=top;aspect=fixed;imageAspect=0;image=data:image/svg+xml,PHN2ZyB4bWxucz0iaHR0cDovL3d3dy53My5vcmcvMjAwMC9zdmciIHdpZHRoPSIyNTQuMzEzMTcxMzg2NzE4NzUiIHZpZXdCb3g9IjAuODkzMDI0NDQ0NTgwMDc4MSAwLjI5NTk4NTY5ODY5OTk1MTE3IDI1NC4zMTMxNzEzODY3MTg3NSA0MTYuNjQ2NjM2OTYyODkwNiIgcHJlc2VydmVBc3BlY3RSYXRpbz0ieE1pZFlNaWQiIGhlaWdodD0iNDE2LjY0NjYzNjk2Mjg5MDYiPjxwYXRoIGZpbGw9IiNkMzM4MzMiIGQ9Im0yNTAuNzQxMDg1IDE2OS4yNzc1MTljMCA2OS40NTczNjUtNTUuMDY5NzY3IDEyNS44MTcwNTUtMTIzLjAzODc1OSAxMjUuODE3MDU1LTY3Ljk2ODk5MjcgMC0xMjMuMDM4NzYwMTEtNTYuMzU5NjktMTIzLjAzODc2MDExLTEyNS44MTcwNTUgMC02OS40NTczNjQgNTUuMDY5NzY3NDEtMTI1LjgxNzA1MzkgMTIzLjAzODc2MDExLTEyNS44MTcwNTM5IDY3Ljk2ODk5MiAwIDEyMy4wMzg3NTkgNTYuMzU5Njg5OSAxMjMuMDM4NzU5IDEyNS44MTcwNTM5Ii8+PHBhdGggZmlsbD0iI2VmM2QzYSIgZD0ibTkuNzI0MDMxMDEgMjAwLjQzNDEwOXMtOC45MzAyMzI1Ni0xMzEuMTc1MTk0MyAxMTIuMDI0ODA1OTktMTM0Ljk0NTczNjlsLTguNDM0MTA4LTE0LjA4OTkyMjUtNjUuNTg3NTk3MiAyMi4wMjc5MDctMTguNzUzNDg4NCAyMS41MzE3ODI5LTE2LjM3MjA5MyAzMS4zNTUwMzg1LTkuMzI3MTMxOCAzNi41MTQ3MjkgMi43NzgyOTQ1OCAyNC40MDkzMDIiLz48cGF0aCBmaWxsPSIjMjMxZjIwIiBkPSJtNDMuNDYwNDY1MSA4My40NDgwNjJjLTIxLjUzMTc4MjkgMjIuMTI3MTMyLTM0LjkyNzEzMTc3IDUyLjU4OTE0Ny0zNC45MjcxMzE3NyA4Ni4zMjU1ODEgMCAzMy43MzY0MzUgMTMuMzk1MzQ4ODcgNjQuMTk4NDUgMzQuOTI3MTMxNzcgODYuMzI1NTgyIDIxLjYzMTAwNzggMjIuMTI3MTMyIDUxLjI5OTIyNDggMzUuNzIwOTMgODQuMjQxODYwOSAzNS43MjA5MyAzMi45NDI2MzUgMCA2Mi42MTA4NTItMTMuNTkzNzk4IDg0LjI0MTg2LTM1LjcyMDkzIDIxLjUzMTc4My0yMi4xMjcxMzIgMzQuOTI3MTMyLTUyLjU4OTE0NyAzNC45MjcxMzItODYuMzI1NTgyIDAtMzMuNzM2NDM0LTEzLjM5NTM0OS02NC4xOTg0NDktMzQuOTI3MTMyLTg2LjMyNTU4MS0yMS42MzEwMDgtMjIuMDI3OTA3LTUxLjI5OTIyNS0zNS43MjA5MzAyLTg0LjI0MTg2LTM1LjcyMDkzMDItMzIuODQzNDExMyAwLTYyLjYxMDg1MzEgMTMuNTkzNzk4NC04NC4yNDE4NjA5IDM1LjcyMDkzMDJ6bS01LjQ1NzM2NDMgMTc3LjkxMDA3OGMtMjIuOTIwOTMwMy0yMy40MTcwNTUtMzcuMTEwMDc3NTQtNTUuODYzNTY2LTM3LjExMDA3NzU0LTkxLjU4NDQ5NyAwLTM1LjcyMDkzIDE0LjE4OTE0NzI0LTY4LjE2NzQ0MSAzNy4xMTAwNzc1NC05MS42ODM3MjA1IDIyLjkyMDkzMDItMjMuNDE3MDU0MyA1NC42NzI4NjgyLTM4LjAwMzEwMDggODkuNjk5MjI1Mi0zOC4wMDMxMDA4IDM1LjAyNjM1NiAwIDY2Ljc3ODI5NCAxNC41ODYwNDY1IDg5LjY5OTIyNCAzOC4wMDMxMDA4IDIyLjkyMDkzMSAyMy40MTcwNTQ1IDM3LjExMDA3OCA1NS44NjM1NjU1IDM3LjExMDA3OCA5MS42ODM3MjA1IDAgMzUuNzIwOTMxLTE0LjE4OTE0NyA2OC4xNjc0NDItMzcuMTEwMDc4IDkxLjU4NDQ5Ny0yMi45MjA5MyAyMy41MTYyNzktNTQuNjcyODY4IDM4LjAwMzEtODkuNjk5MjI0IDM4LjAwMzEtMzUuMDI2MzU3IDAtNjYuNzc4Mjk1LTE0LjQ4NjgyMS04OS42OTkyMjUyLTM4LjAwMzF6Ii8+PHBhdGggZmlsbD0iI2YwZDZiNyIgZD0ibTE3OS40OTc2NzQgMTY5Ljk3MjA5My0xOC43NTM0ODggMi43NzgyOTUtMjUuMzAyMzI2IDIuODc3NTE5LTE2LjM3MjA5My4zOTY4OTktMTUuOTc1MTkzLS40OTYxMjQtMTIuMjA0NjUxNS0zLjc3MDU0Mi0xMC44MTU1MDM5LTExLjcwODUyOC04LjQzNDEwODUtMjMuOTEzMTc4LTEuODg1MjcxMy01LjE1OTY5LTExLjIxMjQwMzEtMy43NzA1NDItNi41NDg4MzczLTEwLjgxNTUwNC00LjY2MzU2NTgtMTUuNDc5MDcgNS4xNTk2ODk5LTEzLjU5Mzc5ODUgMTIuMjA0NjUxMS00LjI2NjY2NjcgOS44MjMyNTU5IDQuNjYzNTY1OSA0LjY2MzU2NTggMTAuMzE5Mzc5OCA1LjY1NTgxNC0uODkzMDIzMiAxLjg4NTI3MTMtMi4zODEzOTU0LTEuODg1MjcxMy0xMC44MTU1MDM5LS40OTYxMjQtMTMuNTkzNzk4NCAyLjc3ODI5NDUtMTguNzUzNDg4NC0uMDk5MjI0OC0xMC43MTYyNzkgOC41MzMzMzM0LTEzLjY5MzAyMzMgMTQuOTgyOTQ1Ni0xMC44MTU1MDM5IDI2LjE5NTM0OS0xMS4yMTI0MDMwOCAyOS4wNzI4NjggNC4yNjY2NjY2NyAyNS4zMDIzMjYgMTguMjU3MzY0MzEgMTEuNzA4NTI3IDE4Ljc1MzQ4ODQgNy41NDEwODUgMTMuNTkzNzk4NSAxLjg4NTI3MSAzMy43MzY0MzQxLTUuNjU1ODEzIDI5LjA3Mjg2ODEtMTAuMzE5MzggMjUuNzk4NDUtOS43MjQwMzEgMTMuNzkyMjQ4Ii8+PHBhdGggZmlsbD0iIzMzNTA2MSIgZD0ibTE2My42MjE3MDUgMjUxLjAzODc2LTY2Ljk3Njc0MzggMi43NzgyOTR2MTEuMjEyNDAzbDUuNjU1ODEzOCAzOS4zOTIyNDgtMi43NzgyOTQ0IDMuMjc0NDE5LTQ2LjgzNDEwODUtMTUuOTc1MTk0LTMuMjc0NDE4Ni01LjY1NTgxNC00LjY2MzU2NTktNTIuOTg2MDQ2LTExLjAxMzk1MzUtMzEuNzUxOTM4LTIuMzgxMzk1My03LjU0MTA4NSAzNy41MDY5NzY3LTI1Ljc5ODQ1IDExLjcwODUyNzEtNC42NjM1NjYgMTAuMzE5Mzc5OSAxMi43MDA3NzUgOC45MzAyMzI1IDcuOTM3OTg1IDEwLjMxOTM4IDMuMjc0NDE4IDQuNjYzNTY2IDEuMzg5MTQ4IDUuNjU1ODE0IDI0LjQwOTMwMiA0LjI2NjY2NiA1LjE1OTY5IDEwLjgxNTUwNC0zLjc3MDU0My03LjU0MTA4NSAxNC41ODYwNDcgNDAuNjgyMTcxIDE5LjI0OTYxMnoiLz48cGF0aCBmaWxsPSIjNmQ2YjZkIiBkPSJtNTIuNDg5OTIyNSA4Ny41MTYyNzkxIDEyLjIwNDY1MTEtNC4yNjY2NjY3IDkuODIzMjU1OSA0LjY2MzU2NTkgNC42NjM1NjU4IDEwLjMxOTM3OTggNS42NTU4MTQtLjg5MzAyMzIgMS4zODkxNDczLTUuNjU1ODE0LTIuNzc4Mjk0Ni0xMC44MTU1MDM4IDIuNzc4Mjk0Ni0yNS43OTg0NDk3LTIuMzgxMzk1NC0xNC4wODk5MjI0IDguNDM0MTA4Ni05LjgyMzI1NTkgMTguMjU3MzY0Mi0xNC40ODY4MjE3LTUuMTU5NjktNy4wNDQ5NjEyLTI1Ljc5ODQ0OTQgMTIuNzAwNzc1Mi0xMC44MTU1MDM5IDguNDM0MTA4NS02LjA1MjcxMzIgMTMuMDk3Njc0NC05LjMyNzEzMTggMTIuNzAwNzc1Mi0yLjc3ODI5NDUgMTQuOTgyOTQ1OHoiLz48cGF0aCBmaWxsPSIjZGNkOWQ4IiBkPSJtNzEuNzM5NTM0OSA0My40NjA0NjUxczcuMDQ0OTYxMi0xNy4zNjQzNDExIDM1LjEyNTU4MTEtMjUuNzk4NDQ5NmMyOC4wODA2Mi04LjQzNDEwODUyIDEuMzg5MTQ4LTYuMDUyNzEzMiAxLjM4OTE0OC02LjA1MjcxMzJsLTMwLjQ2MjAxNTkgMTEuNzA4NTI3Mi0xMS43MDg1MjcyIDExLjcwODUyNzEtNS4xNTk2ODk5IDkuMzI3MTMxOHoiLz48cGF0aCBmaWxsPSIjZGNkOWQ4IiBkPSJtNTcuNjQ5NjEyNCA4NC4yNDE4NjA1cy05LjgyMzI1NTgtMzIuODQzNDEwOSAyNy42ODM3MjA5LTM3LjUwNjk3NjhsLTEuMzg5MTQ3My01LjY1NTgxMzktMjUuNzk4NDQ5NiA2LjA1MjcxMzEtNy41NDEwODUyIDI0LjQwOTMwMjQgMS44ODUyNzEzIDE1Ljk3NTE5Mzh6Ii8+PHBhdGggZmlsbD0iI2Y3ZTRjZCIgZD0ibTcyLjYzMjU1ODEgMTI3LjgwMTU1IDYuMTUxOTM4LTUuOTUzNDg4czIuNzc4Mjk0Ni4yOTc2NzQgMy4yNzQ0MTg2IDMuNTcyMDkzYy40OTYxMjQxIDMuMjc0NDE5IDEuODg1MjcxMyAzMi44NDM0MTEgMjIuMDI3OTA3MyA0OC43MTkzOCAxLjg4NTI3MSAxLjQ4ODM3Mi0xNC45ODI5NDYtMi4zODEzOTUtMTQuOTgyOTQ2LTIuMzgxMzk1bC0xNC45ODI5NDU4LTIzLjQxNzA1NSIvPjxwYXRoIGZpbGw9IiNmN2U0Y2QiIGQ9Im0xNTguODU4OTE1IDExOC44NzEzMThzMS4wOTE0NzMtMTQuMTg5MTQ3IDQuOTYxMjQtMTMuMDk3Njc1YzMuODY5NzY3IDEuMDkxNDczIDMuODY5NzY3IDQuOTYxMjQxIDMuODY5NzY3IDQuOTYxMjQxcy05LjMyNzEzMSA1Ljk1MzQ4OC04LjgzMTAwNyA4LjEzNjQzNCIvPjxwYXRoIGZpbGw9IiNmN2U0Y2QiIGQ9Im0xOTcuNzU1MDM5IDY2Ljg3NzUxOTRzLTcuNzM5NTM1IDEuNTg3NTk2OS04LjQzNDEwOSA4LjQzNDEwODVjLS42OTQ1NzMgNi44NDY1MTE2IDguNDM0MTA5IDEuMzg5MTQ3MyA5LjgyMzI1Ni44OTMwMjMzIi8+PHBhdGggZmlsbD0iI2Y3ZTRjZCIgZD0ibTE0MS4wOTc2NzQgNjcuMzczNjQzNHMtMTAuMzE5Mzc5IDEuMzg5MTQ3My0xMC4zMTkzNzkgNy45Mzc5ODQ1IDExLjcwODUyNyA2LjA1MjcxMzIgMTQuOTgyOTQ1IDMuMjc0NDE4NiIvPjxwYXRoIGZpbGw9IiNmN2U0Y2QiIGQ9Im03Ny4zOTUzNDg4IDk3LjgzNTY1ODlzLTE3Ljc2MTI0MDMtMTAuODE1NTAzOS0xOS42NDY1MTE2LS40OTYxMjRjLTEuODg1MjcxMyAxMC4zMTkzODAxLTYuMDUyNzEzMiAxNy43NjEyNDAxIDIuNzc4Mjk0NiAyOC41NzY3NDQxbC02LjA1MjcxMzItMS44ODUyNzEtNS42NTU4MTM5LTE0LjQ4NjgyMi0xLjg4NTI3MTQtMTQuMDg5OTIyNCAxMC44MTU1MDM5LTExLjIxMjQwMzEgMTIuMjA0NjUxMi44OTMwMjMyIDcuMDQ0OTYxMiA1LjY1NTgxNHoiLz48cGF0aCBmaWxsPSIjZjdlNGNkIiBkPSJtODUuODI5NDU3NCA2OC4yNjY2NjY3czcuOTM3OTg0NS00MS4yNzc1MTk0IDQ4LjIyMzI1NTYtNDkuMjE1NTAzOWMzMy4xNDEwODUtNi41NDg4MzcyIDUwLjYwNDY1MSAxLjM4OTE0NzMgNTcuMTUzNDg5IDguOTMwMjMyNSAwIDAtMjkuNTY4OTkzLTM1LjEyNTU4MTM1LTU3LjY0OTYxMy0yNC40MDkzMDIyOC0yOC4wODA2MiAxMC44MTU1MDM4OC00OC43MTkzNzk3IDMwLjQ2MjAxNTQ4LTQ4LjIyMzI1NTcgNDMuMDYzNTY1ODguNzkzNzk4NSAyMS42MzEwMDc4LjQ5NjEyNDEgMjEuNjMxMDA3OC40OTYxMjQxIDIxLjYzMTAwNzgiLz48cGF0aCBmaWxsPSIjZjdlNGNkIiBkPSJtMTk0LjQ4MDYyIDMyLjY0NDk2MTJzLTEzLjU5Mzc5OC0uNDk2MTI0LTE0LjA4OTkyMiAxMS43MDg1MjcyYzAgMCAwIDEuODg1MjcxMy44OTMwMjMgMy43NzA1NDI2IDAgMCAxMC44MTU1MDQtMTIuMjA0NjUxMiAxNy4zNjQzNDEtNS42NTU4MTM5Ii8+PHBhdGggZmlsbD0iI2Y3ZTRjZCIgZD0ibTEzNS4wNDQ5NjEgNDkuNDEzOTUzNXMtMi4zODEzOTUtMTguNjU0MjYzNi0xOC4yNTczNjQtNy44Mzg3NTk3Yy0xMC4zMTkzOCA3LjA0NDk2MTItOS4zMjcxMzIgMTYuODY4MjE3MS03LjU0MTA4NSAxOC43NTM0ODg0IDEuODg1MjcxIDEuODg1MjcxMyAxLjM4OTE0NyA1LjY1NTgxMzkgMi43NzgyOTQgMy4wNzU5NjkgMS4zODkxNDctMi41Nzk4NDUuOTkyMjQ4LTExLjAxMzk1MzUgNi4xNTE5MzgtMTMuMzk1MzQ4OSA1LjA2MDQ2NS0yLjM4MTM5NTMgMTMuNTkzNzk5LTQuOTYxMjQwMyAxNi44NjgyMTctLjU5NTM0ODgiLz48cGF0aCBmaWxsPSIjNDk3MjhiIiBkPSJtOTAuOTg5MTQ3MyAxNzYuMDI0ODA2LTQ0LjA1NTgxNCAxOS42NDY1MTJzMTguMjU3MzY0NCA3Mi42MzI1NTggOC45MzAyMzI2IDk1LjE1NjU4OWwtNi41NDg4MzcyLTIuMzgxMzk1LS40OTYxMjQtMjcuNjgzNzIxLTEyLjIwNDY1MTItNTIuMzkwNjk4LTUuMTU5Njg5OS0xNC40ODY4MjIgNDUuOTQxMDg1Mi0zMC45NTgxMzl6Ii8+PHBhdGggZmlsbD0iIzQ5NzI4YiIgZD0ibTk1LjQ1NDI2MzYgMjE2LjIxMDg1MyA2LjI1MTE2MjQgNy42NDAzMXYyOC4wODA2MmgtNy40NDE4NjAxcy0uODkzMDIzMy0xOS42NDY1MTItLjg5MzAyMzMtMjIuMDI3OTA3Ljg5MzAyMzMtMTAuODE1NTA0Ljg5MzAyMzMtMTAuODE1NTA0Ii8+PHBhdGggZmlsbD0iIzQ5NzI4YiIgZD0ibTk1LjY1MjcxMzIgMjU2LjE5ODQ1LTIxLjEzNDg4MzcuODkzMDIzIDYuMDUyNzEzMSA0LjI2NjY2NyAxNC45ODI5NDU4IDIuMzgxMzk1Ii8+PHBhdGggZmlsbD0iIzMzNTA2MSIgZD0ibTE2Ny43ODkxNDcgMjUxLjUzNDg4NCAxNy4zNjQzNDEtLjQ5NjEyNCA0LjI2NjY2NyA0My4wNjM1NjYtMTcuNzYxMjQgMi4zODEzOTV6Ii8+PHBhdGggZmlsbD0iIzMzNTA2MSIgZD0ibTE3Mi40NTI3MTMgMjUxLjUzNDg4NCAyNi4xOTUzNDktMS4zODkxNDhzMTAuODE1NTA0LTI3LjE4NzU5NiAxMC44MTU1MDQtMjguNTc2NzQ0YzAtMS4zODkxNDcgOS4zMjcxMzItMzkuMzkyMjQ4IDkuMzI3MTMyLTM5LjM5MjI0OGwtMjEuMTM0ODg0LTIyLjAyNzkwNy00LjI2NjY2Ny0zLjc3MDU0Mi0xMS4yMTI0MDMgMTEuMjEyNDAzdjQzLjU1OTY5eiIvPjxwYXRoIGZpbGw9IiM0OTcyOGIiIGQ9Im0xODQuMTYxMjQgMjQ4LjI2MDQ2NS0xNi4zNzIwOTMgMy4yNzQ0MTkgMi4zODEzOTYgMTMuMDk3Njc0YzYuMDUyNzEzIDIuNzc4Mjk1IDE2LjM3MjA5My00LjY2MzU2NiAxNi4zNzIwOTMtNC42NjM1NjYiLz48cGF0aCBmaWxsPSIjNDk3MjhiIiBkPSJtMTg0LjY1NzM2NCAxNjYuMjAxNTUgMzIuODQzNDExIDI0LjQwOTMwMy44OTMwMjMtMTEuMjEyNDAzLTI0LjgwNjIwMS0yMi45MjA5MzF6Ii8+PHBhdGggZmlsbD0iI2ZmZiIgZD0ibTExMS45MjU1ODEgMzQzLjgxMzk1My05LjcyNDAzMS0zOS4zOTIyNDgtNC44NjIwMTUxLTI5LjA3Mjg2OC0uNzkzNzk4NS0yMS41MzE3ODMgNDMuOTU2NTg5Ni0yLjM4MTM5NWgyNy4yODY4MjFsLTIuNDgwNjIgNDkuMjE1NTA0IDQuMjY2NjY3IDM4LjAwMzEwMS0uNDk2MTI0IDcuMDQ0OTYxLTM1LjYyMTcwNiAyLjc3ODI5NHoiLz48cGF0aCBmaWxsPSIjZGNkOWQ4IiBkPSJtMTYxLjczNjQzNCAyNTEuMDM4NzZzLTIuMzgxMzk1IDQ4LjcxOTM4IDQuNjYzNTY2IDgzLjQ0ODA2MmMwIDAtMTQuMDg5OTIyIDguOTMwMjMyLTM0LjYyOTQ1NyAxMS4yMTI0MDNsMzkuMzkyMjQ4LTEuMzg5MTQ3IDQuNjYzNTY2LTIuNzc4Mjk1LTUuNjU1ODE0LTc2LjgtMS40ODgzNzItMTYuNDcxMzE4Ii8+PHBhdGggZmlsbD0iI2ZmZiIgZD0ibTE5MC4xMTQ3MjkgMjkwLjQzMTAwOCAxOC4yNTczNjQtNS4xNTk2OSAzNC42Mjk0NTctMS44ODUyNzEgNS4xNTk2OS0xNS45NzUxOTQtOS4zMjcxMzEtMjcuNjgzNzIxLTEwLjgxNTUwNC0xLjM4OTE0OC0xNC45ODI5NDYgNC42NjM1NjYtMTQuMjg4MzcyIDcuMDQ0OTYyLTcuNjQwMzEtMS4zODkxNDgtNS45NTM0ODkgMi4zODEzOTYiLz48cGF0aCBmaWxsPSIjZGNkOWQ4IiBkPSJtMTg5LjgxNzA1NCAyODEuMDA0NjUxczEyLjIwNDY1MS01LjY1NTgxNCAxNC4wODk5MjMtNS4xNTk2OWwtNS4xNTk2OS0yNS43OTg0NDkgNi4wNTI3MTMtMi4zODEzOTZzNC4yNjY2NjcgMjQuNDA5MzAzIDQuMjY2NjY3IDI3LjE4NzU5N2MwIDAgMjYuMTk1MzQ5IDEuMzg5MTQ3IDI4LjU3Njc0NCAxLjM4OTE0NyAwIDAgNS42NTU4MTQtMTAuODE1NTAzIDQuMjY2NjY3LTIyLjAyNzkwN2w1LjE1OTY4OSAxNC45ODI5NDYuNDk2MTI0IDguNDM0MTA5LTcuNTQxMDg1IDExLjIxMjQwMy04LjQzNDEwOCAxLjg4NTI3MS0xNC4wODk5MjMtLjQ5NjEyNC00LjY2MzU2Ni02LjA1MjcxMy0xNi4zNzIwOTMgMi4zODEzOTUtNS4xNTk2OSAxLjg4NTI3MiIvPjxwYXRoIGZpbGw9IiNmZmYiIGQ9Im0xNzEuMzYxMjQgMjQ3Ljc2NDM0MS0xMC4zMTkzOC0yNi4xOTUzNDktMTAuODE1NTAzLTE1LjQ3OTA3czIuMzgxMzk1LTYuNTQ4ODM3IDUuNjU1ODE0LTYuNTQ4ODM3aDEwLjgxNTUwM2wxMC4zMTkzOCAzLjc3MDU0My0uODkzMDIzIDE3LjM2NDM0MXoiLz48cGF0aCBmaWxsPSIjZGNkOWQ4IiBkPSJtMTczLjQ0NDk2MSAyMzguODM0MTA5cy0xMy4wOTc2NzQtMjUuMzAyMzI2LTEzLjA5NzY3NC0yOS4wNzI4NjljMCAwIDIuMzgxMzk1LTUuNjU1ODE0IDUuNjU1ODE0LTQuMjY2NjY2IDMuMjc0NDE4IDEuMzg5MTQ3IDEwLjMxOTM4IDUuMTU5NjkgMTAuMzE5MzggNS4xNTk2OXYtOC45MzAyMzNsLTE1Ljk3NTE5NC0zLjI3NDQxOS0xMC44MTU1MDQgMS4zODkxNDggMTguMjU3MzY0IDQzLjI2MjAxNSAzLjc3MDU0My40OTYxMjQiLz48cGF0aCBmaWxsPSIjZmZmIiBkPSJtMTE2LjA5MzAyMyAxNzcuMDE3MDU0LTEyLjk5ODQ0OS0xLjM4OTE0Ny0xMi4yMDQ2NTE1LTMuNzcwNTQzdjQuMjY2NjY3bDUuOTUzNDg4NCA2LjU0ODgzNyAxOC43NTM0ODgxIDguNDM0MTA5Ii8+PHBhdGggZmlsbD0iI2RjZDlkOCIgZD0ibTk1LjE1NjU4OTEgMTc4LjQwNjIwMnMxNC40ODY4MjE5IDYuMDUyNzEzIDE5LjI0OTYxMjkgNC42NjM1NjVsLjQ5NjEyNCA1LjY1NTgxNC0xMy4wOTc2NzUtMi43NzgyOTQtNy45Mzc5ODQzLTUuNjU1ODE0eiIvPjxwYXRoIGZpbGw9IiNkMzM4MzMiIGQ9Im0xOTAuMTE0NzI5IDIwMS4xMjg2ODJjLTcuOTM3OTg1LS4xOTg0NDktMTUuMTgxMzk2LTEuMTkwNjk4LTIxLjQzMjU1OC0yLjk3Njc0NC4zOTY4OTktMi41Nzk4NDUtLjM5NjktNS4wNjA0NjUuMjk3Njc0LTYuOTQ1NzM2IDEuNzg2MDQ2LTEuMjg5OTIzIDQuNjYzNTY2LTEuMjg5OTIzIDcuMzQyNjM2LTEuNTg3NTk3LTIuMjgyMTcxLTEuMDkxNDczLTUuNTU2NTktMS41ODc1OTctOC4xMzY0MzQtLjg5MzAyNC0uMDk5MjI1LTEuNzg2MDQ2LS44OTMwMjQtMi44Nzc1MTktMS4zODkxNDgtNC4yNjY2NjYgNC40NjUxMTctMS41ODc1OTcgMTQuOTgyOTQ2LTEyLjAwNjIwMiAyMC45MzY0MzQtOC42MzI1NTggMi44Nzc1MiAxLjY4NjgyMSA0LjA2ODIxNyAxMS4wMTM5NTMgNC4yNjY2NjcgMTUuNjc3NTE5LjE5ODQ1IDMuNzcwNTQzLS4zOTY4OTkgNy41NDEwODUtMS44ODUyNzEgOS42MjQ4MDYiLz48cGF0aCBzdHJva2Utd2lkdGg9IjIiIHN0cm9rZT0iI2QzMzgzMyIgZD0ibTE5MC4xMTQ3MjkgMjAxLjEyODY4MmMtNy45Mzc5ODUtLjE5ODQ0OS0xNS4xODEzOTYtMS4xOTA2OTgtMjEuNDMyNTU4LTIuOTc2NzQ0LjM5Njg5OS0yLjU3OTg0NS0uMzk2OS01LjA2MDQ2NS4yOTc2NzQtNi45NDU3MzYgMS43ODYwNDYtMS4yODk5MjMgNC42NjM1NjYtMS4yODk5MjMgNy4zNDI2MzYtMS41ODc1OTctMi4yODIxNzEtMS4wOTE0NzMtNS41NTY1OS0xLjU4NzU5Ny04LjEzNjQzNC0uODkzMDI0LS4wOTkyMjUtMS43ODYwNDYtLjg5MzAyNC0yLjg3NzUxOS0xLjM4OTE0OC00LjI2NjY2NiA0LjQ2NTExNy0xLjU4NzU5NyAxNC45ODI5NDYtMTIuMDA2MjAyIDIwLjkzNjQzNC04LjYzMjU1OCAyLjg3NzUyIDEuNjg2ODIxIDQuMDY4MjE3IDExLjAxMzk1MyA0LjI2NjY2NyAxNS42Nzc1MTkuMTk4NDUgMy43NzA1NDMtLjM5Njg5OSA3LjU0MTA4NS0xLjg4NTI3MSA5LjYyNDgwNnoiLz48cGF0aCBmaWxsPSIjZDMzODMzIiBkPSJtMTUyLjExMTYyOCAxODguMTMwMjMzYzAgLjU5NTM0OCAwIDEuMTkwNjk3LS4wOTkyMjUgMS43ODYwNDYtMi40ODA2MiAxLjU4NzU5Ny02LjQ0OTYxMiAxLjU4NzU5Ny05LjIyNzkwNyAyLjk3Njc0NCAzLjk2ODk5Mi4xOTg0NSA3LjE0NDE4NiAxLjE5MDY5OCA5LjkyMjQ4MSAyLjQ4MDYyLS4wOTkyMjUgMS40ODgzNzMtLjA5OTIyNSAzLjA3NTk2OS0uMTk4NDUgNC41NjQzNDEtNC41NjQzNDEgMy4wNzU5NjktOC43MzE3ODMgNy43Mzk1MzUtMTQuMDg5OTIyIDEwLjcxNjI4LTIuNTc5ODQ1IDEuMzg5MTQ3LTExLjQxMDg1MyA0Ljk2MTI0LTE0LjA4OTkyMyA0LjI2NjY2Ni0xLjQ4ODM3Mi0uMzk2ODk5LTEuNjg2ODIyLTIuMjgyMTctMi4yODIxNy00LjA2ODIxNy0xLjI4OTkyMy0zLjc3MDU0Mi00LjI2NjY2Ny05LjkyMjQ4LTQuNTY0MzQxLTE1LjY3NzUxOS0uMjk3Njc1LTcuMjQzNDExLTEuMDkxNDczLTE5LjQ0ODA2MiA2Ljc0NzI4Ni0xNy45NTk2OSA2LjM1MDM4OCAxLjE5MDY5OCAxMy42OTMwMjQgNC4wNjgyMTcgMTguNTU1MDM5IDYuNzQ3Mjg3IDMuMDc1OTY5IDEuNzg2MDQ2IDQuNzYyNzkxIDMuNzcwNTQyIDkuMzI3MTMyIDQuMTY3NDQyIi8+PHBhdGggc3Ryb2tlLXdpZHRoPSIyIiBzdHJva2U9IiNkMzM4MzMiIGQ9Im0xNTIuMTExNjI4IDE4OC4xMzAyMzNjMCAuNTk1MzQ4IDAgMS4xOTA2OTctLjA5OTIyNSAxLjc4NjA0Ni0yLjQ4MDYyIDEuNTg3NTk3LTYuNDQ5NjEyIDEuNTg3NTk3LTkuMjI3OTA3IDIuOTc2NzQ0IDMuOTY4OTkyLjE5ODQ1IDcuMTQ0MTg2IDEuMTkwNjk4IDkuOTIyNDgxIDIuNDgwNjItLjA5OTIyNSAxLjQ4ODM3My0uMDk5MjI1IDMuMDc1OTY5LS4xOTg0NSA0LjU2NDM0MS00LjU2NDM0MSAzLjA3NTk2OS04LjczMTc4MyA3LjczOTUzNS0xNC4wODk5MjIgMTAuNzE2MjgtMi41Nzk4NDUgMS4zODkxNDctMTEuNDEwODUzIDQuOTYxMjQtMTQuMDg5OTIzIDQuMjY2NjY2LTEuNDg4MzcyLS4zOTY4OTktMS42ODY4MjItMi4yODIxNy0yLjI4MjE3LTQuMDY4MjE3LTEuMjg5OTIzLTMuNzcwNTQyLTQuMjY2NjY3LTkuOTIyNDgtNC41NjQzNDEtMTUuNjc3NTE5LS4yOTc2NzUtNy4yNDM0MTEtMS4wOTE0NzMtMTkuNDQ4MDYyIDYuNzQ3Mjg2LTE3Ljk1OTY5IDYuMzUwMzg4IDEuMTkwNjk4IDEzLjY5MzAyNCA0LjA2ODIxNyAxOC41NTUwMzkgNi43NDcyODcgMy4wNzU5NjkgMS43ODYwNDYgNC43NjI3OTEgMy43NzA1NDIgOS4zMjcxMzIgNC4xNjc0NDJ6Ii8+PHBhdGggZmlsbD0iI2QzMzgzMyIgZD0ibTE1Ni41NzY3NDQgMTk2Ljc2Mjc5MWMtLjY5NDU3My0zLjk2ODk5My0xLjQ4ODM3Mi01LjA2MDQ2NS0xLjE5MDY5Ny04LjUzMzMzNCAxMC42MTcwNTQtNy4wNDQ5NjEgMTIuNTAyMzI1IDEyLjEwNTQyNyAxLjE5MDY5NyA4LjUzMzMzNCIvPjxwYXRoIHN0cm9rZS13aWR0aD0iMiIgc3Ryb2tlPSIjZDMzODMzIiBkPSJtMTU2LjU3Njc0NCAxOTYuNzYyNzkxYy0uNjk0NTczLTMuOTY4OTkzLTEuNDg4MzcyLTUuMDYwNDY1LTEuMTkwNjk3LTguNTMzMzM0IDEwLjYxNzA1NC03LjA0NDk2MSAxMi41MDIzMjUgMTIuMTA1NDI3IDEuMTkwNjk3IDguNTMzMzM0eiIvPjxwYXRoIGZpbGw9IiNlZjNkM2EiIGQ9Im0xNzEuODU3MzY0IDE5OS45Mzc5ODRzLTMuMjc0NDE4LTQuNjYzNTY1LS44OTMwMjMtNi4wNTI3MTNjMi4zODEzOTUtMS4zODkxNDcgNC42NjM1NjYgMCA2LjA1MjcxMy0yLjM4MTM5NSAxLjM4OTE0OC0yLjM4MTM5NSAwLTMuNzcwNTQzLjQ5NjEyNC02LjU0ODgzNy40OTYxMjQtMi43NzgyOTUgMi43NzgyOTUtMy4yNzQ0MTkgNS4xNTk2OS0zLjc3MDU0MyAyLjM4MTM5Ni0uNDk2MTI0IDguOTMwMjMzLTEuMzg5MTQ3IDkuODIzMjU2Ljg5MzAyM2wtMi43NzgyOTUtOC40MzQxMDgtNS42NTU4MTMtMS44ODUyNzEtMTcuNzYxMjQxIDEwLjMxOTM3OS0uODkzMDIzIDUuMTU5Njl2MTAuMzE5MzgiLz48cGF0aCBmaWxsPSIjZWYzZDNhIiBkPSJtMTIyLjY0MTg2IDIxNS40MTcwNTRjLS41OTUzNDgtNy4zNDI2MzUtMS4xOTA2OTctMTQuNTg2MDQ2LTEuNzg2MDQ2LTIxLjkyODY4Mi0uOTkyMjQ4LTEwLjkxNDcyOSAyLjU3OTg0NS05LjAyOTQ1NyAxMi4xMDU0MjYtOS4wMjk0NTcgMS40ODgzNzIgMCA4LjkzMDIzMyAxLjY4NjgyMSA5LjQyNjM1NyAyLjc3ODI5NCAyLjU3OTg0NSA1LjI1ODkxNS00LjI2NjY2NyA0LjA2ODIxNyAyLjk3Njc0NCA4LjAzNzIxIDYuMDUyNzEzIDMuMjc0NDE4IDE2Ljg2ODIxNy0xLjk4NDQ5NyAxNC4zODc1OTctOS40MjYzNTctMS4zODkxNDctMS42ODY4MjItNy4xNDQxODYtLjQ5NjEyNC05LjIyNzkwNy0xLjU4NzU5Ny0zLjY3MTMxOC0xLjg4NTI3MS03LjM0MjYzNi0zLjc3MDU0My0xMS4wMTM5NTMtNS42NTU4MTQtNC42NjM1NjYtMi4zODEzOTUtMTUuMzc5ODQ1LTUuOTUzNDg4LTIwLjM0MTA4Ni0yLjU3OTg0NS0xMi42MDE1NSA4LjUzMzMzNC43OTM3OTkgMjkuOTY1ODkyIDUuMjU4OTE1IDM4Ljg5NjEyNCIvPjxnIGZpbGw9IiMyMzFmMjAiPjxwYXRoIGQ9Im0xMzUuMDQ0OTYxIDQ5LjQxMzk1MzVjLTEyLjgtMi45NzY3NDQyLTE5LjE1MDM4NyA1LjM1ODEzOTUtMjMuMDIwMTU1IDEzLjk5MDY5NzctMy40NzI4NjgtLjc5Mzc5ODUtMi4wODM3MjEtNS41NTY1ODkyLTEuMTkwNjk3LTcuOTM3OTg0NSAyLjI4MjE3LTYuMjUxMTYyOCAxMS41MTAwNzctMTQuNjg1MjcxNCAxOS4wNTExNjItMTMuNDk0NTczNyAzLjE3NTE5NC4zOTY4OTkyIDcuNTQxMDg2IDMuMzczNjQzNCA1LjE1OTY5IDcuNDQxODYwNSIvPjxwYXRoIGQ9Im0xOTcuMjU4OTE1IDYzLjkwMDc3NTJoLjU5NTM0OWMyLjg3NzUxOSA1Ljk1MzQ4ODQgNS4zNTgxMzkgMTIuMzAzODc2IDkuMDI5NDU3IDE3LjY2MjAxNTUtMi40ODA2MiA1Ljc1NTAzODgtMTguNDU1ODE0IDEwLjcxNjI3OTEtMTguMjU3MzY0LjU5NTM0ODggMy40NzI4NjgtMS40ODgzNzIxIDkuNDI2MzU2LS4yOTc2NzQ0IDEyLjUwMjMyNS0yLjI4MjE3MDUtMS43ODYwNDYtNC44NjIwMTU1LTQuMjY2NjY2LTkuMDI5NDU3NC0zLjg2OTc2Ny0xNS45NzUxOTM4Ii8+PHBhdGggZD0ibTE0MS40OTQ1NzQgNjQuMDk5MjI0OGMyLjc3ODI5NCA1LjA2MDQ2NTEgMy42NzEzMTcgMTAuMzE5Mzc5OSA3LjU0MTA4NSAxNC4wODk5MjI1IDEuNzg2MDQ2IDEuNjg2ODIxNyA1LjE1OTY5IDMuNzcwNTQyNiAzLjQ3Mjg2OCA4LjUzMzMzMzMtLjM5Njg5OSAxLjA5MTQ3MjktMy4yNzQ0MTggMy41NzIwOTMtNC45NjEyNCA0LjA2ODIxNzEtNi4wNTI3MTMgMS43ODYwNDY1LTIwLjI0MTg2MS4zOTY4OTkyLTE1LjQ3OTA3LTcuMjQzNDEwOSA1LjA2MDQ2NS4xOTg0NDk2IDExLjgwNzc1MiAzLjI3NDQxODYgMTUuNTc4Mjk1LS4zOTY4OTkyLTIuODc3NTItNC41NjQzNDExLTguMDM3MjEtMTMuNjkzMDIzMy02LjE1MTkzOC0xOS4wNTExNjI4Ii8+PHBhdGggZD0ibTE5NC45NzY3NDQgMTE1LjEwMDc3NWMtOS4xMjg2ODIgNS44NTQyNjQtMTkuMzQ4ODM3IDEyLjMwMzg3Ni0zNC40MzEwMDggMTAuODE1NTA0LTMuMTc1MTkzLTIuNzc4Mjk1LTQuNDY1MTE2LTkuMDI5NDU3LTEuMjg5OTIyLTEzLjA5NzY3NCAxLjU4NzU5NyAyLjc3ODI5NC41OTUzNDkgNy45Mzc5ODQgNS4xNTk2OSA4LjczMTc4MyA4LjUzMzMzMyAxLjQ4ODM3MiAxOC40NTU4MTQtNS4yNTg5MTUgMjQuNjA3NzUyLTcuNTQxMDg2IDMuNzcwNTQyLTYuNDQ5NjEyLS4yOTc2NzUtOC43MzE3ODMtMy43NzA1NDMtMTIuODk5MjI0LTcuMDQ0OTYxLTguNDM0MTA5LTE2LjM3MjA5My0xOC45NTE5Mzg1LTE2LjA3NDQxOC0zMS41NTM0ODg5IDIuODc3NTE5LTIuMDgzNzIwOSAzLjA3NTk2OSAzLjE3NTE5MzggMy40NzI4NjggNC4wNjgyMTcxIDMuNjcxMzE4IDguNTMzMzMzMyAxMi44OTkyMjUgMTkuNTQ3Mjg2OCAxOS41NDcyODcgMjYuODg5OTIyOCAxLjY4NjgyMSAxLjc4NjA0NiA0LjM2NTg5MSAzLjU3MjA5MyA0LjY2MzU2NiA0Ljc2Mjc5Ljg5MzAyMyAzLjM3MzY0NC0yLjI4MjE3MSA3LjU0MTA4Ni0xLjg4NTI3MiA5LjgyMzI1NiIvPjxwYXRoIGQ9Im03NC4xMjA5MzAyIDEwOC45NDg4MzdjLTIuODc3NTE5My0xLjY4NjgyMS0zLjU3MjA5My04LjgzMTAwOC02Ljk0NTczNjQtOS4wMjk0NTcyLTQuODYyMDE1NS0uMjk3Njc0NC0zLjk2ODk5MjIgOS4zMjcxMzIyLTMuOTY4OTkyMiAxNC45ODI5NDYyLTMuMjc0NDE4Ny0yLjk3Njc0NS0zLjg2OTc2NzUtMTIuMzAzODc2LTEuNDg4MzcyMS0xNy4wNjY2NjcxLTIuNzc4Mjk0Ni0xLjM4OTE0NzMtMy45Njg5OTIzIDEuNDg4MzcyMS01LjU1NjU4OTIgMi40ODA2MjAxIDIuMDgzNzIwOS0xNC4zODc1OTY4IDIxLjEzNDg4MzctNi42NDgwNjE5IDE3Ljk1OTY4OTkgOC42MzI1NTgiLz48cGF0aCBkPSJtMjAwLjczMTc4MyAxMjEuMTUzNDg4Yy00LjI2NjY2NyA4LjEzNjQzNC0xMC4zMTkzOCAxNy4wNjY2NjctMjIuODIxNzA1IDE3LjM2NDM0MS0uMjk3Njc1LTIuNTc5ODQ1LS40OTYxMjUtNi42NDgwNjIgMC04LjIzNTY1OCA5LjYyNDgwNi0uOTkyMjQ5IDE1LjU3ODI5NC01Ljg1NDI2NCAyMi44MjE3MDUtOS4xMjg2ODMiLz48cGF0aCBkPSJtMTQwLjggMTI2LjQxMjQwM2M3LjkzNzk4NCA0LjE2NzQ0MiAyMi42MjMyNTYgNC42NjM1NjYgMzMuNTM3OTg0IDQuMzY1ODkyLjU5NTM0OSAyLjM4MTM5NS41OTUzNDkgNS4zNTgxMzkuNTk1MzQ5IDguMjM1NjU4LTEzLjk5MDY5Ny41OTUzNDktMzAuNDYyMDE1LTIuODc3NTE5LTM0LjEzMzMzMy0xMi42MDE1NSIvPjxwYXRoIGQ9Im0xMzkuMzExNjI4IDEzNC4xNTE5MzhjNS41NTY1ODkgMTMuODkxNDczIDI0LjUwODUyNyAxMi4zMDM4NzYgNDAuNDgzNzIxIDExLjkwNjk3Ny0uNjk0NTc0IDEuNzg2MDQ2LTIuMTgyOTQ2IDMuOTY4OTkyLTQuMTY3NDQyIDQuNjYzNTY2LTUuMTU5NjkgMi4wODM3MjEtMTkuMjQ5NjEyIDMuNjcxMzE3LTI2LjM5Mzc5OC0uMDk5MjI1LTQuNDY1MTE3LTIuMzgxMzk2LTcuNDQxODYxLTcuODM4NzYtOS45MjI0ODEtMTEuMDEzOTU0LTEuMDkxNDczLTEuNDg4MzcyLTcuMDQ0OTYxLTUuMzU4MTM5IDAtNS40NTczNjQiLz48L2c+PHBhdGggZmlsbD0iIzgxYjBjNCIgZD0ibTE5NC4yODIxNzEgMjEwLjY1NDI2NGMtNi40NDk2MTMgMTEuMTEzMTc4LTEyLjcwMDc3NiAyMi41MjQwMzEtMjAuMzQxMDg2IDMyLjI0ODA2MiAzLjE3NTE5NC05LjQyNjM1NyA0LjU2NDM0MS0yNS4zMDIzMjYgNS4wNjA0NjUtMzcuNDA3NzUyIDYuNzQ3Mjg3LTMuMTc1MTk0IDEyLjUwMjMyNi42OTQ1NzMgMTUuMjgwNjIxIDUuMTU5NjkiLz48cGF0aCBmaWxsPSIjMjMxZjIwIiBkPSJtMjI5LjExMDA3OCAyNTAuNTQyNjM2Yy03LjI0MzQxMSAxLjQ4ODM3Mi0xMi4zMDM4NzYgOC41MzMzMzMtMTkuNDQ4MDYyIDguMDM3MjA5IDMuOTY4OTkyLTUuNDU3MzY0IDEwLjcxNjI3OS03LjgzODc2IDE5LjQ0ODA2Mi04LjAzNzIwOSIvPjxwYXRoIGZpbGw9IiMyMzFmMjAiIGQ9Im0yMzIuMjg1MjcxIDI2MS44NTQyNjRjLTUuOTUzNDg4LjU5NTM0OC0xMi44OTkyMjQgMS41ODc1OTYtMTguODUyNzEzIDEuMDkxNDcyIDIuODc3NTItNC4zNjU4OTEgMTMuNzkyMjQ4LTIuNzc4Mjk0IDE4Ljg1MjcxMy0xLjA5MTQ3MiIvPjxwYXRoIGZpbGw9IiMyMzFmMjAiIGQ9Im0yMzQuMzY4OTkyIDI3MS42Nzc1MTljLTYuNjQ4MDYyLjA5OTIyNS0xNC44ODM3MjEgMC0yMS4yMzQxMDgtLjQ5NjEyNCAzLjc3MDU0Mi00LjA2ODIxNyAxNi45Njc0NDItMS40ODgzNzIgMjEuMjM0MTA4LjQ5NjEyNCIvPjxwYXRoIGZpbGw9IiNkY2Q5ZDgiIGQ9Im0xODEuNzc5ODQ1IDI5OC40NjgyMTdjLjk5MjI0OCA4LjMzNDg4NCA0LjI2NjY2NyAxNi43Njg5OTIgMy44Njk3NjcgMjUuODk3Njc0LTMuNjcxMzE3IDEuMTkwNjk4LTUuNzU1MDM4IDIuMjgyMTcxLTEwLjcxNjI3OSAyLjI4MjE3MS0uMjk3Njc0LTcuNzM5NTM1LTEuMzg5MTQ3LTE5LjY0NjUxMi0xLjA5MTQ3My0yNy4wODgzNzIgMi4zODEzOTYuMTk4NDUgNS45NTM0ODktMS42ODY4MjIgNy45Mzc5ODUtMS4wOTE0NzMiLz48cGF0aCBmaWxsPSIjZjBkNmI3IiBkPSJtMTcxLjA2MzU2NiAxNzUuNDI5NDU3Yy0zLjM3MzY0NCAyLjE4Mjk0Ni02LjE1MTkzOCA0Ljg2MjAxNi05LjQyNjM1NyA3LjI0MzQxMS03LjE0NDE4Ni4zOTY4OTktMTEuMDEzOTUzLS40OTYxMjQtMTYuMTczNjQzLTQuNTY0MzQxLjA5OTIyNS0uMjk3Njc0LjU5NTM0OS0uMTk4NDQ5LjU5NTM0OS0uNTk1MzQ5IDcuNjQwMzEgMy4zNzM2NDQgMTcuMzY0MzQxLTEuMzg5MTQ3IDI1LjAwNDY1MS0yLjA4MzcyMSIvPjxwYXRoIGZpbGw9IiM4MWIwYzQiIGQ9Im0xMzEuMTc1MTk0IDIyNy4zMjQwMzFjMi4wODM3MjEtOS4wMjk0NTcgMTAuMzE5MzgtMTMuNzkyMjQ4IDE3Ljc2MTI0LTE4Ljc1MzQ4OCA3LjY0MDMxIDkuNzI0MDMxIDEyLjMwMzg3NiAyMi4yMjYzNTYgMTcuNDYzNTY2IDM0LjMzMTc4My0xMi4yMDQ2NTEtMy42NzEzMTgtMjQuNjA3NzUyLTkuNTI1NTgyLTM1LjIyNDgwNi0xNS41NzgyOTUiLz48cGF0aCBmaWxsPSIjMjMxZjIwIiBkPSJtMTczLjg0MTg2IDI5OS42NTg5MTVjLS4yOTc2NzQgNy40NDE4Ni42OTQ1NzQgMTkuMjQ5NjEyIDEuMDkxNDczIDI3LjA4ODM3MiA0Ljk2MTI0MSAwIDcuMDQ0OTYyLTEuMDkxNDczIDEwLjcxNjI3OS0yLjI4MjE3MS4zOTY5LTkuMTI4NjgyLTIuODc3NTE5LTE3LjU2Mjc5LTMuODY5NzY3LTI1Ljg5NzY3NC0xLjk4NDQ5Ni0uNjk0NTc0LTUuNTU2NTg5IDEuMTkwNjk4LTcuOTM3OTg1IDEuMDkxNDczem0tNzYuNjAxNTQ5OS00Mi4wNzEzMThjMy4yNzQ0MTg5IDI5Ljg2NjY2NyA3LjkzNzk4NDkgNTQuODcxMzE4IDE2LjU3MDU0MjkgODEuMzY0MzQxIDE5LjE1MDM4NyA1Ljg1NDI2NCA0Mi4xNzA1NDIgNi4zNTAzODggNTkuMTM3OTg0IDEuMDkxNDczLTMuMDc1OTY5LTE0Ljg4MzcyMS0xLjc4NjA0Ni0zMy4wNDE4NjEtMy41NzIwOTMtNDkuMDE3MDU0LTEuMzg5MTQ3LTEyLjAwNjIwMi0uNjk0NTczLTI0LjAxMjQwNC0yLjU3OTg0NS0zNi4yMTcwNTUtMjAuNTM5NTM1LTQuMjY2NjY2LTQ5LjUxMzE3OC0uOTkyMjQ4LTY5LjU1NjU4ODkgMi43NzgyOTV6bTc0LjQxODYwNDktMi41Nzk4NDVjLS4xOTg0NSAxMi44LjU5NTM0OSAyNS41MDA3NzUgMS41ODc1OTcgMzguMzAwNzc1IDQuOTYxMjQtLjY5NDU3NCA4LjIzNTY1OS0xLjE5MDY5OCAxMi44LTIuMjgyMTctMS40ODgzNzItMTIuMzAzODc2LTEuMjg5OTIzLTI2LjI5NDU3NC00LjM2NTg5Mi0zNy4yMDkzMDMtMy40NzI4NjguMDk5MjI1LTYuNTQ4ODM3IDAtMTAuMDIxNzA1IDEuMTkwNjk4em0yNC45MDU0MjYtMi4wODM3MjFjLTIuMzgxMzk1LS40OTYxMjQtNS4wNjA0NjUgMC03LjI0MzQxMSAwIDEuMDkxNDczIDEwLjQxODYwNSAzLjU3MjA5MyAyMS45Mjg2ODIgNC40NjUxMTcgMzIuOTQyNjM2IDMuNDcyODY4LjA5OTIyNCA1LjM1ODEzOS0xLjU4NzU5NyA4LjIzNTY1OC0yLjA4MzcyMS4xOTg0NS05LjYyNDgwNi0uNzkzNzk4LTIyLjkyMDkzLTUuNDU3MzY0LTMwLjg1ODkxNXptMzcuODA0NjUxIDM0LjUzMDIzM2M3LjM0MjYzNi0xLjc4NjA0NyAxMS45MDY5NzctMTAuNzE2MjggOS44MjMyNTYtMTkuOTQ0MTg2LTEuMzg5MTQ3LTYuMTUxOTM4LTMuNzcwNTQzLTE3Ljg2MDQ2Ni02LjQ0OTYxMi0yMS44Mjk0NTgtMS44ODUyNzItMi44Nzc1MTktNy4xNDQxODYtNi43NDcyODctMTEuNDEwODUzLTQuMDY4MjE3LTYuODQ2NTEyIDQuMzY1ODkyLTE4Ljg1MjcxMyA1LjY1NTgxNC0yMy44MTM5NTQgMTAuOTE0NzI5IDIuNDgwNjIxIDguMzM0ODg0IDMuMjc0NDE5IDE5LjY0NjUxMSA0LjI2NjY2NyAzMC4xNjQzNDEgOC41MzMzMzMuNDk2MTI0IDE4Ljk1MTkzOC0yLjM4MTM5NSAyNi4wOTYxMjQuNjk0NTc0LTQuOTYxMjQgMS41ODc1OTYtMTEuMzExNjI4IDEuNTg3NTk2LTE1LjU3ODI5NCAzLjk2ODk5MiAzLjU3MjA5MyAxLjY4NjgyMSAxMS43MDg1MjcgMS4zODkxNDcgMTcuMDY2NjY2LjA5OTIyNXptLTY4LjA2ODIxNy00NC41NTE5MzhjLTUuMTU5NjktMTIuMTA1NDI3LTkuODIzMjU2LTI0LjYwNzc1Mi0xNy40NjM1NjYtMzQuMzMxNzgzLTcuNDQxODYgNC45NjEyNC0xNS41NzgyOTQgOS43MjQwMzEtMTcuNzYxMjQgMTguNzUzNDg4IDEwLjcxNjI3OSA2LjA1MjcxMyAyMy4xMTkzOCAxMS45MDY5NzcgMzUuMjI0ODA2IDE1LjU3ODI5NXptMTIuNzAwNzc1LTM3LjQwNzc1MmMtLjQ5NjEyNCAxMi4xMDU0MjYtMS44ODUyNzEgMjcuOTgxMzk1LTUuMDYwNDY1IDM3LjQwNzc1MiA3LjY0MDMxLTkuODIzMjU2IDEzLjg5MTQ3My0yMS4xMzQ4ODQgMjAuMzQxMDg2LTMyLjI0ODA2Mi0yLjc3ODI5NS00LjQ2NTExNy04LjUzMzMzNC04LjMzNDg4NC0xNS4yODA2MjEtNS4xNTk2OXptLTE0LjM4NzU5Ny01LjA2MDQ2NWMtMi44Nzc1MTktLjI5NzY3NS01LjM1ODEzOSAzLjM3MzY0My05LjEyODY4MiAxLjc4NjA0Ni0uODkzMDIzLjk5MjI0OC0xLjY4NjgyMSAxLjk4NDQ5Ni0yLjU3OTg0NSAyLjk3Njc0NCA4LjMzNDg4NCAxMC4xMjA5MyAxMi4yMDQ2NTIgMjQuNDA5MzAzIDE4LjY1NDI2NCAzNi4yMTcwNTQgMy40NzI4NjgtMTEuNDEwODUyIDMuMDc1OTY5LTIzLjgxMzk1MyAzLjg2OTc2Ny0zNi4yMTcwNTQtNC43NjI3OS4xOTg0NS03LjQ0MTg2LTQuNDY1MTE2LTEwLjgxNTUwNC00Ljc2Mjc5em0tOS4yMjc5MDYtMTIuMjA0NjUyYy0uMjk3Njc1IDMuNDcyODY5LjQ5NjEyNCA0LjU2NDM0MSAxLjE5MDY5NyA4LjUzMzMzNCAxMS4zMTE2MjggMy41NzIwOTMgOS40MjYzNTctMTUuNTc4Mjk1LTEuMTkwNjk3LTguNTMzMzM0em0tMTIuNjAxNTUxLTQuMTY3NDQxYy00Ljg2MjAxNS0yLjY3OTA3LTEyLjIwNDY1MS01LjU1NjU5LTE4LjU1NTAzOS02Ljc0NzI4Ny03LjgzODc1OS0xLjQ4ODM3Mi03LjA0NDk2MSAxMC43MTYyNzktNi43NDcyODYgMTcuOTU5NjkuMjk3Njc0IDUuNzU1MDM4IDMuMjc0NDE4IDExLjgwNzc1MiA0LjU2NDM0MSAxNS42Nzc1MTkuNTk1MzQ4IDEuNzg2MDQ2Ljc5Mzc5OCAzLjY3MTMxOCAyLjI4MjE3IDQuMDY4MjE3IDIuNjc5MDcuNTk1MzQ5IDExLjYwOTMwMi0yLjg3NzUxOSAxNC4wODk5MjMtNC4yNjY2NjcgNS4zNTgxMzktMi44Nzc1MTkgOS41MjU1ODEtNy41NDEwODUgMTQuMDg5OTIyLTEwLjcxNjI3OS4wOTkyMjUtMS40ODgzNzIuMDk5MjI1LTMuMDc1OTY5LjE5ODQ1LTQuNTY0MzQxLTIuNzc4Mjk1LTEuMzg5MTQ3LTUuODU0MjY0LTIuMjgyMTctOS45MjI0ODEtMi40ODA2MiAyLjY3OTA3LTEuMzg5MTQ3IDYuNzQ3Mjg3LTEuMzg5MTQ3IDkuMjI3OTA3LTIuOTc2NzQ0IDAtLjU5NTM0OSAwLTEuMTkwNjk4LjA5OTIyNS0xLjc4NjA0Ny00LjU2NDM0MS0uNDk2MTI0LTYuMjUxMTYzLTIuNDgwNjItOS4zMjcxMzItNC4xNjc0NDF6bS00Ni42MzU2NTg4LTguNDM0MTA5Yy00LjA2ODIxNyA0LjE2NzQ0MiAxMS40MTA4NTI4IDkuNzI0MDMxIDE2LjI3Mjg2NzggMTAuMDIxNzA1IDAtMi41Nzk4NDUgMS40ODgzNzMtNS4wNjA0NjUgMS4xOTA2OTgtNi45NDU3MzYtNS44NTQyNjMtLjk5MjI0OC0xMy40OTQ1NzQtLjI5NzY3NC0xNy40NjM1NjU4LTMuMDc1OTY5em01MC4wMDkzMDI4IDEuODg1MjcxYzAgLjM5NjktLjQ5NjEyNC4yOTc2NzUtLjU5NTM0OS41OTUzNDkgNS4yNTg5MTQgNC4wNjgyMTcgOS4xMjg2ODIgNC45NjEyNCAxNi4xNzM2NDMgNC41NjQzNDEgMy4xNzUxOTQtMi4yODIxNyA2LjA1MjcxMy01LjA2MDQ2NSA5LjQyNjM1Ny03LjI0MzQxMS03LjczOTUzNS42OTQ1NzQtMTcuNDYzNTY2IDUuNDU3MzY1LTI1LjAwNDY1MSAyLjA4MzcyMXptNDUuODQxODYgMTMuODkxNDczYy0uMTk4NDUtNC41NjQzNDEtMS4zODkxNDctMTMuOTkwNjk4LTQuMjY2NjY3LTE1LjY3NzUxOS01Ljk1MzQ4OC0zLjQ3Mjg2OC0xNi40NzEzMTcgNy4wNDQ5NjEtMjAuOTM2NDM0IDguNjMyNTU4LjQ5NjEyNCAxLjM4OTE0NyAxLjI4OTkyMyAyLjQ4MDYyIDEuMzg5MTQ4IDQuMjY2NjY3IDIuNjc5MDY5LS42OTQ1NzQgNS44NTQyNjMtLjE5ODQ1IDguMTM2NDM0Ljg5MzAyMy0yLjY3OTA3LjI5NzY3NC01LjU1NjU5LjI5NzY3NC03LjM0MjYzNiAxLjU4NzU5Ny0uNTk1MzQ5IDEuODg1MjcxLjE5ODQ1IDQuMzY1ODkxLS4yOTc2NzQgNi45NDU3MzYgNi4yNTExNjIgMS43ODYwNDcgMTMuNDk0NTczIDIuNjc5MDcgMjEuNDMyNTU4IDIuOTc2NzQ0IDEuNDg4MzcyLTEuOTg0NDk2IDIuMDgzNzIxLTUuNzU1MDM4IDEuODg1MjcxLTkuNjI0ODA2em0tMTAyLjY5NzY3NDQtMTEuODA3NzUyYy0xLjI4OTkyMjUtLjg5MzAyMy05LjkyMjQ4MDYtMTIuMTA1NDI2LTExLjExMzE3ODMtMTEuNjA5MzAyLTE1LjU3ODI5NDYgNi4xNTE5MzgtMzAuMTY0MzQxMSAxNi43Njg5OTItNDMuMTYyNzkwNyAyNi44ODk5MjIgMTIuNDAzMTAwOCAyNi42OTE0NzMgMTcuNDYzNTY1OSA1OS4zMzY0MzQgMTguMzU2NTg5MSA5MC43OTA2OTggMTQuMTg5MTQ3MyA2LjY0ODA2MiAyNi42OTE0NzI5IDE2LjI3Mjg2OCA0Ni4wNDAzMTAxIDE3LjI2NTExNi0yLjI4MjE3MDUtMTUuNzc2NzQ0LTQuMjY2NjY2Ny0yOS45NjU4OTEtNS41NTY1ODkxLTQ0Ljg0OTYxMi00Ljg2MjAxNTUtMi4wODM3MjEtMTEuODA3NzUyLjA5OTIyNS0xNi4zNzIwOTMxLS41OTUzNDkgMC01LjQ1NzM2NCA2Ljk0NTczNjUtMi4zODEzOTUgNy41NDEwODUzLTYuMDUyNzEzLjM5Njg5OTItMi43NzgyOTUtMy44Njk3Njc0LTIuOTc2NzQ0LTIuNDgwNjIwMS03LjM0MjYzNiAzLjU3MjA5MyAxLjI4OTkyMyA1LjQ1NzM2NDMgNC4xNjc0NDIgOS4yMjc5MDY5IDUuMjU4OTE1IDMuNDcyODY4My03LjU0MTA4NSAwLTIwLjkzNjQzNC40OTYxMjQxLTI3LjI4NjgyMi4wOTkyMjQ4LTEuMTkwNjk3LjU5NTM0ODgtNi41NDg4MzcgMy4yNzQ0MTg2LTUuNjU1ODE0IDIuMzgxMzk1My43OTM3OTktLjA5OTIyNDggMTQuMzg3NTk3LjA5OTIyNDggMjAuMzQxMDg2LjE5ODQ0OTYgNS41NTY1ODktLjY5NDU3MzcgMTAuODE1NTAzIDEuNTg3NTk2OSAxNC4yODgzNzIgMTguNjU0MjYzOS0yLjU3OTg0NSAzNy42MDYyMDE5LTQuMTY3NDQyIDU3Ljg0ODA2MTktNC43NjI3OTEtNC40NjUxMTYtMS44ODUyNzEtOS43MjQwMzEtMy42NzEzMTgtMTUuNDc5MDctNi45NDU3MzYtMy4xNzUxOTMtMS43ODYwNDctMTIuOTk4NDQ5LTUuNDU3MzY1LTEzLjg5MTQ3My04LjQzNDEwOS0xLjQ4ODM3Mi00Ljc2Mjc5MSAzLjc3MDU0My03LjI0MzQxMSA0LjY2MzU2Ni0xMS4zMTE2MjgtOS40MjYzNTYgNS4xNTk2OS0xMS4yMTI0MDMtNC45NjEyNC0xMy40OTQ1NzMtMTIuMDA2MjAxLTEuOTg0NDk2LTYuNDQ5NjEzLTMuMTc1MTk0LTExLjMxMTYyOC0zLjY3MTMxOC0xNC45ODI5NDYtOC4yMzU2NTktNC4xNjc0NDItMTYuOTY3NDQyLTguMDM3MjA5LTIzLjkxMzE3ODQtMTIuOTk4NDV6bTk0LjQ2MjAxNTQtMTAuMzE5MzhjMTIuOTk4NDUtNi4yNTExNjIgMTUuMzc5ODQ1IDIzLjUxNjI3OSAxMC4yMjAxNTUgMzMuMTQxMDg2Ljc5Mzc5OSAyLjg3NzUxOSAzLjQ3Mjg2OCAzLjk2ODk5MiA0LjU2NDM0MSA2LjU0ODgzNy03LjI0MzQxMSAxMi45OTg0NDktMTUuMjgwNjIgMjUuMTAzODc2LTIyLjcyMjQ4IDM3LjkwMzg3NiA1LjQ1NzM2NC0zLjQ3Mjg2OCAxMy4zOTUzNDgtLjU5NTM0OSAxOS44NDQ5NjEtMy4xNzUxOTQgMi4zODEzOTUtLjg5MzAyMyA0LjA2ODIxNy02LjM1MDM4OCA1Ljg1NDI2My0xMC43MTYyNzkgNC45NjEyNDEtMTEuOTA2OTc3IDEwLjEyMDkzMS0yNi45ODkxNDcgMTIuNDAzMTAxLTM4LjMwMDc3NS40OTYxMjQtMi41Nzk4NDUgMS45ODQ0OTYtOC4yMzU2NTkgMS41ODc1OTctMTAuNTE3ODMtLjU5NTM0OS00LjE2NzQ0Mi02LjE1MTkzOC03LjI0MzQxMS05LjAyOTQ1Ny05LjcyNDAzMS01LjI1ODkxNS00Ljc2Mjc5LTguNTMzMzM0LTguODMxMDA3LTE0LjA4OTkyMy0xMy4yOTYxMjQtMi4wODM3MjEgMy4yNzQ0MTktNi44NDY1MTEgNS40NTczNjUtOC42MzI1NTggOC4xMzY0MzR6bS0xMjQuMTMwMjMyNS0xMTUuMTk5OTk5NmMtNi4xNTE5MzggNi44NDY1MTE2LTQuODYyMDE1NSAxOS41NDcyODY4LTQuMTY3NDQxOCAyOC42NzU5NjkgMTEuMjEyNDAzMS03LjA0NDk2MTMgMjUuOTk2ODk5Mi41OTUzNDg4IDI1Ljg5NzY3NDQgMTIuNTAyMzI1NiA1LjM1ODEzOTUtLjA5OTIyNDkgMS45ODQ0OTYxLTYuNjQ4MDYyMS45OTIyNDgtMTAuOTE0NzI4Ny0zLjE3NTE5MzgtMTMuNzkyMjQ4MSA1LjM1ODEzOTYtMjguNjc1OTY5LjM5Njg5OTMtNDEuMjc3NTE5NC05LjYyNDgwNjIuNzkzNzk4NC0xNy40NjM1NjU5IDQuNjYzNTY1OS0yMy4xMTkzNzk5IDExLjAxMzk1MzV6bTQ0LjI1NDI2MzUtMzkuNTkwNjk3N2MtMTMuOTkwNjk3NiAzLjk2ODk5MjMtMzEuOTUwMzg3NSAxNC4xODkxNDczLTM3LjcwNTQyNjMgMjYuNzkwNjk3NyA0LjQ2NTExNjMtLjY5NDU3MzcgNy41NDEwODUzLTIuODc3NTE5NCAxMS45MDY5NzY4LTMuMTc1MTkzOCAxLjY4NjgyMTctLjA5OTIyNDggMy44Njk3Njc0LjY5NDU3MzYgNS43NTUwMzg3LjE5ODQ0OTYgMy43NzA1NDI3LS45OTIyNDgxIDcuMDQ0OTYxMy05LjUyNTU4MTQgOS45MjI0ODA3LTEyLjcwMDc3NTIgMi43NzgyOTQ1LTMuMDc1OTY5IDYuMTUxOTM3OS00LjQ2NTExNjMgOC40MzQxMDgxLTcuMjQzNDEwOSAxLjQ4ODM3Mi0uNjk0NTczNiAzLjY3MTMxOC0uNjk0NTczNiAzLjc3MDU0My0yLjg3NzUxOTMtLjU5NTM0OS0uNjk0NTczNy0xLjI4OTkyMi0xLjE5MDY5NzctMi4wODM3MjEtLjk5MjI0ODF6bTcyLjkzMDIzMyAzLjc3MDU0MjZjLTE0LjU4NjA0Ny04LjIzNTY1ODktMzkuMTkzNzk5LTE0LjM4NzU5Njg2LTU0LjY3Mjg2OS02LjY0ODA2Mi0xMi41MDIzMjUgNi4yNTExNjI4LTI5LjM3MDU0MjIgMTYuNTcwNTQyNy0zNS4xMjU1ODEgMjkuNTY4OTkyMyA1LjM1ODEzOTYgMTIuNjAxNTUwNC0xLjU4NzU5NjkgMjQuMTExNjI3OS0yLjA4MzcyMDkgMzYuOTExNjI3OS0uMTk4NDQ5NiA2Ljg0NjUxMTYgMy4xNzUxOTM4IDEyLjcwMDc3NTIgMy40NzI4NjgyIDIwLjE0MjYzNTYtMS44ODUyNzEzIDMuMDc1OTY4OS03LjQ0MTg2MDQgMy4zNzM2NDM5LTExLjMxMTYyNzkgMy4xNzUxOTM5LTEuMjg5OTIyNS02LjU0ODgzNzMtMy41NzIwOTMtMTMuODkxNDcyOS0xMC4zMTkzNzk4LTE0LjY4NTI3MTQtOS41MjU1ODE0LTEuMDkxNDcyOC0xNi41NzA1NDI3IDYuODQ2NTExNi0xNi45Njc0NDE5IDE1LjA4MjE3MDQtLjQ5NjEyNCA5LjcyNDAzMSA3LjQ0MTg2MDUgMjUuNzk4NDUgMTguNzUzNDg4NCAyNC43MDY5NzcgNC4zNjU4OTE1LS4zOTY4OTkgNS40NTczNjQzLTQuNzYyNzkxIDEwLjIyMDE1NS00Ljc2Mjc5MSAyLjU3OTg0NSA1LjE1OTY5LTMuOTY4OTkyMiA2Ljc0NzI4Ny00LjY2MzU2NTkgMTAuNDE4NjA1LS4xOTg0NDk2Ljk5MjI0OC40OTYxMjQxIDQuNjYzNTY2Ljk5MjI0ODEgNi40NDk2MTIgMi4wODM3MjA5IDguNDM0MTA5IDYuNjQ4MDYyIDE5LjQ0ODA2MiAxMS4xMTMxNzgzIDI1Ljg5NzY3NSA1Ljc1NTAzODcgOC4yMzU2NTkgMTYuOTY3NDQxNCA5LjQyNjM1NiAyOS4wNzI4Njg0IDEwLjIyMDE1NSAyLjE4Mjk0Ni00LjY2MzU2NiAxMC4xMjA5My00LjI2NjY2NyAxNS4yODA2Mi0zLjA3NTk2OS02LjI1MTE2My0yLjQ4MDYyLTEyLjAwNjIwMi04LjQzNDEwOS0xNi43Njg5OTItMTMuNjkzMDI0LTUuNDU3MzY1LTYuMDUyNzEzLTExLjAxMzk1NC0xMi41MDIzMjUtMTEuMzExNjI4LTIwLjQ0MDMxIDEwLjQxODYwNCAxNC4zODc1OTcgMTguOTUxOTM4IDI2Ljk4OTE0OCAzNy44MDQ2NTEgMzMuMzM5NTM1IDE0LjI4ODM3MiA0Ljc2Mjc5MSAzMC45NTgxNC0yLjE4Mjk0NSA0MS45NzIwOTMtOS45MjI0OCA0LjU2NDM0MS0zLjE3NTE5NCA3LjI0MzQxMS04LjMzNDg4NCAxMC41MTc4MjktMTIuODk5MjI1IDEyLjEwNTQyNy0xNy40NjM1NjYgMTcuNzYxMjQxLTQyLjI2OTc2OCAxNi41NzA1NDMtNjYuMzgxMzk1NS0uNDk2MTI0LTkuOTIyNDgwNi0uNDk2MTI0LTE5Ljg0NDk2MTItMy44Njk3NjctMjYuNDkzMDIzMy0zLjQ3Mjg2OS02Ljk0NTczNjQtMTUuMjgwNjIxLTEzLjI5NjEyNC0yMi4yMjYzNTctNi45NDU3MzY0LTEuMjg5OTIyLTYuODQ2NTExNiA1Ljc1NTAzOS0xMS4wMTM5NTM1IDEzLjk5MDY5OC04LjUzMzMzMzMtNS44NTQyNjQtNy42NDAzMTAxLTEyLjAwNjIwMi0xNi42Njk3Njc1LTIwLjQ0MDMxLTIxLjQzMjU1ODJ6bTI3LjE4NzU5NyAyMjQuMzQ3Mjg2N2MxMS40MTA4NTItNS42NTU4MTQgMzIuNjQ0OTYxLTE1LjE4MTM5NSAzOS42ODk5MjIgMCAyLjY3OTA3IDUuNjU1ODE0IDUuNzU1MDM5IDE1LjA4MjE3MSA3LjA0NDk2MSAyMC45MzY0MzQgMS44ODUyNzIgOC4xMzY0MzQtMi4wODM3MjEgMjUuNDAxNTUxLTEwLjUxNzgyOSAyOC4wODA2Mi03LjQ0MTg2MSAyLjM4MTM5Ni0xNi4wNzQ0MTkgMi4yODIxNzEtMjUuMDA0NjUxLjQ5NjEyNC0xLjA5MTQ3My0uODkzMDIzLTIuMTgyOTQ2LTIuMzgxMzk1LTMuMDc1OTY5LTMuOTY4OTkyLTYuMzUwMzg4LS4xOTg0NDktMTIuNDAzMTAxLjI5NzY3NS0xNy4zNjQzNDEgMi45NzY3NDQuNDk2MTI0IDQuNzYyNzkxLTIuNjc5MDcgNS40NTczNjUtNS43NTUwMzkgNi40NDk2MTMtMi4xODI5NDYgOC44MzEwMDggNC40NjUxMTYgMjAuMzQxMDg1IDIuODc3NTE5IDI4LjI3OTA3LTEuMDkxNDczIDUuNzU1MDM4LTguMTM2NDM0IDYuNjQ4MDYyLTEzLjI5NjEyNCA3LjY0MDMxLS4xOTg0NDkgMy4xNzUxOTMuMTk4NDUgNS44NTQyNjMuNTk1MzQ5IDguNTMzMzMzLTEuMTkwNjk4IDQuMzY1ODkxLTYuNDQ5NjEyIDYuODQ2NTEyLTExLjUxMDA3OCA3LjQ0MTg2LTE2LjU3MDU0MiAxLjk4NDQ5Ny00MS42NzQ0MTggMi44Nzc1Mi01Ny41NTAzODctMi44Nzc1MTktNC40NjUxMTYtMTAuOTE0NzI5LTcuOTM3OTg1LTI0LjExMTYyOC0xMS42MDkzMDI0LTM2LjUxNDcyOS0xNS40NzkwNjk4IDEuNjg2ODIyLTI4LjA4MDYyMDItNi42NDgwNjItMzkuODg4MzcyMS0xMi4yMDQ2NTEtNC4wNjgyMTcxLTEuODg1MjcxLTkuNzI0MDMxLTIuOTc2NzQ0LTExLjMxMTYyNzktNi4yNTExNjMtMS40ODgzNzIxLTMuMTc1MTkzLS44OTMwMjMzLTkuMjI3OTA3LTEuMjg5OTIyNS0xNC44ODM3MjEtLjg5MzAyMzMtMTQuNTg2MDQ2LTEuNzg2MDQ2NS0yOC42NzU5NjgtNS41NTY1ODkyLTQzLjU1OTY4OS0xLjY4NjgyMTctNi43NDcyODctNC43NjI3OTA3LTEyLjYwMTU1MS02Ljg0NjUxMTYtMTkuMDUxMTYzLTEuOTg0NDk2MS01Ljk1MzQ4OS01LjM1ODEzOTUtMTMuMzk1MzQ5LTYuMjUxMTYyOC0xOS4zNDg4MzctMS4yODk5MjI1LTguODMxMDA4IDcuMDQ0OTYxMy05LjMyNzEzMiAxMi4zMDM4NzYtMTMuMTk2OSA4LjIzNTY1ODktNS45NTM0ODggMTQuNjg1MjcxMy05LjIyNzkwNyAyMy42MTU1MDM5LTE0LjU4NjA0NiAyLjY3OTA2OTctMS41ODc1OTcgMTAuNjE3MDU0Mi01LjU1NjU4OSAxMS41MTAwNzc1LTcuNDQxODYxIDEuNzg2MDQ2NS0zLjY3MTMxNy0zLjA3NTk2OS04LjgzMTAwNy00LjM2NTg5MTUtMTEuNzA4NTI3LTIuMDgzNzIwOS00LjU2NDM0MS0zLjE3NTE5MzgtOC40MzQxMDgtMy40NzI4NjgyLTEyLjg5OTIyNS03LjQ0MTg2MDUtMS4xOTA2OTctMTMuMTk2ODk5Mi01LjY1NTgxNC0xNi41NzA1NDI2LTEwLjYxNzA1NC01LjY1NTgxNC04LjMzNDg4NC05LjYyNDgwNjMtMjMuNzE0NzI5LTQuNjYzNTY1OS0zNS4zMjQwMzA4LjM5Njg5OTItLjg5MzAyMzMgMi4yODIxNzA1LTIuNzc4Mjk0NiAyLjU3OTg0NDktNC4xNjc0NDE5LjU5NTM0ODktMi43NzgyOTQ2LTEuMDkxNDcyOC02LjQ0OTYxMjQtMS4xOTA2OTc3LTkuNDI2MzU2Ni0uNDk2MTI0LTE1LjE4MTM5NTMgMi41Nzk4NDUtMjguMjc5MDY5OCAxMi44LTMyLjg0MzQxMDggNC4xNjc0NDE5LTE2LjU3MDU0MjcgMTkuMDUxMTYyOC0yMi4wMjc5MDcgMzMuMDQxODYwNS0zMC4yNjM1NjU5IDUuMjU4OTE0Ny0zLjA3NTk2OTAyIDExLjAxMzk1MzYtNS4wNjA0NjUxNSAxNi45Njc0NDE2LTcuMjQzNDEwODggMjEuMzMzMzM0LTcuODM4NzU5NjkgNTQuMTc2NzQ0LTYuMzUwMzg3NiA3MS45Mzc5ODUgNy4wNDQ5NjEyOCA3LjU0MTA4NSA1LjY1NTgxMzkgMTkuNTQ3Mjg3IDE3LjY2MjAxNTUgMjMuODEzOTUzIDI2LjM5Mzc5ODQgMTEuNDEwODUzIDIyLjkyMDkzMDIgMTAuNTE3ODMgNjEuMzIwOTMwMiAyLjU3OTg0NSA4OS4zMDIzMjUyLTEuMDkxNDczIDMuNzcwNTQzLTIuNTc5ODQ1IDkuMjI3OTA3LTQuNzYyNzkgMTMuNzkyMjQ4LTEuNDg4MzczIDMuMTc1MTk0LTYuMTUxOTM4IDkuNDI2MzU3LTUuNjU1ODE0IDEyLjIwNDY1Mi41OTUzNDggMi44Nzc1MTkgMTAuNzE2Mjc5IDEwLjUxNzgyOSAxMi44OTkyMjQgMTIuNjAxNTUgMy44Njk3NjggMy43NzA1NDMgMTEuMzExNjI4IDguNzMxNzgzIDExLjkwNjk3NyAxMy40OTQ1NzQuNjk0NTc0IDUuMDYwNDY1LTIuMTgyOTQ2IDEyLjAwNjIwMS0zLjY3MTMxOCAxNi44NjgyMTctNC43NjI3OSAxNi4yNzI4NjgtOS41MjU1ODEgMzEuMjU1ODE0LTE0Ljk4Mjk0NSA0NS44NDE4NnoiLz48cGF0aCBmaWxsPSIjZjdlNGNkIiBkPSJtMTI4LjA5OTIyNSAxMjkuODg1MjcxYy41OTUzNDktLjc5Mzc5OCAzLjk2ODk5Mi0yLjA4MzcyMSA4LjczMTc4My4xOTg0NSAwIDAtNS42NTU4MTQuODkzMDIzLTUuMTU5NjkgMTAuMzE5MzhsLTIuMzgxMzk2LS40OTYxMjRjLjA5OTIyNS4wOTkyMjUtMi4zODEzOTUtOC40MzQxMDktMS4xOTA2OTctMTAuMDIxNzA2Ii8+PHBhdGggZmlsbD0iIzFkMTkxOSIgZD0ibTE2OS4xNzgyOTUgMjEwLjQ1NTgxNGMwIDEuMzg5MTQ3LTEuMTkwNjk4IDIuNTc5ODQ1LTIuNTc5ODQ1IDIuNTc5ODQ1LTEuMzg5MTQ4IDAtMi41Nzk4NDUtMS4xOTA2OTgtMi41Nzk4NDUtMi41Nzk4NDVzMS4xOTA2OTctMi41Nzk4NDUgMi41Nzk4NDUtMi41Nzk4NDVjMS40ODgzNzIgMCAyLjU3OTg0NSAxLjE5MDY5OCAyLjU3OTg0NSAyLjU3OTg0NSIvPjxwYXRoIGZpbGw9IiMxZDE5MTkiIGQ9Im0xNzEuNzU4MTQgMjIyLjQ2MjAxNmMwIDEuMzg5MTQ3LTEuMTkwNjk4IDIuNTc5ODQ0LTIuNTc5ODQ1IDIuNTc5ODQ0LTEuMzg5MTQ4IDAtMi41Nzk4NDUtMS4xOTA2OTctMi41Nzk4NDUtMi41Nzk4NDQgMC0xLjM4OTE0OCAxLjE5MDY5Ny0yLjU3OTg0NSAyLjU3OTg0NS0yLjU3OTg0NSAxLjQ4ODM3MiAwIDIuNTc5ODQ1IDEuMDkxNDcyIDIuNTc5ODQ1IDIuNTc5ODQ1Ii8+PGcgdHJhbnNmb3JtPSJ0cmFuc2xhdGUoLjk5MjI0OCAzNjcuMTMxNzgzKSIgZmlsbD0iIzIzMWYyMCI+PHBhdGggZD0ibTM1LjYyMTcwNTQgNy4xNDQxODYwNWMtLjc5Mzc5ODQuMDk5MjI0OC0xLjQ4ODM3MjEuMTk4NDQ5NjEtMi4wODM3MjA5LjI5NzY3NDQyLS41OTUzNDg4LjA5OTIyNDgtMS4xOTA2OTc3LjE5ODQ0OTYxLTEuOTg0NDk2MS4zOTY4OTkyMi0uODkzMDIzMy4xOTg0NDk2MS0xLjM4OTE0NzMuNTk1MzQ4ODQtMS41ODc1OTY5IDEuMTkwNjk3NjctLjE5ODQ0OTYuNTk1MzQ4ODQtLjM5Njg5OTMgMS4xOTA2OTc2NC0uMzk2ODk5MyAxLjk4NDQ5NjE0djI0LjIxMDg1MjdjMCAyLjE4Mjk0NTctLjQ5NjEyNCA0LjI2NjY2NjctMS4zODkxNDcyIDYuMTUxOTM4LS44OTMwMjMzIDEuODg1MjcxMy0yLjA4MzcyMSAzLjM3MzY0MzQtMy42NzEzMTc5IDQuNjYzNTY1OS0xLjU4NzU5NjkgMS4xOTA2OTc3LTMuMzczNjQzNCAyLjE4Mjk0NTctNS4zNTgxMzk1IDIuNzc4Mjk0Ni0xLjk4NDQ5NjEuNTk1MzQ4OC00LjA2ODIxNzEuOTkyMjQ4LTYuMjUxMTYyOC45OTIyNDgtMy44Njk3Njc0NCAwLTYuOTQ1NzM2NDMtLjg5MzAyMzItOS4zMjcxMzE3OC0yLjc3ODI5NDYtMi4zODEzOTUzNS0xLjg4NTI3MTMtMy41NzIwOTMwMi00LjM2NTg5MTQtMy41NzIwOTMwMi03LjY0MDMxIDAtMS44ODUyNzE0LjQ5NjEyNDAzLTMuNDcyODY4MyAxLjU4NzU5NjktNC43NjI3OTA3IDEuMDkxNDcyODctMS4yODk5MjI1IDIuNTc5ODQ0OTYtMS44ODUyNzE0IDQuNDY1MTE2MjgtMS44ODUyNzE0IDEuNzg2MDQ2NTEgMCAzLjE3NTE5MzguNDk2MTI0MSA0LjI2NjY2NjYyIDEuNTg3NTk2OSAxLjA5MTQ3MjkgMS4wOTE0NzI5IDEuNTg3NTk2OSAyLjM4MTM5NTQgMS41ODc1OTY5IDMuODY5NzY3NSAwIDEuMjg5OTIyNS0uNDk2MTI0IDIuNTc5ODQ0OS0xLjM4OTE0NzIgMy42NzEzMTc4LS44OTMwMjMzIDEuMDkxNDcyOS0xLjk4NDQ5NjE3IDIuMTgyOTQ1OC0zLjE3NTE5Mzg0IDMuMDc1OTY5di4zOTY4OTkyYy4xOTg0NDk2MS4zOTY4OTkzLjU5NTM0ODg0Ljc5Mzc5ODUgMS4xOTA2OTc2NyAxLjA5MTQ3MjkuNTk1MzQ4ODQuMjk3Njc0NCAxLjI4OTkyMjQ4LjM5Njg5OTIgMS44ODUyNzEzNy4zOTY4OTkyIDIuNDgwNjIwMSAwIDQuNDY1MTE2Mi0uODkzMDIzMiA1Ljg1NDI2MzUtMi42NzkwNjk3IDEuMzg5MTQ3My0xLjc4NjA0NjYgMi4wODM3MjA5LTQuNDY1MTE2MyAyLjA4MzcyMDktOC4wMzcyMDkzdi0yNC44MDYyMDE2YzAtLjY5NDU3MzYtLjA5OTIyNDgtMS4zODkxNDcyOC0uMjk3Njc0NC0xLjg4NTI3MTMxcy0uNzkzNzk4NC0uODkzMDIzMjYtMS42ODY4MjE3LTEuMjg5OTIyNDhjLS41OTUzNDg4LS4yOTc2NzQ0Mi0xLjM4OTE0NzMtLjQ5NjEyNDAzLTIuMjgyMTcwNS0uNjk0NTczNjQtLjg5MzAyMzMtLjE5ODQ0OTYyLTEuNTg3NTk2OS0uMjk3Njc0NDItMi4xODI5NDU4LS4zOTY4OTkyM3YtMi4zODEzOTUzNWgyMy40MTcwNTQzdjIuNDgwNjIwMTZ6Ii8+PHBhdGggZD0ibTcyLjMzNDg4MzcgNDEuMjc3NTE5NGMtLjY5NDU3MzYgMS4xOTA2OTc3LTEuNTg3NTk2OSAyLjI4MjE3MDUtMi41Nzk4NDQ5IDMuMzczNjQzNC0uOTkyMjQ4MSAxLjA5MTQ3MjktMi4xODI5NDU4IDEuODg1MjcxMy0zLjQ3Mjg2ODMgMi42NzkwNjk4LTEuMzg5MTQ3Mi43OTM3OTg0LTIuNzc4Mjk0NSAxLjM4OTE0NzItNC4xNjc0NDE4IDEuNzg2MDQ2NS0xLjM4OTE0NzMuMzk2ODk5Mi0zLjA3NTk2OS41OTUzNDg4LTQuODYyMDE1NS41OTUzNDg4LTMuMDc1OTY5IDAtNS42NTU4MTQtLjM5Njg5OTItNy45Mzc5ODQ1LTEuMjg5OTIyNS0yLjE4Mjk0NTgtLjg5MzAyMzItNC4wNjgyMTcxLTEuOTg0NDk2MS01LjQ1NzM2NDQtMy40NzI4NjgyLTEuNDg4MzcyMS0xLjQ4ODM3MjEtMi40ODA2MjAxLTMuMTc1MTkzOC0zLjI3NDQxODYtNS4xNTk2ODk5LS42OTQ1NzM2LTEuOTg0NDk2MS0xLjA5MTQ3MjgtNC4xNjc0NDE5LTEuMDkxNDcyOC02LjQ0OTYxMjQgMC0yLjA4MzcyMDkuMzk2ODk5Mi00LjE2NzQ0MTkgMS4xOTA2OTc2LTYuMDUyNzEzMi43OTM3OTg1LTEuODg1MjcxMyAxLjg4NTI3MTQtMy42NzEzMTc4IDMuMjc0NDE4Ni01LjE1OTY4OTkgMS4zODkxNDczLTEuNDg4MzcyMSAzLjE3NTE5MzgtMi42NzkwNjk4IDUuMzU4MTM5Ni0zLjU3MjA5MyAyLjE4Mjk0NTctLjg5MzAyMzMgNC41NjQzNDExLTEuMzg5MTQ3MyA3LjE0NDE4Ni0xLjM4OTE0NzMgMi44Nzc1MTk0IDAgNS4yNTg5MTQ4LjM5Njg5OTIgNy4xNDQxODYxIDEuMDkxNDcyOCAxLjg4NTI3MTMuNjk0NTczNyAzLjM3MzY0MzQgMS42ODY4MjE3IDQuNTY0MzQxMSAyLjg3NzUxOTQgMS4xOTA2OTc2IDEuMTkwNjk3NyAxLjk4NDQ5NjEgMi41Nzk4NDUgMi41Nzk4NDQ5IDQuMTY3NDQxOS40OTYxMjQxIDEuNTg3NTk2OS43OTM3OTg1IDMuMjc0NDE4Ni43OTM3OTg1IDUuMDYwNDY1MXYxLjk4NDQ5NjFoLTIwLjkzNjQzNDFjMCA0LjI2NjY2NjcuNzkzNzk4NCA3LjQ0MTg2MDUgMi40ODA2MjAxIDkuNjI0ODA2MiAxLjU4NzU5NjkgMi4xODI5NDU4IDQuMjY2NjY2NyAzLjI3NDQxODYgNy43Mzk1MzQ5IDMuMjc0NDE4NiAxLjk4NDQ5NjEgMCAzLjY3MTMxNzgtLjQ5NjEyNCA1LjI1ODkxNDctMS41ODc1OTY5IDEuNTg3NTk2OS0xLjA5MTQ3MjggMi44Nzc1MTk0LTIuMzgxMzk1MyAzLjk2ODk5MjMtNC4wNjgyMTd6bS0xMS44MDc3NTE5LTExLjgwNzc1MmMwLTEuMTkwNjk3Ni0uMDk5MjI0OC0yLjQ4MDYyMDEtLjE5ODQ0OTYtMy43NzA1NDI2cy0uMjk3Njc0NC0yLjM4MTM5NTMtLjY5NDU3MzctMy4xNzUxOTM4Yy0uMzk2ODk5Mi0uOTkyMjQ4MS0uNzkzNzk4NC0xLjY4NjgyMTctMS40ODgzNzIxLTIuMTgyOTQ1Ny0uNTk1MzQ4OC0uNDk2MTI0MS0xLjM4OTE0NzMtLjY5NDU3MzctMi4yODIxNzA1LS42OTQ1NzM3LTEuNTg3NTk2OSAwLTIuODc3NTE5NC43OTM3OTg1LTMuNzcwNTQyNiAyLjM4MTM5NTQtLjk5MjI0ODEgMS41ODc1OTY5LTEuNDg4MzcyMSA0LjE2NzQ0MTgtMS41ODc1OTY5IDcuNjQwMzEwMXoiLz48cGF0aCBkPSJtMTE2LjA5MzAyMyA0OC42MjAxNTVoLTE4LjY1NDI2MzN2LTIuMjgyMTcwNWMuMzk2ODk5MiAwIC44OTMwMjMyLS4wOTkyMjQ4IDEuMzg5MTQ3My0uMTk4NDQ5Ni41OTUzNDg4LS4wOTkyMjQ4Ljk5MjI0OC0uMTk4NDQ5NiAxLjI4OTkyMi0uMjk3Njc0NC4zOTY5LS4xOTg0NDk2LjY5NDU3NC0uNTk1MzQ4OS44OTMwMjQtLjk5MjI0ODEuMTk4NDQ5LS4zOTY4OTkyLjI5NzY3NC0xLjA5MTQ3MjkuMjk3Njc0LTEuODg1MjcxM3YtMTQuNDg2ODIxN2MwLTIuMDgzNzIxLS4zOTY4OTktMy42NzEzMTc4LTEuMTkwNjk4LTQuNzYyNzkwNy0uNzkzNzk4LTEuMDkxNDcyOS0xLjg4NTI3MDktMS41ODc1OTY5LTMuNDcyODY3OC0xLjU4NzU5NjktLjc5Mzc5ODQgMC0xLjU4NzU5NjkuMDk5MjI0OC0yLjI4MjE3MDUuMzk2ODk5Mi0uNjk0NTczNi4xOTg0NDk2LTEuMzg5MTQ3My41OTUzNDg4LTIuMDgzNzIwOSAxLjA5MTQ3MjktLjU5NTM0ODkuMzk2ODk5Mi0xLjA5MTQ3MjkuNzkzNzk4NC0xLjQ4ODM3MjEgMS4yODk5MjI1LS4zOTY4OTkzLjM5Njg5OTItLjY5NDU3MzcuNzkzNzk4NC0uODkzMDIzMyAxLjE5MDY5NzZ2MTYuNTcwNTQyN2MwIC42OTQ1NzM2LjA5OTIyNDggMS4yODk5MjI0LjI5NzY3NDQgMS43ODYwNDY1LjE5ODQ0OTYuNDk2MTI0LjU5NTM0ODkuODkzMDIzMi45OTIyNDgxIDEuMDkxNDcyOC4yOTc2NzQ0LjE5ODQ0OTcuNjk0NTczNi4zOTY4OTkzIDEuMTkwNjk3Ny40OTYxMjQxLjQ5NjEyNC4wOTkyMjQ4Ljk5MjI0OC4xOTg0NDk2IDEuNDg4MzcyMS4yOTc2NzQ0djIuMjgyMTcwNWgtMTguODUyNzEzMnYtMi4yODIxNzA1Yy40OTYxMjQgMCAuOTkyMjQ4MS0uMDk5MjI0OCAxLjU4NzU5NjktLjE5ODQ0OTYuNDk2MTI0LS4wOTkyMjQ4Ljk5MjI0OC0uMTk4NDQ5NiAxLjM4OTE0NzMtLjI5NzY3NDQuNjk0NTczNi0uMTk4NDQ5NiAxLjA5MTQ3MjgtLjU5NTM0ODkgMS4zODkxNDczLTEuMDkxNDcyOS4xOTg0NDk2LS40OTYxMjQuMzk2ODk5Mi0xLjA5MTQ3MjkuMzk2ODk5Mi0xLjg4NTI3MTN2LTE4LjA1ODkxNDdjMC0uNTk1MzQ4OS0uMTk4NDQ5Ni0xLjI4OTkyMjUtLjQ5NjEyNC0xLjg4NTI3MTQtLjI5NzY3NDUtLjU5NTM0ODgtLjc5Mzc5ODUtMS4wOTE0NzI4LTEuMjg5OTIyNS0xLjQ4ODM3MjEtLjM5Njg5OTMtLjE5ODQ0OTYtLjc5Mzc5ODUtLjQ5NjEyNC0xLjM4OTE0NzMtLjU5NTM0ODgtLjU5NTM0ODgtLjE5ODQ0OTYtMS4xOTA2OTc3LS4yOTc2NzQ0LTEuODg1MjcxMy0uMjk3Njc0NHYtMi4yODIxNzA2bDE0Ljc4NDQ5NjEtLjc5Mzc5ODQuNDk2MTI0LjQ5NjEyNHY0LjQ2NTExNjNoLjA5OTIyNDhjLjU5NTM0ODktLjQ5NjEyNCAxLjI4OTkyMjUtMS4wOTE0NzI5IDIuMDgzNzIxLTEuODg1MjcxMy43OTM3OTg0LS42OTQ1NzM3IDEuNTg3NTk2OS0xLjI4OTkyMjUgMi4yODIxNzA1LTEuNzg2MDQ2NS43OTM3OTg1LS40OTYxMjQxIDEuNzg2MDQ2NS0uODkzMDIzMyAyLjk3Njc0NDItMS4yODk5MjI1czIuNTc5ODQ1My0uNDk2MTI0IDMuOTY4OTkyMy0uNDk2MTI0YzMuMzczNjQzIDAgNS44NTQyNjQuOTkyMjQ4IDcuNTQxMDg1IDIuODc3NTE5MyAxLjY4NjgyMiAxLjg4NTI3MTQgMi40ODA2MiA0LjQ2NTExNjMgMi40ODA2MiA3LjY0MDMxMDF2MTUuMTgxMzk1NGMwIC43OTM3OTg0LjA5OTIyNSAxLjM4OTE0NzMuMjk3Njc1IDEuNzg2MDQ2NS4xOTg0NDkuNDk2MTI0LjY5NDU3My43OTM3OTg0IDEuMjg5OTIyIDEuMDkxNDcyOC4yOTc2NzUuMDk5MjI0OS42OTQ1NzQuMjk3Njc0NSAxLjE5MDY5OC4zOTY4OTkzcy45OTIyNDguMTk4NDQ5NiAxLjY4NjgyMi4yOTc2NzQ0djIuMzgxMzk1M3oiLz48cGF0aCBkPSJtMTU4Ljc1OTY5IDQ4LjYyMDE1NWgtMTQuNTg2MDQ3Yy0xLjc4NjA0Ni0zLjE3NTE5MzgtMy40NzI4NjgtNS44NTQyNjM1LTQuOTYxMjQtOC4wMzcyMDkzLTEuNDg4MzcyLTIuMTgyOTQ1Ny0yLjg3NzUxOS00LjI2NjY2NjYtNC4xNjc0NDItNi4wNTI3MTMxbC0xLjc4NjA0NiAxLjU4NzU5Njl2Ni43NDcyODY4YzAgLjY5NDU3MzYuMDk5MjI1IDEuMzg5MTQ3My4yOTc2NzQgMS43ODYwNDY1LjE5ODQ1LjQ5NjEyNC41OTUzNDkuNzkzNzk4NCAxLjI4OTkyMyAxLjA5MTQ3MjkuMzk2ODk5LjE5ODQ0OTYuNzkzNzk4LjI5NzY3NDQgMS4yODk5MjIuMzk2ODk5MnMuOTkyMjQ4LjE5ODQ0OTYgMS40ODgzNzIuMTk4NDQ5NnYyLjI4MjE3MDVoLTE5LjI0OTYxMnYtMi4yODIxNzA1Yy40OTYxMjQgMCAuOTkyMjQ4LS4wOTkyMjQ4IDEuNTg3NTk3LS4xOTg0NDk2LjQ5NjEyNC0uMDk5MjI0OC45OTIyNDgtLjE5ODQ0OTYgMS4zODkxNDctLjI5NzY3NDQuNjk0NTc0LS4xOTg0NDk2IDEuMDkxNDczLS41OTUzNDg5IDEuMzg5MTQ3LTEuMDkxNDcyOS4xOTg0NS0uNDk2MTI0LjM5Njg5OS0xLjA5MTQ3MjkuMzk2ODk5LTEuODg1MjcxM3YtMzQuNTMwMjMyNThjMC0uNjk0NTczNjQtLjE5ODQ0OS0xLjM4OTE0NzI5LS40OTYxMjQtMi4wODM3MjA5My0uMjk3Njc0LS42OTQ1NzM2NC0uNjk0NTczLTEuMjg5OTIyNDgtMS4yODk5MjItMS42ODY4MjE3LS4zOTY4OTktLjE5ODQ0OTYyLS45OTIyNDgtLjQ5NjEyNDA0LTEuNzg2MDQ3LS41OTUzNDg4NC0uNzkzNzk4LS4xOTg0NDk2MS0xLjQ4ODM3Mi0uMjk3Njc0NDItMi4xODI5NDUtLjI5NzY3NDQydi0yLjI4MjE3MDU0bDE1LjM3OTg0NS0uNzkzNzk4NDUuNDk2MTI0LjQ5NjEyNDAzdjMxLjk1MDM4NzYzYzEuNDg4MzcyLTEuMzg5MTQ3MyAzLjI3NDQxOC0yLjk3Njc0NDIgNS4xNTk2OS00Ljc2Mjc5MDcgMS44ODUyNzEtMS43ODYwNDY1IDMuNDcyODY4LTMuMjc0NDE4NiA0LjU2NDM0MS00LjQ2NTExNjMuNjk0NTczLS42OTQ1NzM3IDEuMDkxNDczLTEuMTkwNjk3NyAxLjA5MTQ3My0xLjU4NzU5NjkuMDk5MjI0LS4zOTY4OTkyLjA5OTIyNC0uNTk1MzQ4OC4wOTkyMjQtLjY5NDU3MzcgMC0uMzk2ODk5Mi0uMjk3Njc0LS42OTQ1NzM2LS45OTIyNDgtLjg5MzAyMzItLjY5NDU3My0uMTk4NDQ5Ni0xLjU4NzU5Ny0uNDk2MTI0LTIuOTc2NzQ0LS42OTQ1NzM3di0yLjE4Mjk0NTdoMTUuNjc3NTJ2Mi4xODI5NDU3Yy0yLjA4MzcyMS41OTUzNDg5LTMuNjcxMzE4IDEuMDkxNDcyOS00Ljc2Mjc5MSAxLjU4NzU5NjktMS4wOTE0NzMuNDk2MTI0MS0yLjI4MjE3MSAxLjE5MDY5NzctMy41NzIwOTMgMS45ODQ0OTYyLS44OTMwMjMuNTk1MzQ4OC0xLjY4NjgyMiAxLjE5MDY5NzYtMi40ODA2MiAxLjc4NjA0NjUtLjc5Mzc5OS41OTUzNDg4LTEuNjg2ODIyIDEuMzg5MTQ3My0yLjc3ODI5NSAyLjI4MjE3MDUgMS45ODQ0OTYgMi45NzY3NDQyIDMuODY5NzY4IDUuNjU1ODE0IDUuNTU2NTg5IDguMTM2NDM0MSAxLjY4NjgyMiAyLjQ4MDYyMDIgMy40NzI4NjggNS4xNTk2OSA1LjM1ODE0IDcuOTM3OTg0NS41OTUzNDkuOTkyMjQ4MSAxLjM4OTE0NyAxLjU4NzU5NjkgMi4zODEzOTUgMS45ODQ0OTYyLjk5MjI0OC4yOTc2NzQ0IDEuODg1MjcxLjQ5NjEyNCAyLjg3NzUyLjU5NTM0ODh2Mi4zODEzOTUzeiIvPjxwYXRoIGQ9Im0xNzguNjA0NjUxIDQ4LjYyMDE1NWgtMTkuNTQ3Mjg3di0yLjI4MjE3MDVjLjQ5NjEyNCAwIDEuMDkxNDczLS4wOTkyMjQ4IDEuNTg3NTk3LS4xOTg0NDk2cy45OTIyNDgtLjE5ODQ0OTYgMS4yODk5MjMtLjI5NzY3NDRjLjY5NDU3My0uMTk4NDQ5NiAxLjA5MTQ3My0uNTk1MzQ4OSAxLjM4OTE0Ny0xLjA5MTQ3MjlzLjM5Njg5OS0xLjA5MTQ3MjkuMzk2ODk5LTEuODg1MjcxM3YtMTguMDU4OTE0N2MwLS42OTQ1NzM3LS4xOTg0NDktMS4zODkxNDczLS40OTYxMjQtMS44ODUyNzE0LS4yOTc2NzQtLjU5NTM0ODgtLjY5NDU3My0uOTkyMjQ4LTEuMTkwNjk3LTEuMjg5OTIyNC0uMzk2OS0uMTk4NDQ5Ny0uODkzMDI0LS40OTYxMjQxLTEuNjg2ODIyLS42OTQ1NzM3LS43OTM3OTktLjE5ODQ0OTYtMS40ODgzNzItLjM5Njg5OTItMi4wODM3MjEtLjM5Njg5OTJ2LTIuMjgyMTcwNmwxNS4xODEzOTUtLjc5Mzc5ODQuNDk2MTI0LjQ5NjEyNHYyNC42MDc3NTJjMCAuNjk0NTczNi4xOTg0NSAxLjI4OTkyMjQuNDk2MTI0IDEuODg1MjcxMy4yOTc2NzUuNDk2MTI0Ljc5Mzc5OS44OTMwMjMyIDEuMjg5OTIzIDEuMDkxNDcyOC4zOTY4OTkuMTk4NDQ5Ny44OTMwMjMuMzk2ODk5MyAxLjM4OTE0Ny40OTYxMjQxcy45OTIyNDguMTk4NDQ5NiAxLjU4NzU5Ny4yOTc2NzQ0djIuMjgyMTcwNXptLTQuNDY1MTE2LTQyLjE3MDU0MjZjMCAxLjU4NzU5NjktLjU5NTM0OSAyLjg3NzUxOTM4LTEuNzg2MDQ3IDMuOTY4OTkyMy0xLjE5MDY5NyAxLjA5MTQ3MjgtMi42NzkwNjkgMS42ODY4MjE3LTQuMjY2NjY2IDEuNjg2ODIxNy0xLjY4NjgyMiAwLTMuMDc1OTY5LS41OTUzNDg5LTQuMzY1ODkyLTEuNjg2ODIxNy0xLjE5MDY5Ny0xLjA5MTQ3MjkyLTEuNzg2MDQ2LTIuNDgwNjIwMi0xLjc4NjA0Ni0zLjk2ODk5MjMgMC0xLjU4NzU5NjkuNTk1MzQ5LTIuODc3NTE5MzggMS43ODYwNDYtNC4wNjgyMTcwNSAxLjE5MDY5OC0xLjA5MTQ3Mjg3IDIuNjc5MDctMS42ODY4MjE3MSA0LjM2NTg5Mi0xLjY4NjgyMTcxIDEuNjg2ODIxIDAgMy4wNzU5NjkuNTk1MzQ4ODQgNC4yNjY2NjYgMS42ODY4MjE3MSAxLjE5MDY5OCAxLjA5MTQ3Mjg3IDEuNzg2MDQ3IDIuNDgwNjIwMTUgMS43ODYwNDcgNC4wNjgyMTcwNXoiLz48cGF0aCBkPSJtMjIyLjM2Mjc5MSA0OC42MjAxNTVoLTE4LjY1NDI2NHYtMi4yODIxNzA1Yy4zOTY4OTkgMCAuODkzMDIzLS4wOTkyMjQ4IDEuMzg5MTQ3LS4xOTg0NDk2LjU5NTM0OS0uMDk5MjI0OC45OTIyNDgtLjE5ODQ0OTYgMS4yODk5MjMtLjI5NzY3NDQuMzk2ODk5LS4xOTg0NDk2LjY5NDU3NC0uNTk1MzQ4OS44OTMwMjMtLjk5MjI0ODEuMTk4NDUtLjM5Njg5OTIuMjk3Njc1LTEuMDkxNDcyOS4yOTc2NzUtMS44ODUyNzEzdi0xNC40ODY4MjE3YzAtMi4wODM3MjEtLjM5NjktMy42NzEzMTc4LTEuMTkwNjk4LTQuNzYyNzkwNy0uNzkzNzk5LTEuMDkxNDcyOS0xLjg4NTI3MS0xLjU4NzU5NjktMy40NzI4NjgtMS41ODc1OTY5LS43OTM3OTkgMC0xLjU4NzU5Ny4wOTkyMjQ4LTIuMjgyMTcxLjM5Njg5OTJzLTEuMzg5MTQ3LjU5NTM0ODgtMi4wODM3MjEgMS4wOTE0NzI5Yy0uNTk1MzQ5LjM5Njg5OTItMS4wOTE0NzMuNzkzNzk4NC0xLjQ4ODM3MiAxLjI4OTkyMjUtLjM5Njg5OS4zOTY4OTkyLS42OTQ1NzQuNzkzNzk4NC0uODkzMDIzIDEuMTkwNjk3NnYxNi41NzA1NDI3YzAgLjY5NDU3MzYuMDk5MjI1IDEuMjg5OTIyNC4yOTc2NzQgMS43ODYwNDY1LjE5ODQ1LjQ5NjEyNC41OTUzNDkuODkzMDIzMi45OTIyNDggMS4wOTE0NzI4LjI5NzY3NS4xOTg0NDk3LjY5NDU3NC4zOTY4OTkzIDEuMTkwNjk4LjQ5NjEyNDFzLjk5MjI0OC4xOTg0NDk2IDEuNDg4MzcyLjI5NzY3NDR2Mi4yODIxNzA1aC0xOC44NTI3MTN2LTIuMjgyMTcwNWMuNDk2MTI0IDAgLjk5MjI0OC0uMDk5MjI0OCAxLjU4NzU5Ny0uMTk4NDQ5Ni40OTYxMjQtLjA5OTIyNDguOTkyMjQ4LS4xOTg0NDk2IDEuMzg5MTQ3LS4yOTc2NzQ0LjY5NDU3NC0uMTk4NDQ5NiAxLjA5MTQ3My0uNTk1MzQ4OSAxLjM4OTE0Ny0xLjA5MTQ3MjkuMTk4NDUtLjQ5NjEyNC4zOTY5LTEuMDkxNDcyOS4zOTY5LTEuODg1MjcxM3YtMTguMDU4OTE0N2MwLS41OTUzNDg5LS4xOTg0NS0xLjI4OTkyMjUtLjQ5NjEyNC0xLjg4NTI3MTQtLjI5NzY3NS0uNTk1MzQ4OC0uNzkzNzk5LTEuMDkxNDcyOC0xLjI4OTkyMy0xLjQ4ODM3MjEtLjM5Njg5OS0uMTk4NDQ5Ni0uNzkzNzk4LS40OTYxMjQtMS4zODkxNDctLjU5NTM0ODgtLjU5NTM0OS0uMTk4NDQ5Ni0xLjE5MDY5OC0uMjk3Njc0NC0xLjg4NTI3MS0uMjk3Njc0NHYtMi4yODIxNzA2bDE0Ljc4NDQ5Ni0uNzkzNzk4NC40OTYxMjQuNDk2MTI0djQuNDY1MTE2M2guMDk5MjI0Yy41OTUzNDktLjQ5NjEyNCAxLjI4OTkyMy0xLjA5MTQ3MjkgMi4wODM3MjEtMS44ODUyNzEzLjc5Mzc5OS0uNjk0NTczNyAxLjU4NzU5Ny0xLjI4OTkyMjUgMi4yODIxNzEtMS43ODYwNDY1Ljc5Mzc5OC0uNDk2MTI0MSAxLjc4NjA0Ni0uODkzMDIzMyAyLjk3Njc0NC0xLjI4OTkyMjVzMi41Nzk4NDUtLjQ5NjEyNCAzLjk2ODk5Mi0uNDk2MTI0YzMuMzczNjQ0IDAgNS44NTQyNjQuOTkyMjQ4IDcuNTQxMDg2IDIuODc3NTE5MyAxLjY4NjgyMSAxLjg4NTI3MTQgMi40ODA2MiA0LjQ2NTExNjMgMi40ODA2MiA3LjY0MDMxMDF2MTUuMTgxMzk1NGMwIC43OTM3OTg0LjA5OTIyNSAxLjM4OTE0NzMuMjk3Njc0IDEuNzg2MDQ2NS4xOTg0NS40OTYxMjQuNjk0NTc0Ljc5Mzc5ODQgMS4yODk5MjMgMS4wOTE0NzI4LjI5NzY3NC4wOTkyMjQ5LjY5NDU3My4yOTc2NzQ1IDEuMTkwNjk3LjM5Njg5OTNzLjk5MjI0OC4xOTg0NDk2IDEuNjg2ODIyLjI5NzY3NDR2Mi4zODEzOTUzeiIvPjxwYXRoIGQ9Im0yMzkuNTI4NjgyIDQ5LjcxMTYyNzljLTEuOTg0NDk2IDAtMy45Njg5OTItLjI5NzY3NDQtNS44NTQyNjMtLjg5MzAyMzItMS44ODUyNzItLjU5NTM0ODktMy4zNzM2NDQtMS4xOTA2OTc3LTQuNDY1MTE3LTEuODg1MjcxNGwtLjg5MzAyMyAyLjA4MzcyMWgtMi4zODEzOTVsLS4zOTY5LTExLjUxMDA3NzZoMi4yODIxNzFjLjI5NzY3NC44OTMwMjMzLjc5Mzc5OCAxLjk4NDQ5NjIgMS41ODc1OTcgMy4xNzUxOTM4LjY5NDU3NCAxLjE5MDY5NzcgMS41ODc1OTcgMi4xODI5NDU4IDIuNDgwNjIgMy4xNzUxOTM4Ljk5MjI0OC44OTMwMjMzIDIuMDgzNzIxIDEuNjg2ODIxNyAzLjM3MzY0NCAyLjM4MTM5NTQgMS4yODk5MjIuNTk1MzQ4OCAyLjU3OTg0NC45OTIyNDgxIDMuOTY4OTkyLjk5MjI0ODEgMS44ODUyNzEgMCAzLjI3NDQxOC0uMzk2ODk5MyA0LjE2NzQ0Mi0xLjA5MTQ3MjkuODkzMDIzLS42OTQ1NzM3IDEuMzg5MTQ3LTEuODg1MjcxMyAxLjM4OTE0Ny0zLjM3MzY0MzQgMC0uNzkzNzk4NS0uMTk4NDUtMS40ODgzNzIxLS41OTUzNDktMi4wODM3MjEtLjM5Njg5OS0uNDk2MTI0LS45OTIyNDgtLjk5MjI0OC0xLjY4NjgyMi0xLjM4OTE0NzItLjc5Mzc5OC0uMzk2ODk5My0xLjY4NjgyMS0uNzkzNzk4NS0yLjY3OTA2OS0xLjA5MTQ3MjlzLTIuMTgyOTQ2LS41OTUzNDg4LTMuNTcyMDkzLTEuMDkxNDcyOWMtMS4zODkxNDgtLjM5Njg5OTItMi41Nzk4NDUtLjc5Mzc5ODQtMy41NzIwOTMtMS4yODk5MjI1LS45OTIyNDktLjM5Njg5OTItMi4wODM3MjEtMS4wOTE0NzI4LTMuMDc1OTY5LTEuOTg0NDk2MS0uODkzMDI0LS43OTM3OTg0LTEuNjg2ODIyLTEuNzg2MDQ2NS0yLjE4Mjk0Ni0yLjg3NzUxOTQtLjU5NTM0OS0xLjA5MTQ3MjgtLjc5Mzc5OS0yLjQ4MDYyMDEtLjc5Mzc5OS00LjA2ODIxNyAwLTIuODc3NTE5NCAxLjE5MDY5OC01LjI1ODkxNDcgMy42NzEzMTgtNy4wNDQ5NjEzIDIuNDgwNjItMS43ODYwNDY1IDUuNjU1ODE0LTIuNjc5MDY5NyA5LjYyNDgwNi0yLjY3OTA2OTcgMS44ODUyNzIgMCAzLjU3MjA5My4xOTg0NDk2IDUuMTU5NjkuNTk1MzQ4OHMyLjg3NzUyLjc5Mzc5ODUgMy45Njg5OTMgMS4yODk5MjI1bC42OTQ1NzMtMS43ODYwNDY1aDIuMzgxMzk2bC40OTYxMjQgMTAuNTE3ODI5NGgtMi4xODI5NDZjLS42OTQ1NzQtMi4xODI5NDU3LTEuOTg0NDk2LTMuOTY4OTkyMi0zLjY3MTMxOC01LjU1NjU4OTEtMS43ODYwNDYtMS41ODc1OTY5LTMuNjcxMzE4LTIuMzgxMzk1NC01LjY1NTgxNC0yLjM4MTM5NTQtMS41ODc1OTcgMC0yLjg3NzUxOS4yOTc2NzQ1LTMuNzcwNTQzLjk5MjI0ODEtLjg5MzAyMy42OTQ1NzM2LTEuMzg5MTQ3IDEuNTg3NTk2OS0xLjM4OTE0NyAyLjc3ODI5NDYgMCAxLjU4NzU5NjkuNjk0NTc0IDIuNjc5MDY5NyAxLjk4NDQ5NiAzLjM3MzY0MzQgMS4yODk5MjMuNjk0NTczNiAzLjE3NTE5NCAxLjM4OTE0NzMgNS41NTY1ODkgMS45ODQ0OTYxIDMuNjcxMzE4Ljk5MjI0ODEgNi4zNTAzODggMi4yODIxNzA2IDguMTM2NDM1IDMuODY5NzY3NSAxLjY4NjgyMSAxLjY4NjgyMTcgMi41Nzk4NDQgMy43NzA1NDI2IDIuNTc5ODQ0IDYuMjUxMTYyNyAwIDMuMzczNjQzNS0xLjI4OTkyMiA2LjA1MjcxMzItMy45Njg5OTIgNy44Mzg3NTk3LTIuOTc2NzQ0IDEuNzg2MDQ2NS02LjQ0OTYxMiAyLjc3ODI5NDYtMTAuNzE2Mjc5IDIuNzc4Mjk0NnoiLz48L2c+PC9zdmc+;" vertex="1" parent="1">
          <mxGeometry x="1481.9" y="-1690" width="146.2" height="240" as="geometry" />
        </mxCell>
        <mxCell id="ZdIIvcqZWt0Pzcp1OfUl-17" value="" style="shape=image;verticalLabelPosition=bottom;labelBackgroundColor=default;verticalAlign=top;aspect=fixed;imageAspect=0;image=data:image/svg+xml,PHN2ZyB4bWxucz0iaHR0cDovL3d3dy53My5vcmcvMjAwMC9zdmciIHZpZXdCb3g9IjAgMCAxMjggMTI4Ij48cGF0aCBmaWxsLXJ1bGU9ImV2ZW5vZGQiIGZpbGw9IiMzYTRkNTQiIGQ9Im0yMCA5Ni45di04LjFjMC0xLjEuNy0xLjkgMS44LTEuOWguM2MxLjEgMCAxLjguOSAxLjggMS45djE3YzAgNC4xLTIgNy40LTUuNiA5LjUtMS43IDEtMy41IDEuNS01LjQgMS41aC0uOGMtNC4xIDAtNy40LTItOS41LTUuNi0xLTEuNy0xLjUtMy41LTEuNS01LjR2LS44YzAtNC4xIDItNy40IDUuNi05LjUgMS43LTEgMy41LTEuNSA1LjQtMS41aC44YzIuNy4xIDUuMSAxLjEgNy4xIDIuOXptLTE1LjEgOC41YzAgMyAxLjUgNS4yIDQuMSA2LjcgMS4xLjYgMi4yLjkgMy40LjkgMi45IDAgNS4xLTEuNCA2LjYtMy45LjctMS4yIDEtMi40IDEtMy44IDAtMi42LTEuMi00LjYtMy4zLTYuMS0xLjMtLjktMi43LTEuNC00LjItMS40LTMuMiAwLTUuNSAxLjYtNi45IDQuNS0uNSAxLS43IDIuMS0uNyAzLjF6bTMyLjItMTEuM2guNWM0LjQgMCA3LjggMi4xIDkuOSA2IC45IDEuNSAxLjMgMy4yIDEuMyA1di44YzAgNC4xLTIgNy40LTUuNiA5LjUtMS43IDEtMy41IDEuNS01LjQgMS41aC0uOGMtNC4xIDAtNy40LTItOS41LTUuNi0xLTEuNy0xLjUtMy41LTEuNS01LjR2LS44YzAtNC4xIDIuMS03LjQgNS42LTkuNSAxLjctMS4xIDMuNi0xLjUgNS41LTEuNXptLTcuMiAxMS4zYzAgMi45IDEuNCA1IDMuOSA2LjUgMS4yLjcgMi40IDEgMy44IDEgMi45IDAgNS0xLjUgNi41LTMuOS43LTEuMiAxLTIuNCAxLTMuOCAwLTIuNy0xLjMtNC44LTMuNS02LjMtMS4yLS44LTIuNi0xLjItNC0xLjItMy4yIDAtNS41IDEuNi02LjkgNC41LS42IDEuMS0uOCAyLjItLjggMy4yem0zNC44LTcuMmMtLjYtLjMtMS43LS40LTIuMy0uNC0zLjItLjEtNS41IDEuNy02LjkgNC41LS41IDEtLjcgMi0uNyAzLjEgMCAzLjMgMS43IDUuNiA0LjYgNyAxLjEuNSAyLjQuNiAzLjYuNiAxIDAgMi41LS42IDMuNC0xLjFsLjItLjFoLjhjLjkuMiAxLjUuNyAxLjUgMS43di40YzAgMi4zLTQuMyAyLjktNS45IDMtNS43LjQtMTAtMi43LTExLjYtOC4yLS4zLS45LS40LTEuOS0uNC0yLjl2LS44YzAtNC4xIDIuMS03LjQgNS42LTkuNSAxLjctMSAzLjUtMS41IDUuNC0xLjVoLjhjMiAwIDMuOS42IDUuNiAxLjdsLjEuMS4xLjFjLjIuMy4zLjYuMyAxdi40YzAgMS0uNyAxLjUtMS42IDEuN2gtLjNjLS41IDAtMS44LS42LTIuMy0uOHptMTIuNCAyLjZjMS41LTEuNSAzLTMgNC41LTQuNC40LS40IDItMi4xIDIuNi0yLjFoLjhjLjkuMiAxLjUuNyAxLjUgMS43di40YzAgLjYtLjcgMS40LTEuMiAxLjhsLTIuNyAyLjctNC42IDQuN2MyIDIgNCA0IDUuOSA2bDEuNiAxLjdjLjIuMi41LjQuNi43LjIuMy4zLjYuMy45di41Yy0uMi45LS44IDEuNi0xLjcgMS42aC0uM2MtLjYgMC0xLjMtLjctMS44LTEuMS0uOS0uOC0xLjgtMS43LTIuNi0yLjZsLTIuOS0yLjl2NC42YzAgMS4xLS43IDEuOS0xLjggMS45aC0uM2MtMS4xIDAtMS44LS45LTEuOC0xLjl2LTI2LjFjMC0xLjEuNy0xLjkgMS44LTEuOWguM2MxLjEgMCAxLjguOCAxLjggMS45em00Ny42LTYuNmguNGMxLjEgMCAxLjkuOCAxLjkgMS45IDAgMS42LTEuNSAyLTIuOCAyLTEuNyAwLTMuNCAxLTQuNSAyLjItMS41IDEuNS0yLjEgMy4zLTIuMSA1LjR2OS4yYzAgMS4xLS43IDEuOS0xLjggMS45aC0uM2MtMS4xIDAtMS44LS45LTEuOC0xLjl2LTkuOGMwLTMuOCAxLjgtNi44IDQuOS05IDEuOC0xLjIgMy45LTEuOSA2LjEtMS45em0tMjcuMSAxOC4zYzEuNC41IDMgLjQgNC40LjIuNy0uMyAyLjYtMS4xIDMuMy0xaC4yYy40LjIuOC41IDEgLjkuNSAxIC4zIDItLjcgMi42bC0uMy4yYy0zLjYgMi4xLTcuNSAxLjgtMTEuMS0uMi0xLjctLjktMy0yLjMtNC00bC0uMi0uNGMtMi4zLTQtMi04LjMuNi0xMi4xLjktMS4zIDIuMS0yLjMgMy41LTMuMWwuNS0uM2MzLjQtMiA3LjEtMS44IDEwLjYtLjEgMS45LjkgMy40IDIuMyA0LjUgNC4xbC4yLjNjLjggMS4zLS4yIDIuNS0xLjIgMy4zLTEuMi45LTIuNCAyLTMuNSAzLTIuNyAyLjItNS4zIDQuNC03LjggNi42em0tMy4zLTIuMyA4LjUtNy4zYzEtLjggMi0xLjcgMy0yLjYtLjgtMS0yLjEtMS43LTMuMS0yLjEtMi4yLS44LTQuNC0uNi02LjQuNi0yLjYgMS41LTMuOCA0LTMuNyA3IDAgMS4yLjQgMi4zIDEgMy40LjIuNC40LjcuNyAxIiBjbGlwLXJ1bGU9ImV2ZW5vZGQiLz48cGF0aCBmaWxsLXJ1bGU9ImV2ZW5vZGQiIGZpbGw9IiMzYTRkNTQiIGQ9Im03My43IDMzLjdoMTEuM3YxMS41aDUuN2MyLjYgMCA1LjMtLjUgNy44LTEuMyAxLjItLjQgMi42LTEgMy44LTEuNy0xLjYtMi4xLTIuNC00LjctMi42LTcuMy0uMy0zLjUuNC04LjEgMi44LTEwLjhsMS4yLTEuNCAxLjQgMS4xYzMuNiAyLjkgNi41IDYuOCA3LjEgMTEuNCA0LjMtMS4zIDkuMy0xIDEzLjEgMS4ybDEuNS45LS44IDEuNmMtMy4yIDYuMi05LjkgOC4yLTE2LjQgNy44LTkuOCAyNC4zLTMxIDM1LjgtNTYuOCAzNS44LTEzLjMgMC0yNS41LTUtMzIuNS0xNi44bC0uMS0uMi0xLTIuMWMtMi40LTUuMi0zLjEtMTAuOS0yLjYtMTYuNmwuMi0xLjdoOS42di0xMS40aDExLjN2LTExLjNoMjIuNXYtMTEuM2gxMy41eiIgY2xpcC1ydWxlPSJldmVub2RkIi8+PHBhdGggZmlsbD0iIzAwYWFkYSIgZD0ibTExMC4yIDM3LjljLjgtNS45LTMuNi0xMC41LTYuNC0xMi43LTMuMSAzLjYtMy42IDEzLjIgMS4zIDE3LjItMi44IDIuNC04LjUgNC43LTE0LjUgNC43aC03Mi4yYy0uNiA2LjIuNSAxMS45IDMgMTYuOGwuOCAxLjVjLjUuOSAxLjEgMS43IDEuNyAyLjYgMyAuMiA1LjcuMyA4LjIuMiA0LjktLjEgOC45LS43IDEyLTEuNy41LS4yLjkuMSAxLjEuNS4yLjUtLjEuOS0uNSAxLjEtLjQuMS0uOC4zLTEuMy40LTIuNC43LTUgMS4xLTguMyAxLjNoLS42Yy0xLjMuMS0yLjcuMS00LjIuMS0xLjYgMC0zLjEgMC00LjktLjEgNiA2LjggMTUuNCAxMC44IDI3LjIgMTAuOCAyNSAwIDQ2LjItMTEuMSA1NS41LTM1LjkgNi43LjcgMTMuMS0xIDE2LTYuNy00LjUtMi42LTEwLjUtMS44LTEzLjktLjF6Ii8+PHBhdGggZmlsbD0iIzI4YjhlYiIgZD0ibTExMC4yIDM3LjljLjgtNS45LTMuNi0xMC41LTYuNC0xMi43LTMuMSAzLjYtMy42IDEzLjIgMS4zIDE3LjItMi44IDIuNC04LjUgNC43LTE0LjUgNC43aC02OGMtLjMgOS41IDMuMiAxNi43IDkuNSAyMSA0LjktLjEgOC45LS43IDEyLTEuNy41LS4yLjkuMSAxLjEuNS4yLjUtLjEuOS0uNSAxLjEtLjQuMS0uOC4zLTEuMy40LTIuNC43LTUuMiAxLjItOC41IDEuNGwtLjEtLjFjOC41IDQuNCAyMC44IDQuMyAzNS0xLjEgMTUuOC02LjEgMzAuNi0xNy43IDQwLjktMzAuOS0uMi4xLS4zLjItLjUuMnoiLz48cGF0aCBmaWxsPSIjMDI4YmI4IiBkPSJtMTguNSA1NC42Yy40IDMuMyAxLjQgNi40IDIuOSA5LjNsLjggMS41Yy41LjkgMS4xIDEuNyAxLjcgMi42IDMgLjIgNS43LjMgOC4yLjIgNC45LS4xIDguOS0uNyAxMi0xLjcuNS0uMi45LjEgMS4xLjUuMi41LS4xLjktLjUgMS4xLS40LjEtLjguMy0xLjMuNC0yLjQuNy01LjIgMS4yLTguNSAxLjRoLS40Yy0xLjMuMS0yLjcuMS00LjEuMS0xLjYgMC0zLjIgMC00LjktLjEgNiA2LjggMTUuNSAxMC44IDI3LjMgMTAuOCAyMS40IDAgNDAtOC4xIDUwLjgtMjZoLTg1LjF6Ii8+PHBhdGggZmlsbD0iIzAxOWJjNiIgZD0ibTIzLjMgNTQuNmMxLjMgNS44IDQuMyAxMC40IDguOCAxMy41IDQuOS0uMSA4LjktLjcgMTItMS43LjUtLjIuOS4xIDEuMS41LjIuNS0uMS45LS41IDEuMS0uNC4xLS44LjMtMS4zLjQtMi40LjctNS4yIDEuMi04LjYgMS40IDguNSA0LjQgMjAuOCA0LjMgMzQuOS0xLjEgOC41LTMuMyAxNi44LTguMiAyNC4yLTE0LjF6Ii8+PGcgZmlsbC1ydWxlPSJldmVub2RkIiBjbGlwLXJ1bGU9ImV2ZW5vZGQiPjxwYXRoIGZpbGw9IiMwMGFjZDMiIGQ9Im0yOC4yIDM1LjVoOS44djkuOGgtOS44em0uOC45aC44djguMWgtLjh6bTEuNSAwaC44djguMWgtLjh6bTEuNSAwaC44djguMWgtLjh6bTEuNCAwaC44djguMWgtLjh6bTEuNSAwaC44djguMWgtLjh6bTEuNSAwaC44djguMWgtLjh6bTMuMS0xMi4xaDkuOHY5LjdoLTkuOHptLjguOGguOHY4LjFoLS44em0xLjUgMGguOHY4LjFoLS44em0xLjQgMGguOHY4LjFoLS44em0xLjUgMGguOHY4LjFoLS44em0xLjUgMGguOHY4LjFoLS44em0xLjUgMGguOHY4LjFoLS44eiIvPjxwYXRoIGZpbGw9IiMyM2MyZWUiIGQ9Im0zOS41IDM1LjVoOS44djkuOGgtOS44em0uOC45aC44djguMWgtLjh6bTEuNSAwaC44djguMWgtLjh6bTEuNCAwaC44djguMWgtLjh6bTEuNSAwaC44djguMWgtLjh6bTEuNSAwaC44djguMWgtLjh6bTEuNSAwaC44djguMWgtLjh6Ii8+PHBhdGggZmlsbD0iIzAwYWNkMyIgZD0ibTUwLjggMzUuNWg5Ljh2OS44aC05Ljh6bS44LjloLjh2OC4xaC0uOHptMS40IDBoLjh2OC4xaC0uOHptMS41IDBoLjh2OC4xaC0uOHptMS41IDBoLjh2OC4xaC0uOHptMS41IDBoLjh2OC4xaC0uOHptMS40IDBoLjh2OC4xaC0uOHoiLz48cGF0aCBmaWxsPSIjMjNjMmVlIiBkPSJtNTAuOCAyNC4zaDkuOHY5LjdoLTkuOHptLjguOGguOHY4LjFoLS44em0xLjQgMGguOHY4LjFoLS44em0xLjUgMGguOHY4LjFoLS44em0xLjUgMGguOHY4LjFoLS44em0xLjUgMGguOHY4LjFoLS44em0xLjQgMGguOHY4LjFoLS44em0zLjEgMTAuNGg5Ljh2OS44aC05Ljh6bS45LjloLjh2OC4xaC0uOHptMS40IDBoLjh2OC4xaC0uOHptMS41IDBoLjh2OC4xaC0uOHptMS41IDBoLjh2OC4xaC0uOHptMS40IDBoLjh2OC4xaC0uOHptMS41IDBoLjh2OC4xaC0uOHoiLz48cGF0aCBmaWxsPSIjMDBhY2QzIiBkPSJtNjIgMjQuM2g5Ljh2OS43aC05Ljh6bS45LjhoLjh2OC4xaC0uOHptMS40IDBoLjh2OC4xaC0uOHptMS41IDBoLjh2OC4xaC0uOHptMS41IDBoLjh2OC4xaC0uOHptMS40IDBoLjh2OC4xaC0uOHptMS41IDBoLjh2OC4xaC0uOHoiLz48cGF0aCBmaWxsPSIjMjNjMmVlIiBkPSJtNjIgMTNoOS44djkuOGgtOS44em0uOS44aC44djguMmgtLjh6bTEuNCAwaC44djguMmgtLjh6bTEuNSAwaC44djguMmgtLjh6bTEuNSAwaC44djguMmgtLjh6bTEuNCAwaC44djguMmgtLjh6bTEuNSAwaC44djguMmgtLjh6Ii8+PHBhdGggZmlsbD0iIzAwYWNkMyIgZD0ibTczLjMgMzUuNWg5Ljh2OS44aC05Ljh6bS44LjloLjh2OC4xaC0uOHptMS41IDBoLjh2OC4xaC0uOHptMS41IDBoLjh2OC4xaC0uOHptMS40IDBoLjh2OC4xaC0uOHptMS41IDBoLjh2OC4xaC0uOHptMS41IDBoLjh2OC4xaC0uOHoiLz48cGF0aCBmaWxsPSIjZDRlZWYxIiBkPSJtNDguNiA2MS4yYzEuNSAwIDIuNyAxLjIgMi43IDIuN3MtMS4yIDIuNy0yLjcgMi43LTIuNy0xLjItMi43LTIuN2MuMS0xLjUgMS4zLTIuNyAyLjctMi43Ii8+PHBhdGggZmlsbD0iIzNhNGQ1NCIgZD0ibTQ4LjYgNjEuOWMuMiAwIC41IDAgLjcuMS0uMi4xLS40LjQtLjQuNyAwIC40LjQuOC44LjguMyAwIC42LS4yLjctLjQuMS4yLjEuNS4xLjcgMCAxLjEtLjkgMS45LTEuOSAxLjktMS4xIDAtMS45LS45LTEuOS0xLjlzLjktMS45IDEuOS0xLjltLTQ3LjYtNi4zaDEyNS4zYy0yLjctLjctOC42LTEuNi03LjctNS4yLTUgNS43LTE2LjkgNC0yMCAxLjItMy40IDQuOS0yMyAzLTI0LjMtLjgtNC4yIDUtMTcuMyA1LTIxLjUgMC0xLjQgMy44LTIxIDUuNy0yNC4zLjgtMyAyLjgtMTUgNC41LTIwLTEuMiAxLjEgMy41LTQuOCA0LjUtNy41IDUuMiIvPjwvZz48cGF0aCBmaWxsPSIjYmZkYmUwIiBkPSJtNTUuOCA4MC42Yy02LjctMy4yLTEwLjMtNy41LTEyLjQtMTIuMi0yLjUuNy01LjUgMS4yLTguOSAxLjQtMS4zLjEtMi43LjEtNC4xLjEtMS43IDAtMy40IDAtNS4yLS4xIDYuMSA2LjEgMTMuNyAxMC44IDI3LjYgMTAuOSAxLS4xIDItLjEgMy0uMXoiLz48cGF0aCBmaWxsPSIjZDRlZWYxIiBkPSJtNDUuOSA3Mi43Yy0uOS0xLjMtMS44LTIuOC0yLjUtNC4zLTIuNS43LTUuNSAxLjItOC45IDEuNCAyLjQgMS4zIDUuOCAyLjUgMTEuNCAyLjl6Ii8+PC9zdmc+;" vertex="1" parent="1">
          <mxGeometry x="1455" y="-1290" width="200" height="200" as="geometry" />
        </mxCell>
        <mxCell id="ZdIIvcqZWt0Pzcp1OfUl-20" value="" style="rounded=0;whiteSpace=wrap;html=1;" vertex="1" parent="1">
          <mxGeometry x="2240" y="-1980" width="380" height="375" as="geometry" />
        </mxCell>
        <mxCell id="ZdIIvcqZWt0Pzcp1OfUl-21" value="" style="shape=image;verticalLabelPosition=bottom;labelBackgroundColor=default;verticalAlign=top;aspect=fixed;imageAspect=0;image=data:image/png,iVBORw0KGgoAAAANSUhEUgAAAIAAAAB8CAYAAAChbripAAAABmJLR0QA/wD/AP+gvaeTAAAgAElEQVR4nO2dd3iUVfbHP/edlklmUkkoQTrSq3QQsaCyKmsBFZRVV8SKa8Gyoq5l1XV1VSyLig2sqOtaUFRAuoBIb6EK0kPqTJLp7/39MZnJzGQmmUlmJrg/v8/jI2+5957MPe+9554K/48gpRRSyrOllG9LKQuklFVSyuNSys1SyqeklL2bmsbfkQBIKRUp5UVSyrWyfqyQUl7U1DT/jjhASqmTUv5JSrkjiokPxTop5XgppWjqvyOR+J/846SUqcBkYBpwSshj+6ET7g3Lt9nd+456DOmpiuuUXMV9dl9jtjlV6QEoIe9vAp4CPhFCqImnPrn4n2IAKWUGcCvwFyAv6BmULFhv2/L0x5Y+ZZWezHDt2zbXHHz06uz9vdrpBgGGkMe7gKeB94QQzgSQ3yT4n2AAKWUz4DbgdiAr8JkqKVq00bbt7x+W96uwqenR9JeTrhTdMy5j2zl9jf2EILTNMeAF4CUhRFU86G9K/KYZQErZHLgTmAqkBj7zqBz6dHnFvhlfWAc6XNLYkP4z0hTrveMzNp93mrG7CGEsoAh4BZghhChtSP8nA36TDCClbA/cAUwBUgKfOT38OmeB9cjr860DPCraeIyXZhCVt15kXjf+dNOpikKLkMdW4G3gH0KIo/EYL5n4TTGAlLIXcA8wAYIn1+6UO99cUFH0zvfWIaqKJhHj67TCOekc09op55vzdRrahTx2ALOBvwshDiZi/ETgN8EAUsp+wF+BcYTQbK1Stzz3X4v9qzVVA6RMzt+jCNTLR5rW3P5Hc55BJzqGPHYCc4EnhBA7k0FPY3BSM4CUcgRwH3Bh6LOySnXb4x+UsWSzvUfyKfNCEagXDk5dN21cRmqaQYTSoQLfAI8IIdY1AXlR4aRjgGrFy4XAA8CQkMfqsTLPuodnl5rW7XF2Sz51kTGsW8qW6RMz7C0yNQPDPF4IPCyEWJVsuurDScMAUkoFuAB4BOgf8ti196j7p+mzS1vuPuzqkHTiYsDQboYtD07MtLfI1Ayg9u+7EnhaCPFVE5AWFk3OAFJKPXAlMB04NeSxY9dh94b73y5pe+C4u2XyqWs4erbT73p4YuaJji21Q6CWULoReB6vUqlJtYtNxgBSyjRq1LWtg59RuW6PY91Dc8q6FpZ58sJ28BtBmzzNwelXZv4yoLNhMLW1i1uBZ4APhBDu5FPXBAwgpUwHrgPuh+AztSplyaKN9i1PfWTpU14VXl37W0V+jubIw1dl7hnQ2TCAEKUVsB+vdvE1IYQ9mXQljQGklLnU6OmDJleVnPh+vW3Xkx+V9au0y9Af538K2Wal+N7xGVvP6WvsKwQZIY+PA68CzwkhLMmgJ+EMIKVsC9yFd7kPVdce/HR5xS8vfGkd5HTKlLAd/I8izSAqbr3IvH78SFNXRRC6zfnUzC8KIUoSSUfCGEBK2RGvceZGQvY+h1PueWNBxfHZ31sHx0td+1tFqkGpvO0i07rxp5s6Kwqhgm4F8Bbek8ORRIwfdwaodquaBkwkRPq1O2XBrPkVljmLrAPVJGntfivwqZlvON/USq8R7UMeO4CPgceEEHviOW7cJkFKORyvYHdBaL8+de2Xq6vCKUl+RwB82sV7xmWYUg0iVNnlAj4CnhJC7IjHeI1mgLrUtSfK3Zv+9m65ds1OR5Opa3+rEAJ50eDUn++6JN1oTlV6hjz2qZkfE0KsbdQ4DW0opewOzARGhjzyHCxyr5z+TlmzbQec3RtD3O/w4sw+xq33X5GhNjMroV7LEngfuFsIUdiQvhvEAFLKsXj3pEDhzllwyLXqwXdK2/xy3B26h51U0ChwZm8jYwYa2XbAyacrqrBUnfzufqd11u96eEJmZetcbV+C5+4YcLYQYnusfcbMAFLKkcACQO+7d7jYs/qml4rbHCl2t4q1v2Qi1SA4f4CRSWebaJNbc/hwuiUL1tt563sr+483iUIuJvTpoC946ZYcT4gFshDoF+tpISYGkFIa8XrJdvbdmrOocvmMz8tDt4GTChlpChNHpXH5yDTSU0OdfmugSli8yc47C6xs/9WVRApjhyJQ37orZ2WvdobTA25/JoS4LJZ+YmWAa/G6PwHw5Srb0kc/KD0jlj6SiWyzwvjT05g4Kg2TMfLEh8OmfU7eWVDBsq1J1czGBCGQnz2Yt7pNnnZowO2eQohtUfcRy4BSym+B8wAqHXLbqHuPdk2U+1Vj0CJLw6SzTVwyLBWDrnEHnZ2HXHywuJJv1lahyjgRGEdkm5Xi759sIQRkV996UggxPdr2Uf861WbbMsAI8M9PLKvmLqsYWner5CK/mYaJo0xcOjwVvTa+eqa9R93MWVjB/J+r8Jxk8uIrt+YsHdLV4FuJfxJCDI62bSwMMATwebRUDbvrqGiou3W80amVjj+fa2J0PyNKbCt9zDhc5GH2QitfrbHhdJ8cS0L/joYds+7I8SmNXEBmtDELsejhR/j+UVqh7nS4ZL8Y2iYEHVtqueYcM2MGGlGSpFjOb6bhgSszuemCdN5fXMFHSyuxO5uWETbuc3SREkt1EIsOGAgsjaZtLAwwzD/gXmd5bCTGF/6JH5D4Lz4Sss0KU8emM+ksEx8vr+SDxZVYbU2zN6gSpdii7m6WoZxWfWs4CWAA/36/aKPNHEO7uOFkmPhQZJoUpowxc/VZJj5eVsnshRVNolRav9dZcW5/v0V9eLTtolo4pZSdgN3Vl+qo+49VWCuji7OLB07GiY+EKofky9VVvLOgghPlnqSNe1Yf48ZnJmf1rb4sA3Ki8TeMdgXwc5TDKfdaK9XOdb0cL3RsqWXKGDNn9U3eHt9YpBoEV56RxiXDUvlspZcRiiyJZ4TVBY7OgBvvnGYC3YB69QExM8CuI+6j1GgCE4IWWRquP8/MxUNTT/ovPhIMOsGEUWlcNiKVeWtsvPaNNaGMUOVQ02wOWWA0iK7Vt4YTBQNE+/P6BcAlm20JU/yYjAr3jMvg87/lcenw3+7kB0KvFVw6PJXP/5bH1LHp6BupmKoLOw46Ay2CUckB9f7EUkrfcgLAD5tsbWInLQpCFJj711yuPCMNnSY5632FTWXWfCt3vlbClv2Rcz6oEpyuxh31jHrBtaNNDDw11DM8fli82aELuIwPA+D9+hUAVVL4a6EnNOVKXNCjjZ4WWcnTKh8u8jDx6RO8+o2VZVvt3PJyMQs32mq99/NuB5c+XsgZ9x7j9flWZCOP/IO76Ot/qYH4YaMtMGqqo5QyNJS9FqKRAfycdLjIvQ9qebDGBYO7Ju7LCIePl1dyuLhmT65ySO57s5TTOlXSp4MeIQQ7DjpZtcPhn/TXvrFSaZfceUnDD0CDErgCHCv1NPeo8ohGET6z/FDgv3W1iWYF8DPAmgKHoxH01YnBXZLLAO2ah+f9dXucvPV9BW9+Z+XH7Y5aX/znqxqXFaZTKx3Z5sQJNwdPePYHXNa7DdS5AkgpfWpFABZsdDRrMGV1INUg6N1eV/+LccSgEIZLT1UYM8DIqfk6dFrBvmMuvv7JVussP7Rb4xhVCO8q8O262ttNPLByu8MdwNyNYwCgHzXBHLZN+xwJOf7172RAmyTBz4eM1JrxTu+ZwmOTMkOcRYxMGWNmxucW5i6r9N+dMCqt0WP37ahPGAMsWG9rcdWZfhpPk1Km1mUYqm8t8h//yirVXS63TIgE069j4gSjSNhx0Ovx06udnmcmZ4X1FDLoBPeMy+Ciwd5vQFGgZ9vG09q3Q+L+3m2/OjtJiS+sTAecVtf79TGAfwnZ9IsrYZmwerdPPgN8sNj7Vd99WXqdx04hYOrYdAw6gaqCzdF4PX/HVro6XdMaA1VFKbGqgcEjdW4D9VERYACyN37tCwOtRtCjbfL2f4+K/+jXPFNDr3b1M19OuuLf+9fsbHyOSEUklunX73VYAy4bxgDVqdjyfZcrtto6xYG2WujSWttot61osXW/k4lPn2DWfO/v0yI7er1Dqxzvu6/Pt8bF/p/IbWDhBnvgOXV4dfaVsKhrBagxALnk3vJKNTRRYlyQzOX/r2+XsudIjbevNQazrbXKO+l7jri4/oUijpY0Tq/fN4Fyz4/b7F3wGobAm+CyS6R362IAvwC496g7YQkQk8kAoU6d+wvdHC+rfyJV6dUI+lBw0MXkF4oa5RvYo40u7n6LPlQ5ZarNIfcG3Iq4DUS1AizZYk/YGt0niQwQ+tWpKrz1fUW97eatqar1xRdZVDyehm8Fep2gW5vEyT4FB53HAy6HRXovLANUp3HxR538sNGWEP1/8ywNzRuo/1dV+GpNFfPWVFFije5TvG60qZa94T8rKvlkeWWEFl7N4DOf1vaAG9RF32jLXiKPv0s2OwJ1PBFXgEiKoKFUx/arkqJfjrnbxpE2Pxqz/H/2YyVPzfVOjF4r+NcN2QzrXreWrlMrHV8/1hyAsgqV1QUOZnxh4R8fl7O6wMGEUWn0aqdHqxHsOeLii1VVfLqistZSb9QLbrmw8Q5RiRQEF2+xd7jzUj+NnaWUeeECSCMxgJ9jjpa49wIJUQHXtfwfKnLz5WobZ/RKqXVMLKtQee2bmpOO0y1ZXeColwECkWlSOH+AkYGnGrj+hSKWbLazZHPtKKBss8LNF6Qzun8Keq2gqFwlNUWQZWr8Od5rdKLRFsZwOFzkbqGqHFEUWuF1/RsKfBH6XqS/ws8APxW4EqOzBHq1C78HFhx0cdU/i3jzOyt/fr6IN761UmxRsVSpLNtqZ8qLRbWW/dyMhk1ITrrCA1eE5mryIr+Zhg/uy+XS4amYjQoGnSC/mSYukw9e+0P7CEapeOBgkftAwGXYbaDW6FJKDTDId71gQ1VCvn6dRnBqfngGeOFzCxXVLtZuj2Tm11Zmfm0N+64PVY7YPqOdh1ys3O6gT3sdAzobSDWIWn3cdUkGn/9Yxc7DLoZ0NXDx0NS42yx6d9Cz71hiIpJ/3OZwtc2r2zAUjpX7AKbqfzs27nUmxADUqZU2ohDVpXXs0vE3a23YolTQvPSlhav+eYJXvrJw6yslHCp20zNEI5htVkjRC179xsriTXaemlvOXbPirw1P5ClowUZb84DL06SsnYktHAP4OcVaJXc63DIhhvoedRhVbvyDmZz0YNJS9IJJZ5uYMy2XRU+14MtHmvPwVZl0aOHl8ENFbqbNKqGsov4Twdyllf591+WRzJpv5a5L0jm9ZwptcrV0bKnl/sszmb0w+Ii472j8Q8b7JFAQ3LLf2UlKfH+EgTCGoXAbUI0BaJ8jYQag7nXo/1MNgnP6Gv1m2GbpGl65NZtOrWraZJogPyeVPww08uh7Zcz/2cbqAgdjHj5Ol3wdHlWSm6HhkatDzbzQv7OBldtqBL75P9s4rZOBF270BthKCXMWVfDTzmD/lyEJ8Fpqk6sl06RExbixQlXRlFSqu3NMii+MbzjehNV+hGMAv9Jg0SZ7woI/e9SjBBGi5v//vD4raPIDodMIHrk6k1+Ouyk46MLpkgEOni4+W1nFtaNNQW0uHGQMYgAp4fEPy3h7QQWtcjQcPOEOq+od3j3+uSyF8G4DS7ckJg/Bhj0Oyzl9/dNYSw4I+jSklG2oqbMnV2yzh1bDiAuMekGHFpEZQEpYu8v79Q3paqh3mdRqBDecHz5abfuvta13kYTPQ0VuftrpiKjnNxoSoxBNpDp84QZ74A8zLLQQZqgM4OcQp0f+UmJVcxJBVNdTdHX6/L+zoIK9R72ScbTL7pCuBv+qEYgAKdiPQINQLJi3JjFV4hIpB/y4zX4q4OPoZoSk5A/9dWoMQEfch4GEFGeIJAAu22rnnQUVbNpX89VmpkV35k7RC4z6mqNcz3Z6JoxK46w+wct2kcXDC58H52FunqlhdH8j/TrqyUlXcLgkBwrdrNjqYMV2O2r19jz/Zxt5mRpuvtCMTiMosap8s7aKXYddTDrLROcIK0t96N5Gh04jcDXCthAJlQ5psjvlrhS98E38cMBfyyiUAfwrwPKtiTMAdQ+z/2//1cWdr9XOi1xYHp1wZKlS/ZM/okcKE0elcdesEp74EEb2SqFvBz3llSpzl1X6lUhajeCWC81MGJVWyzI3oLOBy4ansfeomyc+KvMz5eyFFXy2sopss8KhIrdfTbxpn4tPpuc2yMJn0Am6nKJjax3BKY3BrsPOY73bG3wMMAxv/mEgYAuQUpqAXr7rRRts+SQI4axgjgiRN0s2R6eIXBygxr3tIjOvzPM6blQ5JN/+bOMfH5cz82urf/INOsErt2ZzzTmmOietY0str92ew+j+NfKw1aZyoNAdZCM4VORmw56GT2Ai9QGLN0U2DAWur0OoXhEkFO895m6XCGJSDYLWzWrvy93b6EgNI2RtO+Bi/s91M4GlSvV7+aQaBG3ztOwII/wFYvqVmQzoHJ18odMIHrs6k66n1L3ENyaWMZFywA+b7IHGvC7VtRuAYAbwc8bxEvfeRNXg69RKFzbU26ATPDM5m0uHpzJuRBqn90xBU03d3z8sY9HG8MekE+Uebp9Z4pfcHS6JR3qX/Ujo30nPBYNiO+HqdYJ7x4e3GbRupuXJa7MaFffXp0PifAMOFbnzVRWfU48goBpb4KfoFwDX7nIlrChy51aRjR9DuhqCpP6Ne53c8VoJVpvKvW+WMLirgXP7GWmdq6HCJvl5t4MvVlUF6fA9qlfT9+zkbFYXOHjjOysb9wavBlec0TD/1j7t9XRvowtKIjnpbBNTx6b7mbWhaJauIT9HExSuFk8cKnLvb5On9dUjGA58Bb4l3+s06E8t9t0GW3atHuKEVjnRW7/6dtRz56XpPPZ+GQBrChysKag/Ou31+VbGDkllaDcvQz04p5Rvq7cRIWBYt4YrdIZ1T/EzQJfWOv7yx/Swx8+GoEdbPYeLE2N8/bHA4WwTxjDk49te4K9f41i3OzERQAAHCmOzfJ3dJ/JkpaUI8nM0tfZet0fiqk7hJoTXE8iH9FQlrKwRLXzeweCVW+I1+fuOuVmxLXFZSReutwUG9Q6U0mvj8bFEgAFI3e10ydD89HHDl6ur6NdRz9gh0dWGCnc2yDQpPHhlJmf0SkFRoLDMw5Nzy1m+1Y5WI3jgyowgV7OW2TWrjraREeiBS328kkFZbSp3v14Ss0k7Fmz+xdlZSiqFIA2vYag/sKoWA2w94CxOGBXVeOrjcjrn6+hWj1QNUBrGSPL4pKwg75+8TA3PT8lm5XY7LbO91rxA7A2w4pVWqLg8ssFJKI6X1uzRa3Y6OV7qabBfI3g9jh+cXcavJxKbpdyjoi2rVLdkBRuGVikBFwD8sNmR8Dhtp0tyzxvRmW5b52j5Q0AiyCFdDWFdv4TwKoBCJ99SpfLcZzWaP1WFdbsbfl7/KSAyqMKmct3zRXy7ztZgF/FXv7YmdOkPxMZ9jkAV6HAAIaVsBRz23T3/oeOFJ5JUrXNwFwMv35IT1fn5RLmHgyc8dG+jI0Vf/9frdEs+We7N21dsCZ6dc/oZefrPsce5HCh0M/6JwrCTnZ+j4fkbc2oxYF34YZOde98sSYhPYDiMGWBc9/drsnw+AUVAnkJACliXh/3JmnyANTsdvPxVdPURczM09O+kj2ryAR7/oIznPrPUmnyARRttrI9RayclPPeZJeKXfrjYw1cxGIv2HnXzt3dLkzb5AMu21jIMdVIICAD99bj7UPLI8WLOooqwuXkai0NFkc/TUsJ9b5VwMIZ9d2YUS3X7FtF9/VabyrRZiRX6wqHSLs0Op9wXcGtY0Pm/4LAr6fVSpIRH3yuLu2Pk6H61NX2BR7YSq8o1/yqqd1KtNpVH3ivjze9qnFLb5mm5YmQa5/Q1kpbi7bRNrpYxp9WvXVQlTE+C0BcJRVY1UMgfrAX8Ub9Hit1NUvyhyiGZNquEd+/J9f+gjcXlI1MpOOTkSLGHs/oYGd0/hYw0hcWb7Dz9STnllSrllSp/ebWEAZ0NXDDIaw7Oy9RQaZccKnKzdIud//5YRXllzbp/bn8jj16d6XdodbolBQdddGgR2ck1EDPnWYK8kZKNEqvqzK/RZbTVAn6PkWZmbfKS24bgQKGbh98t5dnJ2XFRrmg1gscm1Rb0zjvNSF6mhikvFvnt/D/vdgQFf0ZCboaGhyZmBk20Xiui9uhZtNHO2wvqj0VMJLLMSuDZO0sB/EtC30665GZqCsGSzcn5gfp11Dco1Uski2U02HvUzSPvJVfoC4e8TCXQVfyIAqzxXbVrru2Woo+u0kSiMHOehVU7EpaNzo9IGkGjXkQsMNVQQ42lSuXuJhD6QtG7nX6nXiMCvbw2KsBnvisB2feOy/wp+aTVQJXwwDulCbOKgVfm2Hog2C8wI03hpZtzWPZMS5b+swXv3pNby29hzxFXzP6EXk1faUwnjkTh79dmloXc+kjBW4zY7yM2dkjKwM6tdXtpQliqvMekRJViWbXDUSv37z3jMhjW3eBXSnVvo+PJa7NqySMrtsW2Ov17noWV2xO/otWHK05PW52fow0sJvW+EGKPIoTwAJPxFhtCCJE2Z1ozYTYqTVoWZtdhF49/EMqw8YHJGDyrrbI1nNu/9hGuR1sdZwQ4luh10Qt8AAs32niniYU+gFNb6365Z3xGoIGvELgLAiqGSClvB2b4rovK1XVjHj7Wt6nrAt5xcTqTzjbV/2KMWLrFzodLKiks83D3ZRkMjxBaXmxRefFLC1kmhUuGpYZ1Mw+HvUfdXPuvE02+76elCOuCJ1ucMOj8e78bGC2EWAIhJWOklG8A1/uuF2+yLZn2RumoJNEaFooCM27MiSn2v6lhqVL507NFTb7vKwJ13mPN1zXP1AwMuD1VCPGy/52QNrcBfiHwzD7GMyacaVpFE0JVYfrsUg4VNb0QFQ1UCQ/OKWvyyQd4bkrOspDJfzdw8iGEAYQQduBiwFeBWtx9SXrvbm10u2lCWKpUpr1RGnX4d1Pila+aVtPnw2XDjWtO7+mvJgqwHrgx9L1aB14hxFFgHODwXpM2++5cY5ZZ1I7aSCJ2H3bx8JymV6TUhcWb7LVCypsCp+Zr9/31iqzu1Gzxx4E/CiFqWd3CajyEEKuAO3zXGoXWc+9vvl9RaDJVMXjt5+8vbvofOBx+OebmbyeBpi8jVVM25548jRB+Fb8LuFwIEdbSG9EVQwjxKvC67zonXen//A3ZK+JKbQMw4wsLP54E5+pAWKpU7ny9hEp7086+IlDnPtBsj05DYCDIVCHEsoht6unzNmC572JEz5SRV59p+rGRdDYKJ5tQWJfQN3VsOvMebR6mVWLw4s3Zy3MzNAMCbr0jhHitrjZ1MoAQwgVcDviWD3Hnpen9+nXU72gcqY3DySQUnixC35VnmJYP7ZYyMuDWKuCm+trVq9UQQhyTUo4HluB1Jza+dntO+vkPHi9OVP6AaLD7sIvH3i/jT+dEpyRK0YmIQaAZaYIUveB4aT2enb7m1Xy3Ya/jpBD6erbT77pnXHp/aig8BowXQtS7V0al1hJCrJZSTgFmA2gUkf/xA3nrz5t+LMOjxlSAOir0bKfnxjFm+nTQo1G8vgJvL6hgwfoaIXZU7xSuOcdEh5ZaquySZVvtvPC5Jch5477xGZzW2cArX1m45UIzuRkaDhZ5mPFFzVd73/gMLh/pDRXLb+ZVev6008HNLxf727/+jZUbxpho11zLM59a+HRFJaN6p3DD+WZ+fK5lxPGTgYw0pfSNO3KMgC/ezYV38g/X0cyPqCdPCDFHSjkIuBUgy6T0f/nm7KU3v1JyRj1NY0LfjnpenZrD9l9dPPFRGWUVKp3zdbQM8L0f1TuFZydn88MmO//+2kpehreUe5fWOq55tigo0UKrHA3XnWvikffKOF7m4brRZp6dnMXYRwo5Ue7h3/OsaDQwtFsKk58vAsDhDm7/5/NMPDm33B+AGsv4iYRGwf2fB/MO6DSib8DtW4QQUQvrsX69d+JNIj0KYFDXlDOmjDEvf32+9fQY+4k8wMXpHCn2MGVGMe7qH3JNSLaum/5gZsdBF/e+WaOaOFLi4d+35nBOv5SgcHKDTjB9dimHq51EX/rKwmUjUhnVO4VPllditanYHBJVlWFTxxv1gofmlPpT1gC8eFN21OMnEq/elrsyy6QEfoAvCyHeiKWPmGJaq4XCccAvvns3/sE8cEBn/fZY+omEVIOgR1s989ZU+Sc/FCajQud8HQs3BP/IawoclFWo9O8UbDMoLPP4Jx+8QSlF5WrUVUpLrGrQ5Mc6fqJw7WjTyv6ddYGT/yNwd6z9xBzULIQoBi4DfJ5DKTNva5aZk64UxdpXKDLSFISAE3WkhUmvNuUWh0kRX2xVSU8LFvTCnc3dqoy6TE1oaFqs4ycCvdvrC6aOTe8XcOsgcIkQIuaQpwZFtQshNhCgV1YUWv1net5RnTZ2AgJRXqkipTfWLxIsNu+ENkuvTXqOWcFSmdj9t6nHb5aunHjzjmbp1NRztAOXhUsFHw0anNZACPEe8ILv2pyq9Jp5a/bqhvYHPlctJxcONkZMylxhU9l92MXofsYgb50hXQ1kmhTW74ldS+hyE3Vyp0SMHy20GsU194E8Xwp4H24VQqxtaJ+NzXs+DfjOd9Gvk2HkzReal9fxfr144XMLLbM1vHlHDmMGGBnazcDVZ5mCsn2++o2VLq11PDs5m5E9Uxg3Io0nr81i5yEXCzfErpTZd8xFboaGiwan0qOtrl6nj3iPHy1m/SVrVWaa0ifg1vNCiLciNogCjTrDCyE8UsqJwFqqcwpOPs88ZPM+1+aV2+29G9Lnxr1Opswo5qYLzEyfkAnAr4XuoNo+SzbbmfZGCTecb+afk7OCzuENOYItWG+nX8cqbv9jOlkmhbW7vHqASIj3+NHgz+eaV/ZubwjU9P0A3NvYfuMisUgp++BNQpwGoEoKL3rkuHqsxFNv/frfUT8GdUnZOvO27M54NbEAB4CBQogTje07LqUvhBCbgD9RrSRVBBRXs90AAAYpSURBVHkf3ZdbZNDWr4qMJ5JtfEkGcjM1ha/ckp1DzeTb8Ap9jZ58iBMDAAghPgOe9V2bU5We70xr1mDh5HdUC3335x5TFFoG3L5eCLEuXmPEu4Lx/cB838Wp+boRt49Nj2iL/h114607clZnpCmBstQzQogP4zlGXA05QghVSnkVXsfSTgDXjDYN3bjPuWnZVnufultHhs8o8/b3Vm4YY6ZltobDRR5e+tJSZ579bqfo+PN5Znq21ZGRpnCk2MO8n6qYs6jCHxga2L/PaNQmV1vLaORDz3Z6brnATK/23opf63Y7ePY/lrg7gd5+cfqyHu10gULfQuCBuA5C/FcAhBClwFioqWH/rynZrVpmaRtVfjY/R8NVZ5m4e1YJ5z5wnO/X23h2cnbYxNM+tMrRsPeIi6c/KWfqzBI+XVHJpLNM/OWPtWv+BRqNLvjbcdYUOHh2cha5GTVKqd7t9cz6Sw4aDTz8bikPzi4ly6Tw2tScuBbAHtLFsOWas02BUTz7gQlCiLh7wSSkiL0QYgdwDTVCYe4n03PLDbraTonRIkUveOz9Mn455sZqU3l9vpWtB5xMjlAoArzh2K9+Y2XJZjvrdjv4aGklz39u4dLhabXyEvmMRjsOuiixqrz0lQUpvZY/H+64OJ2DJzzc8nIxizd56wze9u8STEZv0Eg80DxDe/ylW7LzqBH6KoCxQohGq9rDIWFF64QQn0spnwSmAxgNouu703JXXv5UYZ317COhvFJl1+HgwMw1BQ4uGxE57atBJ7j6LBOj+6XQPEtDil6gCG/ugNx0TZD1rz6jUapB0Ku9nte+tgblCbJUqWz+xVldAyFyCdpooNcL+ycP5RYpivCV7ZV4hb4tjeq4DiSuaqEXD+MtQ3chQMdW2uHTLk1f9uxnlpF1N6uNcEkZLTaVbLOCRiFs8qZ7x2Vwdr8UZnxuYechF1UOSd+Oeh6akFkrm0d9RqOMNAVFwJQ/mLn+/GAvJK1GsGFv43P9v3VH7to0gwg0rT8lhPi40R3XgYQyQLVQOBFYDXQHmHCmadi6Pc6Nizfb+9bdOhg56ZpaZVZzMzSUVqhhJ18IOPc0I29+Z+W/P9akPGhoXn5LlddQ9fYCK/PX1t7JGhvJPO2y9KXdTtEGmne/x/sBJRQJkQECIYSwApcCvmhj7TM3ZLdpk6c5GEs/qQYRVLVLo8DZfY0BFcKCoQjvFmCtCp6Ys/o2LFF0pd1bjey0TgZ+LXSz/3jwf8dKGx4yMbR7yuYJo0xDA27tBq6ojtxOKBLOAABCiJ14NYUqeBNRfHhfXlUs2UjKK1UeuDKDi4elMqJHCi/cmEPLbA1vfBu+pKxHhZ93Obh8ZCr5zTSYjQqTzzM3qjDDc59Z6NFGx8ypOZw/wMigLgbGDDDy0IRMLhrcMCEwP0dz5MWbslsBPsIq8Nr2ExMbH4KkMACAEOJL4HHfdYpedHl3Wu7GaNsXWVQe/6CMiaNMPHtDFq1yNNz7ZgnbDkTO2PHI+2UcKfHw0f15fPlIHu1bavnHxw1Pe7Blv5Nrnyui0i65b3wGM27K5uYL09Fqwpenqw96vbB/+Ne8MkX4q7NL4DohxLYGExkjEu++EoDqmnUf43UrA+DTFZVLn5pbXqdjqU9Rc/mTDfJ5OGnxwf25K7rk60YE3HpUCPFIMmlI2goAIISQwHWAn8PHjUgbMWZg6s/JpONkwANXZi0JmfwvgceSTUdSGQBACFGBVyj07XGax/+U2aFdnvbXZNPSVDinv3H9ZcONgZNfAEwSQiQ3qIAkbwGBkFKeC3wD3hQ0qsqR8U8UuvcXuts0FU3JwMieKZuem5LdqbpwA4AVGCKEiItndaxoMgYAkFI+ADzhv4aSWfOt21+fbx2eqKplTQWDTtievC5rzaheKcOokfhVvHH785qKrqZmAAHMBcYH3veo8si6Xc7da3c7tYeK3Smq+ttkhhS98LTP09iH9kgRp7bS9RKC0LpzDwkh/t4kxFWjyX9YKaUe+ASvBfH/E/4lhJjW1EQkXQgMRXUww+XAk1TnKvwfRwlww8kw+XASrACBkFJ2wqsxvABoD8Re1+Xkg8Qbrr0Lb1reDxJl2m0I/g8oKcrJVUm0pAAAAABJRU5ErkJggg==;" vertex="1" parent="1">
          <mxGeometry x="2326.77" y="-1830" width="206.45" height="200" as="geometry" />
        </mxCell>
        <mxCell id="ZdIIvcqZWt0Pzcp1OfUl-22" value="" style="rounded=0;whiteSpace=wrap;html=1;" vertex="1" parent="1">
          <mxGeometry x="2020" y="-1435" width="460" height="400" as="geometry" />
        </mxCell>
        <mxCell id="ZdIIvcqZWt0Pzcp1OfUl-23" style="edgeStyle=orthogonalEdgeStyle;rounded=0;orthogonalLoop=1;jettySize=auto;html=1;exitX=0.75;exitY=1;exitDx=0;exitDy=0;entryX=0.642;entryY=0.944;entryDx=0;entryDy=0;entryPerimeter=0;" edge="1" parent="1">
          <mxGeometry relative="1" as="geometry">
            <mxPoint x="2919.357500000001" y="-1270" as="sourcePoint" />
            <mxPoint x="2899.2900200000004" y="-1280.08" as="targetPoint" />
          </mxGeometry>
        </mxCell>
        <mxCell id="ZdIIvcqZWt0Pzcp1OfUl-24" style="edgeStyle=orthogonalEdgeStyle;rounded=0;orthogonalLoop=1;jettySize=auto;html=1;exitX=0.75;exitY=1;exitDx=0;exitDy=0;entryX=0.642;entryY=0.944;entryDx=0;entryDy=0;entryPerimeter=0;" edge="1" parent="1">
          <mxGeometry relative="1" as="geometry">
            <mxPoint x="3080" y="-1240" as="sourcePoint" />
            <mxPoint x="3060" y="-1250" as="targetPoint" />
          </mxGeometry>
        </mxCell>
        <mxCell id="ZdIIvcqZWt0Pzcp1OfUl-25" value="" style="shape=image;verticalLabelPosition=bottom;labelBackgroundColor=default;verticalAlign=top;aspect=fixed;imageAspect=0;image=data:image/png,iVBORw0KGgoAAAANSUhEUgAAAIAAAAB8CAYAAAChbripAAAABmJLR0QA/wD/AP+gvaeTAAAgAElEQVR4nO2dd3hUVfrHP+dOS2Ymk0oIRXpTepOOomDZVRQRBbuuZV1dFxVsuJZdyxbX8nNduyI2LOtasFKkCoj0XkIRAgmkkUmmzz2/PyYzmUwmYSaZOwnrfp8Hntxz23vnvOec97wVfkGQUgop5dlSyjellDuklA4pZZGUcpOU8kkpZb/mpvF/0ABSSkVKeaGUco08MZZLKS9sbpr/hwRASmmQUl4jpdweQ8dHYq2UcoqUUjT3d2iJ/8qPk1KagRuBGcApEaddh4751i/b6vLtPeI32cyK95RWiu/sAalZaWalN6BEXL8ReBL4SAihak99cvFfxQBSynTgNuAPQG6tc1A6f51z818/rOhfXuXPiHZ/x9a6g49elbW/byfD6YAp4vQu4K/AO0IIjwbkNwv+KxhASpkD3A7cAWSGn1MlxQs3OLc+9v7xgZVO1RbL87JtSvHMS9O3jh+QOlAIIu8pBJ4FnhdCOBJBf3PipGYAKWVr4E7g94A5/Jxf5dDHyyr3PveZfajbK1Mb8/x0i2K/Z0r6pnMHp54mIhgLKAZeAJ4TQpQ15vktASclA0gpOwPTgZuBlPBzHj8/z5lvP/zK1/YhfhV9It5nMYmq2y5MWztljLWHopAXcdoOvAn8RQhxJBHvSyZOKgaQUvYFZgLToHbnujxy5+vzK4tnf2cfrqrotHi/QS88V4+3rrn5vLR2Bh2dIk67gbeAx4QQB7V4vxY4KRhASjkQuB+4lAia7Q5189P/qXB9sdoxRMrkfI8iUC8ba119x0VpuSaD6Bpx2gN8ADwuhNiZDHqaghbNAFLK0cC9wAWR58qr1K1/fq+cxZtcvZNPWQCKQL1gmHntjEvTzRaTiKRDBb4CHhFCrG0G8mJCi2OAasXLBcADwPCI02phuX/tQ2+VWdfu8ZyafOrqx8hTUzbPuiLdlZehGxrl9ALgISHEymTTdSK0GAaQUirAr4FHgEERp735R3w/znqrrM3uAm+XpBMXB0acatr84BUZrrwM3RDq/r4rgL8KIb5oBtKiotkZQEppBKYCs4AeEafduwp86+97s7TjgSJfm+RT13j06WTc9dAVGce6ttEPhzpC6QbgGQJKpWbVLjYbA0gpLdSoa9vXPkfV2j3utX+cU97raLk/N+oDThJ0yNUdnDU1Y9+Q7qZh1NUubgH+DrwnhPAln7pmYAAppQ24HrgPau+pVSlLF25wbX5ybkX/447o6tqTFe2ydYcfujJjz5DupiFEKK2A/QS0iy8LIVzJpCtpDCClbEWNnr5W56qSY9+tc+56Ym75wCqXjPxx/quQlaaU3DMlfcv4AakDhCA94nQR8BLwtBCiIhn0aM4AUsqOwF0EpvtIde3Bj5dV7nv2c/vpHo9MifqA/1JYTKLytgvT1k0Za+2lCCKXuaCa+f+EEKVa0qEZA0gpuxIwztxCxNrn9sg9r82vLHrrO/uwRKlrT1aYTUrV7Rda104ZY+2uKEQKupXAGwR2Doe1eH/CGaDarWoGcAUR0q/LI3e8+nVlxZyF9qFqkrR2JwuCauabzrO2NepE54jTbuBD4E9CiD2JfG/COkFKOYqAYPfryOcG1bWfr3JEU5I0G7q3M1BQ7MPhls1NSghB7eLMS9OtZpOIVHZ5gbnAk0KI7Yl4X5MZoCF17bHjvo0Pv31cv3qnu9nUtZEw6gW/GprKtDMtdGtroMKh8skKB3OXVHHsuL+5yQtBCOSFw8w/3TXJlppmVvpEnA6qmf8khFjTpPc09kYp5WnAi8DYiFP+g8W+FbNml+dsPeA5rSnEJRJpqQqXjjEz7Qwr2bZIry/w+iXfrnXy9sIq9hz2NgOF9WNc/9Qt912eruakKZFeyxJ4F7hbCHG0Mc9uFANIKScSWJPChTvPjkPelQ/OLuuwr8gXuYY1GzKsCpePtTDtTAtpqXU7PhpW73Tz8pd2Nu5rWZ5fg7sbdz00LaOqfSv9AGr3XSFwthBiW7zPjJsBpJRjgfmAMdhWUOJf9dvnSzocLvG1jfd5WiErTeHKcVamnmEhxdi4iW7jXg+z51eybKsL2XLEBPp3Me54/nfZ/ggL5FFgYLy7hbh+GSllKgEv2e7BpjkLq5Y99+nxyGWg2dA2S8eVZ1m5ZKQZoyExMu6uAi/vLqriq58cqC3EL1gRqG/clb2ibyfTmLDmT4QQk+N5TrwMcB0B9ycAPl/pXPLoe2VnxPMMrdA+R8+1461cNMKMLraZPm4cKvYxd0kV/17hwONt/ilBCOQnD+au6pCrHxHW3EcIsTXmZ8TzQinlN8C5AFVuufXMe4700sr9KlZ0a2vgpvOsnDUgFSXOAV9U7ueHbW5K7H5GnprCqacYEDE8o7DMz5wFlXy60oG7mRkhK00p+e6JPCEgq7rpCSHErFjvj/knqzbblgOpAH/7qGLlB0srRzR8l3bo2kbPtePTOH9IKkqMI15VYWeBl2VbXCzd7GLHIW+ttT3DqjCku4mxfVIY08eEzdzwg8sqVT5aVsW731dR6Wy+teGF27KXDO9lCs7EPwohhsV6bzwMMBwIerQ4Rt51RDTW3bop6NbWwE3nWzmrf3wj3ueXfLTMwdc/Odj+sxe1gYHbOlPH2D4p3HCOldyME09wx6tU3vu+ig+WVmFvBkYY1NW0/dXp2UGlkRfIiDVmIR4GmEHAdk1Zpbp+/P2FA+OmtAnokqfnugnxjfhwrN7p5vnPKhjbN4W+nYxUOlWWb3WzdIuLSpdKz3aGOucyrAp3TooplgQAh1vy+SoHb3xnp6QieYygCNQfn2tbGRbEcqYQYkks98ZjiBkZ/GNDvud4PAQ2BV3b6LnpvDTOHhj/Gh8OKWH7QS/bDwaUPHmZOkb3SeFvv8kkK03H4k1Olm5x8+rX9tDscPHI+CzTZpNg6hkWLhph5t/Lq3h7YRXFFdprF1WJUlKh7s5JVwZXN40CEs4AofV+4QZnWhz3NQodc/Xc8qs0JgxqWsfXh8IyPx8vq2LvES8TBqbyr3n2hD071Si46iwrU8ZY+Hh5FbPnV1Jq13ZGWJfvqTxnUMiiPirW+2JiACllN2q8d9Tl293dG7q+KcjN0HHteCuTR5sx6LQ3GIpYxP5GwmQQXDnOyuRRFj5dqe3SMH+dMz2MAUZKKZVY/A1jXU1DHOX2yHx7VWxBlvHiynFWPvljLlPPsCSl84PQYoYJR4oxsDR8+lBrTmmljfvDqh3u7kDQrzADiMltPm4G2HXYp0n8W1ZaQOBKbaTatrHQuvPDYTYJRpwa6ReaGDjcqsXpluG+AjEtA7EyQEgAXLzJqYni5/SeppiUMI2FoSGq63mvXoNZaFhPbRgAYPtBT7hFMDEMIKWsNZ0s2ujsED9pJ8aIXtr9MACDu5v41+3Z9GxvqNUuBHUYz2wS3PKrNO6OYwsYOx3GRm1jY8H3m9zhH5ewGWBk8DpVcvTno/7IlCsJwVANR0YQw3qaeOeeVvz1hkzaZAWmBAGI6ilArxNcMsrMZw+35ubz0xJmTApHWqrCaR2MJ76wEVi0wRkeNdVVShkZyl4HsUgkIU4qKPbthToerE1G5zw9rWPQuCUCioDxA1MZ3TuFuUuq2PZzwOY/tk8Kd15io4NGQlo4hnQ3smV/4n0NCsv8rf2qPKxTRNAsPwL4T0P3xMUAq3e43U2gr14M7aH96I9EilFw3QQrHl9A63PJqOSFIwzoos0MAHDwmH9/p9b6IAOMoikMIKU0ACFHzvkb3DlNpjAK+nVO/A9SWOZn+VYXPj+M7m2ifU70TzXq607zqoRtBzz8uMtDh1wdI3qlYElJ3HLQv4sRRdCgPaKxWLHN7evUOvStJ5QDTjQDDKQmmMO5ca82CqD+CRgRDVn6/v4xtMvRMaxnwNI3rJepTsdXOFR+3Olm9U43Sze7a6lwFYWQrWBMnxR6tY/NbFwfbGaFznl68o8kPhxw/jpn3pXjLMHDwVJKc0OGoRMxQGj7V16l7vL6ZP8E0FgLOTYdbbOatv473JI5Cyv55icnB49F/1ELiv18Uuxg5XY3Ewamcv051pC5d2+hj9e+sbNimzuqWVdVA3aEnQVeVm53M2WMhfOGNE1FPbCbSRMG2Pqzp5uUVFQbhgzAYGBZfdefiAFCU8jGfV5NMmH172I48UUnwMINTjbt9XDxCDM92hkoLPOzbIuLVTvd+PwyNHr7dDRSWuln2RY3X//k5PKxgZHy0pcVpBoVHrg8nWybwro9ntAskpaqcHpPE8N6mmifo2Pbz17+vaKKgV2NoZ1Eo767s5GPl1U1+dsjoaoopXZ1T7ZNCeZYGEUTGCDMAOSyNHRhY5GI9d/tlayunr4hEPAxureJG861ogjBsq2BZeGVr+2hZSFcH1BeqbJwj4t5PzowGgSDuxmZONzM471M7C/ysXSLi5e/stdaFpq6fg/sqp0guC7fbZ8wMOSq0aAcUC8DVKdiaxc8XL7F2S0x5NWGFgLg7gIvuwu8lFSo2MwK7yyqjPlej1eycrubldvdvHBbNk/MPa6JSbdNlo7WmTqKyhL/7AXrXbZwBmjIMNSQIqjGAOSV+cer1MhEiU2GUS/odUrTlwCtIKirJUwkBmq0Hfxhq6snNYahTKBnfdc2xAAhATD/iDYGoFNPMUTdhiUKTe7AKGriRCIRu59ocHik2emW+WFN9S4DMc0Aize7NPkZ+iZo+q+vk4SI0eetgV7W0liopRyw46CnKOxwZH3XRWWA6jQuoaiTRRucmuj/E7X+6+rbjzUwgsNjB/T1DAMR+i+iXZCQ2IOubQ1YYwxXixeLN7nD5bu4Z4ARVMf2q5LifYW+jgmkLYQ+nRKz/l803Mxfb8iso0+I1vfpFoXfT7RxRY2yhL/ckMl1E6x1lqNoVrveHY28+occ8jKbbrtQBPRN0G8Qie83u8INQ92llFFtOPXtAkIcc6TUlw8kXAWcbVMSZgAS1QaeMX1SeH9xFW/Or6TSqdYy9ZoMgmlnWrh+grXOqLOZA0wxZYyFF+fZ+XKNAymDlsIA8jJ1/O4CG78amppQuaB/ZyMrtyfexFJQ7MtTVQ4rCm0JfMYI4LPI607IAD/u8DoTTh3Qp2Pi1z+TIWDgmTTSzJyFlbg8MsQcf7jYdkKNY16mjkevzuCysWae+U8gR1O6RWHKGAtXjLNoIrD209IwVOw70DG3lmHoxAwgpdQBpweP5693aGIAOq2DNlNfeaXK/iIfN5yThr66v01x2vWD07zXJ3nzrpy4748HfTsFHES0CDr9Yavb2zG3YcNQNBmgP2Ct/tu9Id+jiQFIC6eI8kqVCx4u4jfPFjPz9VJMBtHozhMCjE24P1aYTYLubbUZDPM3OFuHHQ6Wsm4mtmgMEOIUu0PudPtkwo31QkDvjon/6D1HvDg9AR3tmp1uispbTsqXhqCVPmDzfk83KQmqQU0EDEO10CADbNzr1sQA1DZbR7ol8dufb9fWiCuqhPvfLGNfoQ9Vwsrtbl6cZ6fC0fBcW1zh528fHefRd8tZtUMT/5c66K+BOhxAVdGVVqm7w5rqLAPRhMCQ0mDhRpcmwZ+9EzD9e3ySf82zY00VtM/W8/0mFwvW15ZXN+71cOnjtVPn5Bd6eerGLOrD3CWBIE+AH7a5+fbx1vVemyhoKQiu3+OuGD+gfsNQLQaQUnagps6eXL7VFVkNIyFIxPT/7+UO3l5Y28iTlaZw669tDOxqxOGWfLXGwYdLq2pZ7nYdajgB1LHymhmi0pWcAM+2WTpapes0yVK2YL0rLYwBRkophRAi9ItEzsMhDvH45b5Su5qdcIpIjAD4c4TjR7ZNYe59uVwyykznPD29OxqYeWk6T1xXY8MymwR//U0WcxZWctXfjtXZf6sqbA5z1nR5ZJ1QLilh0UYXuwoSm0lMq2Xgh62uHkCQs3KISMkfyQA1BqDDvgItCBKCOr75jcH0i22cP6RmhfrDRelR079NGBRQEAFMGmlhd4GX5z6tYPtBL3e+XMqnPzjw+iWFZX4efqeMA0drM9YTH5RT5QoMGIdb8sDsMma+Vsq1TxWH/A8SgX4JcIyJhiq3tLo89RuGImWA0MllW7QxALXN1iXEwdJkEPzp6kw27/dyqNjH0B71j6ChPYws2+LCnCJqjWivX/Ln98t5/INyVDWg9Dl7QAqt0nX4VDh41McP29yc/8dCerY3sL/IF4ry9fgkby2oTFikj5aewrsKPIX9OpuCI38kgfzDQBgDSCmtQN/g8cL1znZogETueRUFurXVc6jYF3LvjgZP9Wy9eJOL16fn8MN2F+v21Ez1rTN03H6hjXMG1U0+UeWSvPd9JbMXBDSLoXeLxLqS92hvwGQQmuQc+n6jW9+vc4hRa80A4Z87nGqGkFCSX+jrlHBKCGT6SBQ8Psnu6rX4u3XR6yyoKizYENgd7C7w8tvni5l+sS3k0Dmgq5F372kVcPKMsjO1pAhuOj+N16fnkGOrUSVPn2QjTLhqMgw6oYluBGDRRle4Ma9nde0GoDYDhDijqNSXr1UNvkTt/1UJf3yrnIKSgHzz6jf2WqM6eM0/v6hgx8EagW3bz4EsIZYUhY65ep69JSsmmnqdYuCZW7IwGgRmk2DaGdYT3hPv92iFQ8W+dqpK0KlHEFaNLfzLQwLgml1ezYoiv/t9VUKyZRSV+UMjGwK+fLc8X8yj75Yzb3Ug+fMNTxfz1oLAVjE4us0mQVaaDrtT5d4p6TGnj4WA/eKKMy14feBLcI+9/GVdBk4kDhX79ocdhgZ7YMoPlGwLpRb7dr2zfk1JE3G03M+9b5Ty4u3ZTQq/bpOl49zBqXy71knnPD19OxlZs8vN56scfL6qhn875up57NpMerU3sHGfh0PFPv75eQXd2xkY1oiI5CvHWZmzsJJPVjiYekZiHKW/3+ji9e8Sl6ImGn7Y4fZ0iGIYEgBSyv4ESpkBuEfcdUT1aJwCbtqZFmZMjiyZEx/8Kvx81EfnarnC45PMml3Goo018sC797Ri1Q43L8yrqGVxu26Cld9PbFz497X/KGbbAQ/nDUnl1FOM5GYqnNk3pVEMvbfQx7VPHdO8ZsHArsbtr03PCYb5u4F0IYQ7OP+FGYDU3Vp3PsD7i6v45qemuRroFEKdDwEv4xvPS6t13KOdge/WOeuYW9tmN94ZpX22DlXCV2uc/OOT49z7ehlzl8Qf5GF3qtz9SmlSClZs2ufpLiVBIk1UF+eswwBbDnhKNKemGn9+vzwkxScKPdsbOKt/Ch1a6bnyLAuKEl3w1DXBrSfabuFIaXxqXFXCg2+V19FoagW/ir68St0V1jQKavQAIQZYtMmdtFhtl0cy47Uy3p6Zc8K0rPHg7xHGngenZvDNWgclFSqrd7rZX+TjSBMCMiI7WxGBFDfx4KUv7SzfmtQSgWzY664Y16+WYegpvZSyLRDaJy7bUsuZUHMcKvbx4Jxynr0lS7OETe1ydPzm3MDS4PVLbnuhlFU73Nz66/jTHVY6Vbbs99K/i5HbLrSRlxHQbGZYY2fgRRtdvKGx0BcNC9e7rGEMMFpKKRRgdLDF62f/sWYo1bpiayD2Lhkw6ATXT7Cy9YCnUVk6Pl7uwGQUPH1TFoO7GWmXo4ur8/OP+Hj47bJmKUCxdEsdw1A3hbAA0J+LfIeST1YAb3xrZ+mW5EyJGVYFKeEvHx6PS/V64KiPN76zM7ibMa5OD8LuVJnxanKEvmiocsk0t0fuDWsaWWv/v6PA2ywFjKFaszcnOULRh9UOH9sPenlgdlktHX99KCjxc+fLpVS5ApbDeEewKmFWEoW++lBsV8OF/GEKEIr6PVzia9biD5VJGCGvfG2vpShavMnF9U8Xs7YeLZyqwqcrHVzz1LGQqXjnIS/vL45v2/fSl3ZWJFnoi4ZSuxr+oR31QEgSyknTN7sXZf4RH396r5wnr8tMeGCmqsLr39b2IkpLVahwqNz8XDFd8vSc3tNEmywdbq+koNjP8m2uqPl9n/n0OIO7G2PybVi4oXmEvmjITFPCCc7UAyVU5wEY0M3QImK1569z0ruDgavPTqzBRVFg0kgzH1Vn5rhinIXfX2jDaBBsyPdw35u1FTpCwNQzLEwaaUGnwAtfVNTSMsaC/CM+HnmneYS+aMjNUMKdHA/rHnnkkVFUZwLNsCrWOQsrpc9PszPCj7vc9O9irDe7V2Mx8rQU8jJ0TBxu5opxVnTV6tu8LB1pZoUlm2s6+LwhqfxxWgZZaQoZVoXxA1OpdKoUlqrcMyWdkac2XPDc7lS59fkSipNYPKIh9Otk3Dl5lCU8zuN9BfgkeCQg655LM35MPml1oaoBt+6guTdRUESgEMS4/nU7r3Pr2swWmb9QETBjcjrfPt6aC05v2BlElTBrdlmzC33heOy6jPKIprkKgWLEO4MtE4enDO3e3pBPC8DxKpWZr5XGJKUnApaU2lu7VlF8DGPFi/MqWLEtOXEFseDyMZZV7bL14cWk3hVC7FGEEH7gRgLFhhBCWObMyBFpqUrSysI0hJ2HvPz5vUjG1Qad8/TccI6Vwd2MTBppZkgjM5gu3ODizfmx5yXSGj3aG/bNnJIeXoD6KHAXhIXQSynvAJ4LHhcfV9ee/1DhgOauCxjEnZNsXHVWYoVCLbC/yMc1Tx0LeRI3Nywpwj7/ibxjJoMIqvh9wAQhxGII8wgSQvwf8HrwOCddGfy3GzLrzS+XbDz3WQU/tKApNRoqHCrTq5VFLQGKQP1oVu6OsM4HuDPY+VA3LuB2ICQEjuufesa0cdaVtACoKsx6q4yC4mZXVUSFKuHBOeX1ZiptDjx9c/bS1hm6oWFNbwsh/hl+TS0GEEK4gIuBYAVqcfckW79TOxjCAwybDRUOlRmvlYYigFsSXviiokVo+oKYPCp19Zg+oWqiAOuAWyKvqyPmCiGOAJcScBtCCCxv3d0qNTNNlGpFbDzYVeDlsSQJhbHi+42ukPNpS0CPdvq991+eeRo1Ml4RcJEQoo4LVtR9jhBiJTA9eKxTaP/Bfa33KwotYv79Zq0zruyfWmJfoY+HW5CmL92sK58zM1cnREjF7wUuE0JEtfTWu9EVQrwEvBI8zrYpg565KWt5QqltAlqCUFjhULnzlZYl9H3wQM4eg47wQJDfCyGW1ndPg+aW6oIRC4ExwaZnPqlY+c73lfUmHkwm0i1Ks1QbCeLAUV/CfRqbgn/+LmvJiFNTwtf92UKI6xu654T2turCQ2uA9tVNzhufLd6/Pt8TU2HC/yE5mHqGddnMS22jqenTlcA4IUSD0+QJdZ1CiEJgCtVCIZD68h3Ztqw0JWnew/9Dw+jTybhr5qW2QdR0fiEw5USdDzEWjhRCrAJuDh7rFNHuwwdyD+gUWs6m9xeKdItS9tr07FQgGKbkJdD5MeV3iNnaIYSYA7wQPM60KoP+eWvWiniIPVmx6C95zHtU+1xB8UKn4Pv3g7kHDDoRnsv5d0KImIX1eM1ddwKLgwen90o54+bz01qMuviXhpdub7Ui06oMCGv6pxDitXieERcDCCG8BJRE+4Jtt/wqbeiQ7sZt8Tznf2g6rptgXTGouyFc4v8BuDve58Rt8BZClACTgaBnZcqLt+dkZNuU4nif9T80Dv06G3f8fqJtYFjTQWCSECLuQIdG+VsJIdZLKW8B3gZQFNr+e1bu5gmzimxen0xospue7Q28d28r5q128K8v7dxxkY0RvUykGgW7D/t4+av6HS/OG5LKZWMsdG9nQK/AwWI/X//k4N1FVXVSyigCpp5pYfIoC22zdZRVqixc7+LFLysapK9fZyNXn21lQBcjNrOgvEplzS4Pr31jZ39R4mXkHJty7PXpOTZq6jm6gMlCiKMN3FYvmuR3K6V8hjCV8fo97qU3PlcytinPjESQAdbsctO1jYGj5X627PeQZdNxZr+AW9dNzxWzIb828wf9B0oqVOavd+LySMb0SaFrGz3r8z3c+nwJXn8NE8yamsElo8wUlPhZsN6JlDB+YAolFSpd2uipdEoueLio1jsmjTTzwNQMyuwqS7e4KLX7aZet56wBKfhVuPX5klpp55oKvU7xfvt47rYMixJev/E3Qog36r3pRM9sIk0zCDiUngswsJtp7K0XpC17cZ59TMO3xY+hPUy89o2dl76qKf124TAzj1yVwdVnWdmQX2OrGtTNyFVnWTlU7OOap4o5XhVwyvzXvAqeuSWbUaeZuGa8lde/DbhqD+5u4pJRZnYVeLnh6eKQtfHVb+y8Pj2HtFSFSmdtM0jnPD33XZbOym0uZrxWVmtG6fqdntl3t+LBaelc/uSxhP0Gr/4hc2WGRQkfYM80pfOhETJAOKrdya4AQuFGN56bNnzUaSmbmvLcaDhS6uflsLp/AF/+6MDhlnVSz180PDA7vvpNZajzIZBQ4pn/HEdKuGhEjVPnxGGBgMmXv7LXMjW7PJJ/fRndn3/KGAt6nWDOwirSzIJsmxL6F1gG3HRra2hScclw3HBO2op+nU3hnb8IuKepz22yz7UQolRKeQmwgoAywvDsb7PyLnykqLCw1H/C+vWxYuchb50kD6qEY8f9dSqPBIM11u6uKxvsK/RRXOGnXbaOtFQFu1MNXR8tR8/6PdHli2C9o5fvaDiZao5NF3fugEic3jNly20Xpg0JazoATBVCNFnISIjTvRBio5TyGuBjQCiC3Ln3ttpy7qyizESlm49W0xfA56+bsCFYEiZaRA9AcYVKq3Qd1lSB3Rm43q8SNZO4wy2jOqAEk07c/WppgzkKmyoItsrQHX3hd1nZBLJ6ADgJCH0JWVsSFnUhhPhESvkUMBMgzaz0mT0jZ/m0vxwbfYJbE44As+jItilRR19Otbt3pVOGrm+TpcNmVuowgdkkSDUKIl1Qgu8oLPPXSkOXSOh1iveD+1oVKgr9wpp/I4RYm6h3JDpp/33A18GDHu0Mo++YaKvXFq0VdlZnBB/cve7k0zFXT45NR6svp0IAAAQaSURBVEGJH3v1rBK8flC3ujvYQd2iT2BB6T48X3Gi8cb07FXpFiW88/8uhHg/ke9IKANU16e9EtgTbLt2gnXE2D4pGxP5nhPhs+ro35vOs9bKD6RT4K5LbAgBn62siRD+YnXAU+qWX6WRaqzZGacYRb1ZRD5YUoVfDcQORvNJMJsEEwY1njnuuNi2tHcnQ/huagHwQKMfWA8SG3gHCCHKpJQTgVUQqGH/j5uz2k58+OiRI2W+Nol+XzSs2+PhnUWVXHWWlY9n5bJgvRO3VzKqdwpd8gJ6gDlhPnw/7Xbznx8cTBpp5sNZuSzaENADnNU/laPHa2aKcOQf8fH4++XMmpbBi7dns2qHm52HvOgU6NRaz9AeJn4+5mP+uvgzoQ3vadp87dnW8Cie/cC0RAh9kUg4AwAIIbZLKa8lEHcoFEGrj2a12nH2/YUZ7iSkoAN45j+BFLFTxlq4YJgZvQ4OHvPzwhcVvPN9VS0lEMATc8vZV+hj8mgzl59hocyusqBaE1ifJfCzVQ52HPJy5TgrQ7obGdojUKji2HGVeasdfNuIzm+dri96/ndZudQIfZXARCGEJqp2TUtiSSkfA2YFj/MP+1Zc9uTRBuvZ/5JhNArXgify8i0mESzbKwls9z7U6p3aFK6twUPAvOBB17b6UTMuSb5QeLLgjemt1oR1PsCTWnY+aMwA1ULhFUDIXDxtnHXkuH4pG+q/65eJGZNtS049RR8u9H1HYABpCq1nAIQQduASIBhtrP/7TVkdOuTqDmr97pMFI05L2TTtTOuIsKbdwOXVqnZNoTkDAAghdgLXACoEElG8f2+uI8UoNEtLf7KgXbbu8P/9NqstEFRCVBKw7Scl/CkpDAAghPgc+HPwOMUoer49o9UveikwGoXr/ftzyxURqs4ugeuFEFuTRUPSGKAajxKwFwDQpY1+5P2Xpy9JMg0tBrPvyvnJYhKnhTX9SQjxcb03aICkMkB1wcLrgRCHXzraMvr8oeafkklHS8ADUzMX92xnCLeTfA78Kdl0JHsGQAhRSUAoDK5xuj9fk9GlU67+52TT0lwYPyh13eRRqeGdvwO4unrXlFQknQEAhBC7gMupTlwsIOujWbn6XwITjO2TsvEv12X2pEYLaydg3m3Y+VAjaKoJPBGklA8Aj4eOofTVr+3bXvnaPkqrqmXNBZNBOJ+4PnP1mX1TRlIj8asE4vbnNXCrpmhuBhDABwRiD0Pwq/Lw2l2e3Wt2e/SHSnwpqnpyMkOKUfg75+pcI3qniB5tDX2FILJI0h+FEI81C3HVaPYfVkppBD4CJjY3LUnGP4QQM5qbiGaRAcJRHcxwGfAE1bkK/8tRCtzUEjofWsAMEA4pZTcCGsNfA52BzIbvOCkgCYRr7yJgHn9PK9NuY/D/eWutrXjnXkEAAAAASUVORK5CYII=;" vertex="1" parent="1">
          <mxGeometry x="2140.32" y="-1260" width="185.81" height="180" as="geometry" />
        </mxCell>
        <mxCell id="ZdIIvcqZWt0Pzcp1OfUl-28" value="" style="shape=doubleArrow;direction=south;whiteSpace=wrap;html=1;fillStyle=solid;fillColor=#1A1A1A;" vertex="1" parent="1">
          <mxGeometry x="1520" y="-1820" width="60" height="100" as="geometry" />
        </mxCell>
        <mxCell id="ZdIIvcqZWt0Pzcp1OfUl-29" value="" style="shape=doubleArrow;direction=south;whiteSpace=wrap;html=1;fillStyle=solid;fillColor=#1A1A1A;" vertex="1" parent="1">
          <mxGeometry x="1520" y="-1400" width="60" height="100" as="geometry" />
        </mxCell>
      </root>
    </mxGraphModel>
  </diagram>
</mxfile>
